M48
; DRILL file {KiCad (6.0.2)} date Sun Nov 13 17:15:15 2022
; FORMAT={-:-/ absolute / metric / decimal}
; #@! TF.CreationDate,2022-11-13T17:15:15+11:00
; #@! TF.GenerationSoftware,Kicad,Pcbnew,(6.0.2)
; #@! TF.FileFunction,Plated,1,4,PTH
FMAT,2
METRIC
; #@! TA.AperFunction,Plated,PTH,ViaDrill
T1C0.400
; #@! TA.AperFunction,Plated,PTH,ViaDrill
T2C0.500
; #@! TA.AperFunction,Plated,PTH,ComponentDrill
T3C0.600
; #@! TA.AperFunction,Plated,PTH,ViaDrill
T4C0.800
; #@! TA.AperFunction,Plated,PTH,ComponentDrill
T5C0.800
; #@! TA.AperFunction,Plated,PTH,ComponentDrill
T6C0.850
; #@! TA.AperFunction,Plated,PTH,ComponentDrill
T7C1.000
; #@! TA.AperFunction,Plated,PTH,ComponentDrill
T8C1.200
; #@! TA.AperFunction,Plated,PTH,ComponentDrill
T9C1.500
; #@! TA.AperFunction,Plated,PTH,ComponentDrill
T10C1.700
; #@! TA.AperFunction,Plated,PTH,ComponentDrill
T11C1.900
; #@! TA.AperFunction,Plated,PTH,ComponentDrill
T12C2.500
%
G90
G05
T1
X100.736Y-75.235
X100.914Y-81.026
X100.914Y-86.182
X102.413Y-79.146
X103.378Y-80.416
X104.56Y-89.258
X104.851Y-80.095
X105.375Y-90.525
X106.07Y-74.752
X106.875Y-97.05
X106.998Y-77.691
X108.083Y-92.56
X108.35Y-97.206
X108.65Y-94.0
X109.427Y-99.275
X109.532Y-92.774
X110.439Y-87.122
X110.945Y-97.652
X111.107Y-87.876
X111.422Y-96.774
X111.45Y-99.375
X111.75Y-100.6
X112.206Y-87.772
X112.357Y-90.22
X112.392Y-89.221
X112.4Y-76.25
X112.522Y-82.093
X113.024Y-96.947
X113.335Y-78.994
X113.616Y-84.424
X113.65Y-83.475
X114.017Y-85.068
X114.675Y-90.9
X114.986Y-85.954
X115.2Y-93.6
X115.9Y-86.385
X117.17Y-82.779
X117.648Y-94.273
X117.812Y-95.837
X118.75Y-99.65
X119.285Y-81.848
X119.608Y-93.833
X119.947Y-87.126
X120.04Y-89.357
X120.513Y-96.142
X121.6Y-97.125
X121.869Y-86.426
X125.4Y-99.1
X127.125Y-95.275
X127.27Y-83.75
X127.706Y-81.734
X127.716Y-99.921
X127.725Y-77.225
X128.25Y-83.35
X128.273Y-98.513
X128.48Y-90.62
X129.31Y-91.82
X129.59Y-92.92
X129.6Y-100.15
X129.997Y-98.65
X132.57Y-99.925
X132.675Y-75.15
X133.9Y-90.599
X134.264Y-74.676
X134.3Y-82.05
X135.05Y-91.35
X135.598Y-81.867
X135.6Y-83.316
X135.875Y-92.75
X135.925Y-74.1
X136.25Y-84.075
X136.598Y-82.594
X136.641Y-81.145
X138.588Y-84.647
X138.716Y-92.017
X139.11Y-93.95
X139.55Y-96.65
X140.352Y-86.995
X142.175Y-79.1
X142.2Y-85.4
X143.05Y-73.9
X143.475Y-92.05
X144.45Y-93.175
X144.521Y-91.733
X144.575Y-76.5
X144.95Y-98.675
X145.5Y-81.525
X145.775Y-77.95
X146.387Y-89.962
X146.401Y-82.477
X146.471Y-88.075
X146.748Y-85.275
X146.925Y-79.28
X147.025Y-76.8
X147.45Y-88.45
X147.652Y-85.702
X147.902Y-93.925
X147.925Y-96.2
X147.956Y-91.14
X148.05Y-99.95
X148.15Y-98.7
X148.2Y-97.5
X148.347Y-90.221
X148.599Y-88.295
X148.652Y-86.177
X148.964Y-82.507
X149.452Y-93.98
X149.924Y-76.999
X149.965Y-77.998
X150.1Y-84.45
X150.116Y-90.488
X150.139Y-89.44
X150.55Y-79.475
X150.975Y-90.999
X151.117Y-89.644
X151.575Y-84.41
X151.825Y-94.175
X152.5Y-99.175
X152.553Y-84.611
X153.403Y-85.138
X153.775Y-86.25
X154.125Y-87.2
X154.175Y-83.5
X154.319Y-82.511
X154.357Y-84.835
X154.765Y-88.685
X154.841Y-80.135
X155.1Y-93.35
X155.125Y-72.45
X155.486Y-97.674
X155.65Y-99.3
X155.673Y-79.581
X156.085Y-78.671
X156.125Y-91.5
X156.3Y-95.752
X156.496Y-75.501
X156.575Y-98.725
X156.601Y-97.201
X156.75Y-77.924
X157.45Y-86.325
X157.516Y-91.986
X157.575Y-78.75
X157.679Y-87.33
X157.813Y-91.024
X158.106Y-83.251
X159.051Y-82.925
X159.4Y-96.95
X160.175Y-78.525
X160.175Y-82.85
X161.092Y-95.699
X161.897Y-87.269
X162.05Y-78.55
X162.082Y-86.287
X162.142Y-82.93
X162.5Y-96.925
X162.96Y-78.049
X163.145Y-87.056
X163.16Y-88.055
X163.225Y-79.075
X164.036Y-96.914
X164.05Y-99.725
X164.192Y-95.699
X165.145Y-90.458
X165.25Y-92.4
X165.325Y-78.125
X166.696Y-94.757
X166.725Y-85.275
X166.806Y-91.901
X167.0Y-87.15
X167.375Y-84.475
X167.437Y-83.477
X167.625Y-92.5
X168.61Y-92.67
X169.15Y-94.591
X169.575Y-91.025
X169.65Y-80.825
X169.806Y-86.409
X169.925Y-93.25
X170.825Y-83.95
X171.1Y-81.626
X171.15Y-94.95
X171.55Y-93.175
X171.875Y-97.1
X172.275Y-77.475
X172.364Y-93.914
X173.15Y-92.54
X174.235Y-90.218
X174.85Y-86.775
X175.036Y-85.249
X175.375Y-93.05
X175.925Y-86.575
X176.6Y-92.828
X177.2Y-87.0
X178.25Y-78.1
X178.275Y-79.0
X178.3Y-77.21
X178.32Y-76.25
X178.66Y-92.855
X179.2Y-94.075
X179.55Y-72.874
X179.55Y-73.825
X180.125Y-76.575
X180.275Y-77.45
X180.45Y-90.075
X180.775Y-96.65
X181.375Y-77.675
X181.575Y-78.575
X181.575Y-91.35
X181.65Y-79.475
X181.675Y-81.9
X182.65Y-84.525
X182.675Y-88.0
X183.425Y-79.475
X183.675Y-81.275
X183.805Y-94.255
X183.875Y-73.3
T2
X106.6Y-100.1
X111.506Y-94.132
T4
X106.832Y-84.734
T5
X124.96Y-91.735
X124.96Y-95.235
T6
X158.302Y-76.769
X163.302Y-76.769
T7
X99.815Y-73.24
X99.815Y-84.24
T8
X102.77Y-88.052
X102.77Y-91.552
X102.77Y-95.052
X102.77Y-98.552
T9
X122.6Y-75.875
T10
X120.06Y-73.335
X120.06Y-78.415
X125.14Y-73.335
X125.14Y-78.415
T11
X109.815Y-76.24
X109.815Y-81.24
T12
X115.55Y-74.4
X115.55Y-98.755
X168.0Y-74.4
X168.0Y-98.755
T3
G00X157.302Y-74.419
M15
G01X157.302Y-73.719
M16
G05
G00X164.302Y-73.719
M15
G01X164.302Y-74.419
M16
G05
T0
M30
