%TF.GenerationSoftware,KiCad,Pcbnew,(6.0.2)*%
%TF.CreationDate,2022-11-13T17:15:13+11:00*%
%TF.ProjectId,Strelka_Flight_Computer,53747265-6c6b-4615-9f46-6c696768745f,rev?*%
%TF.SameCoordinates,Original*%
%TF.FileFunction,Legend,Top*%
%TF.FilePolarity,Positive*%
%FSLAX46Y46*%
G04 Gerber Fmt 4.6, Leading zero omitted, Abs format (unit mm)*
G04 Created by KiCad (PCBNEW (6.0.2)) date 2022-11-13 17:15:13*
%MOMM*%
%LPD*%
G01*
G04 APERTURE LIST*
%ADD10C,0.250000*%
%ADD11C,0.100000*%
%ADD12C,0.200000*%
%ADD13C,0.150000*%
%ADD14C,0.300000*%
%ADD15C,0.254000*%
%ADD16C,0.125000*%
%ADD17C,0.120000*%
%ADD18C,0.127000*%
G04 APERTURE END LIST*
D10*
X172666666Y-80972380D02*
X172666666Y-81686666D01*
X172619047Y-81829523D01*
X172523809Y-81924761D01*
X172380952Y-81972380D01*
X172285714Y-81972380D01*
X173619047Y-81972380D02*
X173142857Y-81972380D01*
X173142857Y-80972380D01*
X174523809Y-81877142D02*
X174476190Y-81924761D01*
X174333333Y-81972380D01*
X174238095Y-81972380D01*
X174095238Y-81924761D01*
X174000000Y-81829523D01*
X173952380Y-81734285D01*
X173904761Y-81543809D01*
X173904761Y-81400952D01*
X173952380Y-81210476D01*
X174000000Y-81115238D01*
X174095238Y-81020000D01*
X174238095Y-80972380D01*
X174333333Y-80972380D01*
X174476190Y-81020000D01*
X174523809Y-81067619D01*
X175238095Y-80972380D02*
X175238095Y-81686666D01*
X175190476Y-81829523D01*
X175095238Y-81924761D01*
X174952380Y-81972380D01*
X174857142Y-81972380D01*
X176190476Y-81972380D02*
X175714285Y-81972380D01*
X175714285Y-80972380D01*
X177095238Y-81877142D02*
X177047619Y-81924761D01*
X176904761Y-81972380D01*
X176809523Y-81972380D01*
X176666666Y-81924761D01*
X176571428Y-81829523D01*
X176523809Y-81734285D01*
X176476190Y-81543809D01*
X176476190Y-81400952D01*
X176523809Y-81210476D01*
X176571428Y-81115238D01*
X176666666Y-81020000D01*
X176809523Y-80972380D01*
X176904761Y-80972380D01*
X177047619Y-81020000D01*
X177095238Y-81067619D01*
X177809523Y-80972380D02*
X177809523Y-81686666D01*
X177761904Y-81829523D01*
X177666666Y-81924761D01*
X177523809Y-81972380D01*
X177428571Y-81972380D01*
X178761904Y-81972380D02*
X178285714Y-81972380D01*
X178285714Y-80972380D01*
X179666666Y-81877142D02*
X179619047Y-81924761D01*
X179476190Y-81972380D01*
X179380952Y-81972380D01*
X179238095Y-81924761D01*
X179142857Y-81829523D01*
X179095238Y-81734285D01*
X179047619Y-81543809D01*
X179047619Y-81400952D01*
X179095238Y-81210476D01*
X179142857Y-81115238D01*
X179238095Y-81020000D01*
X179380952Y-80972380D01*
X179476190Y-80972380D01*
X179619047Y-81020000D01*
X179666666Y-81067619D01*
D11*
X122444000Y-83312000D02*
X129524000Y-83312000D01*
X129524000Y-83312000D02*
X129524000Y-89172000D01*
X129524000Y-89172000D02*
X122444000Y-89172000D01*
X122444000Y-89172000D02*
X122444000Y-83312000D01*
D12*
X130634285Y-85041428D02*
X131396190Y-85041428D01*
X131015238Y-85422380D02*
X131015238Y-84660476D01*
X132348571Y-84422380D02*
X131872380Y-84422380D01*
X131824761Y-84898571D01*
X131872380Y-84850952D01*
X131967619Y-84803333D01*
X132205714Y-84803333D01*
X132300952Y-84850952D01*
X132348571Y-84898571D01*
X132396190Y-84993809D01*
X132396190Y-85231904D01*
X132348571Y-85327142D01*
X132300952Y-85374761D01*
X132205714Y-85422380D01*
X131967619Y-85422380D01*
X131872380Y-85374761D01*
X131824761Y-85327142D01*
X132681904Y-84422380D02*
X133015238Y-85422380D01*
X133348571Y-84422380D01*
D13*
X162558571Y-86982380D02*
X162558571Y-85982380D01*
X162891904Y-86696666D01*
X163225238Y-85982380D01*
X163225238Y-86982380D01*
X163891904Y-85982380D02*
X164082380Y-85982380D01*
X164177619Y-86030000D01*
X164272857Y-86125238D01*
X164320476Y-86315714D01*
X164320476Y-86649047D01*
X164272857Y-86839523D01*
X164177619Y-86934761D01*
X164082380Y-86982380D01*
X163891904Y-86982380D01*
X163796666Y-86934761D01*
X163701428Y-86839523D01*
X163653809Y-86649047D01*
X163653809Y-86315714D01*
X163701428Y-86125238D01*
X163796666Y-86030000D01*
X163891904Y-85982380D01*
X164701428Y-86934761D02*
X164844285Y-86982380D01*
X165082380Y-86982380D01*
X165177619Y-86934761D01*
X165225238Y-86887142D01*
X165272857Y-86791904D01*
X165272857Y-86696666D01*
X165225238Y-86601428D01*
X165177619Y-86553809D01*
X165082380Y-86506190D01*
X164891904Y-86458571D01*
X164796666Y-86410952D01*
X164749047Y-86363333D01*
X164701428Y-86268095D01*
X164701428Y-86172857D01*
X164749047Y-86077619D01*
X164796666Y-86030000D01*
X164891904Y-85982380D01*
X165130000Y-85982380D01*
X165272857Y-86030000D01*
X165701428Y-86982380D02*
X165701428Y-85982380D01*
D14*
X125571428Y-90057142D02*
X124428571Y-90057142D01*
X97201904Y-93234323D02*
X98501904Y-93234323D01*
X98501904Y-93543847D01*
X98440000Y-93729561D01*
X98316190Y-93853371D01*
X98192380Y-93915276D01*
X97944761Y-93977180D01*
X97759047Y-93977180D01*
X97511428Y-93915276D01*
X97387619Y-93853371D01*
X97263809Y-93729561D01*
X97201904Y-93543847D01*
X97201904Y-93234323D01*
X97201904Y-95277180D02*
X97820952Y-94843847D01*
X97201904Y-94534323D02*
X98501904Y-94534323D01*
X98501904Y-95029561D01*
X98440000Y-95153371D01*
X98378095Y-95215276D01*
X98254285Y-95277180D01*
X98068571Y-95277180D01*
X97944761Y-95215276D01*
X97882857Y-95153371D01*
X97820952Y-95029561D01*
X97820952Y-94534323D01*
X98501904Y-96081942D02*
X98501904Y-96329561D01*
X98440000Y-96453371D01*
X98316190Y-96577180D01*
X98068571Y-96639085D01*
X97635238Y-96639085D01*
X97387619Y-96577180D01*
X97263809Y-96453371D01*
X97201904Y-96329561D01*
X97201904Y-96081942D01*
X97263809Y-95958133D01*
X97387619Y-95834323D01*
X97635238Y-95772419D01*
X98068571Y-95772419D01*
X98316190Y-95834323D01*
X98440000Y-95958133D01*
X98501904Y-96081942D01*
X98440000Y-97877180D02*
X98501904Y-97753371D01*
X98501904Y-97567657D01*
X98440000Y-97381942D01*
X98316190Y-97258133D01*
X98192380Y-97196228D01*
X97944761Y-97134323D01*
X97759047Y-97134323D01*
X97511428Y-97196228D01*
X97387619Y-97258133D01*
X97263809Y-97381942D01*
X97201904Y-97567657D01*
X97201904Y-97691466D01*
X97263809Y-97877180D01*
X97325714Y-97939085D01*
X97759047Y-97939085D01*
X97759047Y-97691466D01*
X98501904Y-98496228D02*
X97449523Y-98496228D01*
X97325714Y-98558133D01*
X97263809Y-98620038D01*
X97201904Y-98743847D01*
X97201904Y-98991466D01*
X97263809Y-99115276D01*
X97325714Y-99177180D01*
X97449523Y-99239085D01*
X98501904Y-99239085D01*
X97882857Y-99858133D02*
X97882857Y-100291466D01*
X97201904Y-100477180D02*
X97201904Y-99858133D01*
X98501904Y-99858133D01*
X98501904Y-100477180D01*
D13*
X180564761Y-97307142D02*
X180612380Y-97164285D01*
X180612380Y-96926190D01*
X180564761Y-96830952D01*
X180517142Y-96783333D01*
X180421904Y-96735714D01*
X180326666Y-96735714D01*
X180231428Y-96783333D01*
X180183809Y-96830952D01*
X180136190Y-96926190D01*
X180088571Y-97116666D01*
X180040952Y-97211904D01*
X179993333Y-97259523D01*
X179898095Y-97307142D01*
X179802857Y-97307142D01*
X179707619Y-97259523D01*
X179660000Y-97211904D01*
X179612380Y-97116666D01*
X179612380Y-96878571D01*
X179660000Y-96735714D01*
X179612380Y-96402380D02*
X180612380Y-96164285D01*
X179898095Y-95973809D01*
X180612380Y-95783333D01*
X179612380Y-95545238D01*
X180612380Y-95164285D02*
X179612380Y-95164285D01*
X179612380Y-94926190D01*
X179660000Y-94783333D01*
X179755238Y-94688095D01*
X179850476Y-94640476D01*
X180040952Y-94592857D01*
X180183809Y-94592857D01*
X180374285Y-94640476D01*
X180469523Y-94688095D01*
X180564761Y-94783333D01*
X180612380Y-94926190D01*
X180612380Y-95164285D01*
X175815714Y-99121904D02*
X175549047Y-98740952D01*
X175358571Y-99121904D02*
X175358571Y-98321904D01*
X175663333Y-98321904D01*
X175739523Y-98360000D01*
X175777619Y-98398095D01*
X175815714Y-98474285D01*
X175815714Y-98588571D01*
X175777619Y-98664761D01*
X175739523Y-98702857D01*
X175663333Y-98740952D01*
X175358571Y-98740952D01*
X176082380Y-98321904D02*
X176615714Y-99121904D01*
X176615714Y-98321904D02*
X176082380Y-99121904D01*
X176882380Y-98398095D02*
X176920476Y-98360000D01*
X176996666Y-98321904D01*
X177187142Y-98321904D01*
X177263333Y-98360000D01*
X177301428Y-98398095D01*
X177339523Y-98474285D01*
X177339523Y-98550476D01*
X177301428Y-98664761D01*
X176844285Y-99121904D01*
X177339523Y-99121904D01*
X174795714Y-72940000D02*
X174700476Y-72892380D01*
X174557619Y-72892380D01*
X174414761Y-72940000D01*
X174319523Y-73035238D01*
X174271904Y-73130476D01*
X174224285Y-73320952D01*
X174224285Y-73463809D01*
X174271904Y-73654285D01*
X174319523Y-73749523D01*
X174414761Y-73844761D01*
X174557619Y-73892380D01*
X174652857Y-73892380D01*
X174795714Y-73844761D01*
X174843333Y-73797142D01*
X174843333Y-73463809D01*
X174652857Y-73463809D01*
X175271904Y-73892380D02*
X175271904Y-72892380D01*
X175652857Y-72892380D01*
X175748095Y-72940000D01*
X175795714Y-72987619D01*
X175843333Y-73082857D01*
X175843333Y-73225714D01*
X175795714Y-73320952D01*
X175748095Y-73368571D01*
X175652857Y-73416190D01*
X175271904Y-73416190D01*
X176224285Y-73844761D02*
X176367142Y-73892380D01*
X176605238Y-73892380D01*
X176700476Y-73844761D01*
X176748095Y-73797142D01*
X176795714Y-73701904D01*
X176795714Y-73606666D01*
X176748095Y-73511428D01*
X176700476Y-73463809D01*
X176605238Y-73416190D01*
X176414761Y-73368571D01*
X176319523Y-73320952D01*
X176271904Y-73273333D01*
X176224285Y-73178095D01*
X176224285Y-73082857D01*
X176271904Y-72987619D01*
X176319523Y-72940000D01*
X176414761Y-72892380D01*
X176652857Y-72892380D01*
X176795714Y-72940000D01*
X173089523Y-98331904D02*
X173546666Y-98331904D01*
X173318095Y-99131904D02*
X173318095Y-98331904D01*
X173737142Y-98331904D02*
X174270476Y-99131904D01*
X174270476Y-98331904D02*
X173737142Y-99131904D01*
X174537142Y-98408095D02*
X174575238Y-98370000D01*
X174651428Y-98331904D01*
X174841904Y-98331904D01*
X174918095Y-98370000D01*
X174956190Y-98408095D01*
X174994285Y-98484285D01*
X174994285Y-98560476D01*
X174956190Y-98674761D01*
X174499047Y-99131904D01*
X174994285Y-99131904D01*
X170344761Y-91747380D02*
X170344761Y-92556904D01*
X170392380Y-92652142D01*
X170440000Y-92699761D01*
X170535238Y-92747380D01*
X170725714Y-92747380D01*
X170820952Y-92699761D01*
X170868571Y-92652142D01*
X170916190Y-92556904D01*
X170916190Y-91747380D01*
X171344761Y-92461666D02*
X171820952Y-92461666D01*
X171249523Y-92747380D02*
X171582857Y-91747380D01*
X171916190Y-92747380D01*
X172820952Y-92747380D02*
X172487619Y-92271190D01*
X172249523Y-92747380D02*
X172249523Y-91747380D01*
X172630476Y-91747380D01*
X172725714Y-91795000D01*
X172773333Y-91842619D01*
X172820952Y-91937857D01*
X172820952Y-92080714D01*
X172773333Y-92175952D01*
X172725714Y-92223571D01*
X172630476Y-92271190D01*
X172249523Y-92271190D01*
X173106666Y-91747380D02*
X173678095Y-91747380D01*
X173392380Y-92747380D02*
X173392380Y-91747380D01*
X171082857Y-94309761D02*
X171225714Y-94357380D01*
X171463809Y-94357380D01*
X171559047Y-94309761D01*
X171606666Y-94262142D01*
X171654285Y-94166904D01*
X171654285Y-94071666D01*
X171606666Y-93976428D01*
X171559047Y-93928809D01*
X171463809Y-93881190D01*
X171273333Y-93833571D01*
X171178095Y-93785952D01*
X171130476Y-93738333D01*
X171082857Y-93643095D01*
X171082857Y-93547857D01*
X171130476Y-93452619D01*
X171178095Y-93405000D01*
X171273333Y-93357380D01*
X171511428Y-93357380D01*
X171654285Y-93405000D01*
X171987619Y-93357380D02*
X172225714Y-94357380D01*
X172416190Y-93643095D01*
X172606666Y-94357380D01*
X172844761Y-93357380D01*
X142880000Y-72631428D02*
X143641904Y-72631428D01*
X143260952Y-73012380D02*
X143260952Y-72250476D01*
X144022857Y-72012380D02*
X144641904Y-72012380D01*
X144308571Y-72393333D01*
X144451428Y-72393333D01*
X144546666Y-72440952D01*
X144594285Y-72488571D01*
X144641904Y-72583809D01*
X144641904Y-72821904D01*
X144594285Y-72917142D01*
X144546666Y-72964761D01*
X144451428Y-73012380D01*
X144165714Y-73012380D01*
X144070476Y-72964761D01*
X144022857Y-72917142D01*
X145070476Y-72917142D02*
X145118095Y-72964761D01*
X145070476Y-73012380D01*
X145022857Y-72964761D01*
X145070476Y-72917142D01*
X145070476Y-73012380D01*
X145451428Y-72012380D02*
X146070476Y-72012380D01*
X145737142Y-72393333D01*
X145880000Y-72393333D01*
X145975238Y-72440952D01*
X146022857Y-72488571D01*
X146070476Y-72583809D01*
X146070476Y-72821904D01*
X146022857Y-72917142D01*
X145975238Y-72964761D01*
X145880000Y-73012380D01*
X145594285Y-73012380D01*
X145499047Y-72964761D01*
X145451428Y-72917142D01*
X146356190Y-72012380D02*
X146689523Y-73012380D01*
X147022857Y-72012380D01*
D14*
X125571428Y-96927142D02*
X124428571Y-96927142D01*
X125000000Y-97498571D02*
X125000000Y-96355714D01*
D13*
X183938571Y-85757142D02*
X183986190Y-85614285D01*
X184033809Y-85566666D01*
X184129047Y-85519047D01*
X184271904Y-85519047D01*
X184367142Y-85566666D01*
X184414761Y-85614285D01*
X184462380Y-85709523D01*
X184462380Y-86090476D01*
X183462380Y-86090476D01*
X183462380Y-85757142D01*
X183510000Y-85661904D01*
X183557619Y-85614285D01*
X183652857Y-85566666D01*
X183748095Y-85566666D01*
X183843333Y-85614285D01*
X183890952Y-85661904D01*
X183938571Y-85757142D01*
X183938571Y-86090476D01*
X183462380Y-84900000D02*
X183462380Y-84709523D01*
X183510000Y-84614285D01*
X183605238Y-84519047D01*
X183795714Y-84471428D01*
X184129047Y-84471428D01*
X184319523Y-84519047D01*
X184414761Y-84614285D01*
X184462380Y-84709523D01*
X184462380Y-84900000D01*
X184414761Y-84995238D01*
X184319523Y-85090476D01*
X184129047Y-85138095D01*
X183795714Y-85138095D01*
X183605238Y-85090476D01*
X183510000Y-84995238D01*
X183462380Y-84900000D01*
X183462380Y-83852380D02*
X183462380Y-83661904D01*
X183510000Y-83566666D01*
X183605238Y-83471428D01*
X183795714Y-83423809D01*
X184129047Y-83423809D01*
X184319523Y-83471428D01*
X184414761Y-83566666D01*
X184462380Y-83661904D01*
X184462380Y-83852380D01*
X184414761Y-83947619D01*
X184319523Y-84042857D01*
X184129047Y-84090476D01*
X183795714Y-84090476D01*
X183605238Y-84042857D01*
X183510000Y-83947619D01*
X183462380Y-83852380D01*
X183462380Y-83138095D02*
X183462380Y-82566666D01*
X184462380Y-82852380D02*
X183462380Y-82852380D01*
X166428571Y-85612380D02*
X166428571Y-84612380D01*
X166761904Y-85326666D01*
X167095238Y-84612380D01*
X167095238Y-85612380D01*
X167571428Y-85612380D02*
X167571428Y-84612380D01*
X168000000Y-85564761D02*
X168142857Y-85612380D01*
X168380952Y-85612380D01*
X168476190Y-85564761D01*
X168523809Y-85517142D01*
X168571428Y-85421904D01*
X168571428Y-85326666D01*
X168523809Y-85231428D01*
X168476190Y-85183809D01*
X168380952Y-85136190D01*
X168190476Y-85088571D01*
X168095238Y-85040952D01*
X168047619Y-84993333D01*
X168000000Y-84898095D01*
X168000000Y-84802857D01*
X168047619Y-84707619D01*
X168095238Y-84660000D01*
X168190476Y-84612380D01*
X168428571Y-84612380D01*
X168571428Y-84660000D01*
X169190476Y-84612380D02*
X169380952Y-84612380D01*
X169476190Y-84660000D01*
X169571428Y-84755238D01*
X169619047Y-84945714D01*
X169619047Y-85279047D01*
X169571428Y-85469523D01*
X169476190Y-85564761D01*
X169380952Y-85612380D01*
X169190476Y-85612380D01*
X169095238Y-85564761D01*
X169000000Y-85469523D01*
X168952380Y-85279047D01*
X168952380Y-84945714D01*
X169000000Y-84755238D01*
X169095238Y-84660000D01*
X169190476Y-84612380D01*
D14*
X97201904Y-87935047D02*
X98501904Y-87935047D01*
X97573333Y-88368380D01*
X98501904Y-88801714D01*
X97201904Y-88801714D01*
X97573333Y-89358857D02*
X97573333Y-89977904D01*
X97201904Y-89235047D02*
X98501904Y-89668380D01*
X97201904Y-90101714D01*
X97201904Y-90535047D02*
X98501904Y-90535047D01*
X97201904Y-91154095D02*
X98501904Y-91154095D01*
X97201904Y-91896952D01*
X98501904Y-91896952D01*
D13*
X164754285Y-83944761D02*
X164897142Y-83992380D01*
X165135238Y-83992380D01*
X165230476Y-83944761D01*
X165278095Y-83897142D01*
X165325714Y-83801904D01*
X165325714Y-83706666D01*
X165278095Y-83611428D01*
X165230476Y-83563809D01*
X165135238Y-83516190D01*
X164944761Y-83468571D01*
X164849523Y-83420952D01*
X164801904Y-83373333D01*
X164754285Y-83278095D01*
X164754285Y-83182857D01*
X164801904Y-83087619D01*
X164849523Y-83040000D01*
X164944761Y-82992380D01*
X165182857Y-82992380D01*
X165325714Y-83040000D01*
X166325714Y-83897142D02*
X166278095Y-83944761D01*
X166135238Y-83992380D01*
X166040000Y-83992380D01*
X165897142Y-83944761D01*
X165801904Y-83849523D01*
X165754285Y-83754285D01*
X165706666Y-83563809D01*
X165706666Y-83420952D01*
X165754285Y-83230476D01*
X165801904Y-83135238D01*
X165897142Y-83040000D01*
X166040000Y-82992380D01*
X166135238Y-82992380D01*
X166278095Y-83040000D01*
X166325714Y-83087619D01*
X166754285Y-83992380D02*
X166754285Y-82992380D01*
X167325714Y-83992380D02*
X166897142Y-83420952D01*
X167325714Y-82992380D02*
X166754285Y-83563809D01*
D14*
X101880000Y-72388571D02*
X101880000Y-73388571D01*
X101522857Y-71817142D02*
X101165714Y-72888571D01*
X102094285Y-72888571D01*
X102665714Y-73245714D02*
X102737142Y-73317142D01*
X102665714Y-73388571D01*
X102594285Y-73317142D01*
X102665714Y-73245714D01*
X102665714Y-73388571D01*
X103308571Y-72031428D02*
X103380000Y-71960000D01*
X103522857Y-71888571D01*
X103880000Y-71888571D01*
X104022857Y-71960000D01*
X104094285Y-72031428D01*
X104165714Y-72174285D01*
X104165714Y-72317142D01*
X104094285Y-72531428D01*
X103237142Y-73388571D01*
X104165714Y-73388571D01*
X104594285Y-71888571D02*
X105094285Y-73388571D01*
X105594285Y-71888571D01*
X106094285Y-73388571D02*
X106094285Y-72388571D01*
X106094285Y-71888571D02*
X106022857Y-71960000D01*
X106094285Y-72031428D01*
X106165714Y-71960000D01*
X106094285Y-71888571D01*
X106094285Y-72031428D01*
X106808571Y-72388571D02*
X106808571Y-73388571D01*
X106808571Y-72531428D02*
X106880000Y-72460000D01*
X107022857Y-72388571D01*
X107237142Y-72388571D01*
X107380000Y-72460000D01*
X107451428Y-72602857D01*
X107451428Y-73388571D01*
X109308571Y-73388571D02*
X109308571Y-71888571D01*
X109808571Y-72960000D01*
X110308571Y-71888571D01*
X110308571Y-73388571D01*
X110951428Y-72960000D02*
X111665714Y-72960000D01*
X110808571Y-73388571D02*
X111308571Y-71888571D01*
X111808571Y-73388571D01*
X112165714Y-71888571D02*
X113165714Y-73388571D01*
X113165714Y-71888571D02*
X112165714Y-73388571D01*
D12*
X123064238Y-84045571D02*
X123207095Y-84093190D01*
X123254714Y-84140809D01*
X123302333Y-84236047D01*
X123302333Y-84378904D01*
X123254714Y-84474142D01*
X123207095Y-84521761D01*
X123111857Y-84569380D01*
X122730904Y-84569380D01*
X122730904Y-83569380D01*
X123064238Y-83569380D01*
X123159476Y-83617000D01*
X123207095Y-83664619D01*
X123254714Y-83759857D01*
X123254714Y-83855095D01*
X123207095Y-83950333D01*
X123159476Y-83997952D01*
X123064238Y-84045571D01*
X122730904Y-84045571D01*
X124159476Y-84569380D02*
X124159476Y-84045571D01*
X124111857Y-83950333D01*
X124016619Y-83902714D01*
X123826142Y-83902714D01*
X123730904Y-83950333D01*
X124159476Y-84521761D02*
X124064238Y-84569380D01*
X123826142Y-84569380D01*
X123730904Y-84521761D01*
X123683285Y-84426523D01*
X123683285Y-84331285D01*
X123730904Y-84236047D01*
X123826142Y-84188428D01*
X124064238Y-84188428D01*
X124159476Y-84140809D01*
X124492809Y-83902714D02*
X124873761Y-83902714D01*
X124635666Y-83569380D02*
X124635666Y-84426523D01*
X124683285Y-84521761D01*
X124778523Y-84569380D01*
X124873761Y-84569380D01*
X125064238Y-83902714D02*
X125445190Y-83902714D01*
X125207095Y-83569380D02*
X125207095Y-84426523D01*
X125254714Y-84521761D01*
X125349952Y-84569380D01*
X125445190Y-84569380D01*
X126540428Y-84569380D02*
X126540428Y-83569380D01*
X126921380Y-83569380D01*
X127016619Y-83617000D01*
X127064238Y-83664619D01*
X127111857Y-83759857D01*
X127111857Y-83902714D01*
X127064238Y-83997952D01*
X127016619Y-84045571D01*
X126921380Y-84093190D01*
X126540428Y-84093190D01*
X127445190Y-83569380D02*
X127683285Y-84569380D01*
X127873761Y-83855095D01*
X128064238Y-84569380D01*
X128302333Y-83569380D01*
X129254714Y-84569380D02*
X128921380Y-84093190D01*
X128683285Y-84569380D02*
X128683285Y-83569380D01*
X129064238Y-83569380D01*
X129159476Y-83617000D01*
X129207095Y-83664619D01*
X129254714Y-83759857D01*
X129254714Y-83902714D01*
X129207095Y-83997952D01*
X129159476Y-84045571D01*
X129064238Y-84093190D01*
X128683285Y-84093190D01*
X123849952Y-86131761D02*
X123992809Y-86179380D01*
X124230904Y-86179380D01*
X124326142Y-86131761D01*
X124373761Y-86084142D01*
X124421380Y-85988904D01*
X124421380Y-85893666D01*
X124373761Y-85798428D01*
X124326142Y-85750809D01*
X124230904Y-85703190D01*
X124040428Y-85655571D01*
X123945190Y-85607952D01*
X123897571Y-85560333D01*
X123849952Y-85465095D01*
X123849952Y-85369857D01*
X123897571Y-85274619D01*
X123945190Y-85227000D01*
X124040428Y-85179380D01*
X124278523Y-85179380D01*
X124421380Y-85227000D01*
X125230904Y-86131761D02*
X125135666Y-86179380D01*
X124945190Y-86179380D01*
X124849952Y-86131761D01*
X124802333Y-86036523D01*
X124802333Y-85655571D01*
X124849952Y-85560333D01*
X124945190Y-85512714D01*
X125135666Y-85512714D01*
X125230904Y-85560333D01*
X125278523Y-85655571D01*
X125278523Y-85750809D01*
X124802333Y-85846047D01*
X125849952Y-86179380D02*
X125754714Y-86131761D01*
X125707095Y-86036523D01*
X125707095Y-85179380D01*
X126611857Y-86131761D02*
X126516619Y-86179380D01*
X126326142Y-86179380D01*
X126230904Y-86131761D01*
X126183285Y-86036523D01*
X126183285Y-85655571D01*
X126230904Y-85560333D01*
X126326142Y-85512714D01*
X126516619Y-85512714D01*
X126611857Y-85560333D01*
X126659476Y-85655571D01*
X126659476Y-85750809D01*
X126183285Y-85846047D01*
X127516619Y-86131761D02*
X127421380Y-86179380D01*
X127230904Y-86179380D01*
X127135666Y-86131761D01*
X127088047Y-86084142D01*
X127040428Y-85988904D01*
X127040428Y-85703190D01*
X127088047Y-85607952D01*
X127135666Y-85560333D01*
X127230904Y-85512714D01*
X127421380Y-85512714D01*
X127516619Y-85560333D01*
X127802333Y-85512714D02*
X128183285Y-85512714D01*
X127945190Y-85179380D02*
X127945190Y-86036523D01*
X127992809Y-86131761D01*
X128088047Y-86179380D01*
X128183285Y-86179380D01*
D13*
X182422380Y-74987619D02*
X181946190Y-75320952D01*
X182422380Y-75559047D02*
X181422380Y-75559047D01*
X181422380Y-75178095D01*
X181470000Y-75082857D01*
X181517619Y-75035238D01*
X181612857Y-74987619D01*
X181755714Y-74987619D01*
X181850952Y-75035238D01*
X181898571Y-75082857D01*
X181946190Y-75178095D01*
X181946190Y-75559047D01*
X182374761Y-74606666D02*
X182422380Y-74463809D01*
X182422380Y-74225714D01*
X182374761Y-74130476D01*
X182327142Y-74082857D01*
X182231904Y-74035238D01*
X182136666Y-74035238D01*
X182041428Y-74082857D01*
X181993809Y-74130476D01*
X181946190Y-74225714D01*
X181898571Y-74416190D01*
X181850952Y-74511428D01*
X181803333Y-74559047D01*
X181708095Y-74606666D01*
X181612857Y-74606666D01*
X181517619Y-74559047D01*
X181470000Y-74511428D01*
X181422380Y-74416190D01*
X181422380Y-74178095D01*
X181470000Y-74035238D01*
X181422380Y-73749523D02*
X181422380Y-73178095D01*
X182422380Y-73463809D02*
X181422380Y-73463809D01*
%TO.C,C4*%
X139747142Y-95566666D02*
X139794761Y-95614285D01*
X139842380Y-95757142D01*
X139842380Y-95852380D01*
X139794761Y-95995238D01*
X139699523Y-96090476D01*
X139604285Y-96138095D01*
X139413809Y-96185714D01*
X139270952Y-96185714D01*
X139080476Y-96138095D01*
X138985238Y-96090476D01*
X138890000Y-95995238D01*
X138842380Y-95852380D01*
X138842380Y-95757142D01*
X138890000Y-95614285D01*
X138937619Y-95566666D01*
X139175714Y-94709523D02*
X139842380Y-94709523D01*
X138794761Y-94947619D02*
X139509047Y-95185714D01*
X139509047Y-94566666D01*
%TO.C,R66*%
X135532380Y-82972857D02*
X135056190Y-83306190D01*
X135532380Y-83544285D02*
X134532380Y-83544285D01*
X134532380Y-83163333D01*
X134580000Y-83068095D01*
X134627619Y-83020476D01*
X134722857Y-82972857D01*
X134865714Y-82972857D01*
X134960952Y-83020476D01*
X135008571Y-83068095D01*
X135056190Y-83163333D01*
X135056190Y-83544285D01*
X134532380Y-82115714D02*
X134532380Y-82306190D01*
X134580000Y-82401428D01*
X134627619Y-82449047D01*
X134770476Y-82544285D01*
X134960952Y-82591904D01*
X135341904Y-82591904D01*
X135437142Y-82544285D01*
X135484761Y-82496666D01*
X135532380Y-82401428D01*
X135532380Y-82210952D01*
X135484761Y-82115714D01*
X135437142Y-82068095D01*
X135341904Y-82020476D01*
X135103809Y-82020476D01*
X135008571Y-82068095D01*
X134960952Y-82115714D01*
X134913333Y-82210952D01*
X134913333Y-82401428D01*
X134960952Y-82496666D01*
X135008571Y-82544285D01*
X135103809Y-82591904D01*
X134532380Y-81163333D02*
X134532380Y-81353809D01*
X134580000Y-81449047D01*
X134627619Y-81496666D01*
X134770476Y-81591904D01*
X134960952Y-81639523D01*
X135341904Y-81639523D01*
X135437142Y-81591904D01*
X135484761Y-81544285D01*
X135532380Y-81449047D01*
X135532380Y-81258571D01*
X135484761Y-81163333D01*
X135437142Y-81115714D01*
X135341904Y-81068095D01*
X135103809Y-81068095D01*
X135008571Y-81115714D01*
X134960952Y-81163333D01*
X134913333Y-81258571D01*
X134913333Y-81449047D01*
X134960952Y-81544285D01*
X135008571Y-81591904D01*
X135103809Y-81639523D01*
%TO.C,U3*%
X110842380Y-83021904D02*
X111651904Y-83021904D01*
X111747142Y-82974285D01*
X111794761Y-82926666D01*
X111842380Y-82831428D01*
X111842380Y-82640952D01*
X111794761Y-82545714D01*
X111747142Y-82498095D01*
X111651904Y-82450476D01*
X110842380Y-82450476D01*
X110842380Y-82069523D02*
X110842380Y-81450476D01*
X111223333Y-81783809D01*
X111223333Y-81640952D01*
X111270952Y-81545714D01*
X111318571Y-81498095D01*
X111413809Y-81450476D01*
X111651904Y-81450476D01*
X111747142Y-81498095D01*
X111794761Y-81545714D01*
X111842380Y-81640952D01*
X111842380Y-81926666D01*
X111794761Y-82021904D01*
X111747142Y-82069523D01*
D15*
%TO.C,IC2*%
X176574523Y-85099761D02*
X175304523Y-85099761D01*
X176453571Y-83769285D02*
X176514047Y-83829761D01*
X176574523Y-84011190D01*
X176574523Y-84132142D01*
X176514047Y-84313571D01*
X176393095Y-84434523D01*
X176272142Y-84495000D01*
X176030238Y-84555476D01*
X175848809Y-84555476D01*
X175606904Y-84495000D01*
X175485952Y-84434523D01*
X175365000Y-84313571D01*
X175304523Y-84132142D01*
X175304523Y-84011190D01*
X175365000Y-83829761D01*
X175425476Y-83769285D01*
X175425476Y-83285476D02*
X175365000Y-83225000D01*
X175304523Y-83104047D01*
X175304523Y-82801666D01*
X175365000Y-82680714D01*
X175425476Y-82620238D01*
X175546428Y-82559761D01*
X175667380Y-82559761D01*
X175848809Y-82620238D01*
X176574523Y-83345952D01*
X176574523Y-82559761D01*
D13*
%TO.C,C9*%
X121163333Y-83827142D02*
X121115714Y-83874761D01*
X120972857Y-83922380D01*
X120877619Y-83922380D01*
X120734761Y-83874761D01*
X120639523Y-83779523D01*
X120591904Y-83684285D01*
X120544285Y-83493809D01*
X120544285Y-83350952D01*
X120591904Y-83160476D01*
X120639523Y-83065238D01*
X120734761Y-82970000D01*
X120877619Y-82922380D01*
X120972857Y-82922380D01*
X121115714Y-82970000D01*
X121163333Y-83017619D01*
X121639523Y-83922380D02*
X121830000Y-83922380D01*
X121925238Y-83874761D01*
X121972857Y-83827142D01*
X122068095Y-83684285D01*
X122115714Y-83493809D01*
X122115714Y-83112857D01*
X122068095Y-83017619D01*
X122020476Y-82970000D01*
X121925238Y-82922380D01*
X121734761Y-82922380D01*
X121639523Y-82970000D01*
X121591904Y-83017619D01*
X121544285Y-83112857D01*
X121544285Y-83350952D01*
X121591904Y-83446190D01*
X121639523Y-83493809D01*
X121734761Y-83541428D01*
X121925238Y-83541428D01*
X122020476Y-83493809D01*
X122068095Y-83446190D01*
X122115714Y-83350952D01*
%TO.C,J3*%
X100036380Y-93635333D02*
X100750666Y-93635333D01*
X100893523Y-93682952D01*
X100988761Y-93778190D01*
X101036380Y-93921047D01*
X101036380Y-94016285D01*
X100036380Y-93254380D02*
X100036380Y-92635333D01*
X100417333Y-92968666D01*
X100417333Y-92825809D01*
X100464952Y-92730571D01*
X100512571Y-92682952D01*
X100607809Y-92635333D01*
X100845904Y-92635333D01*
X100941142Y-92682952D01*
X100988761Y-92730571D01*
X101036380Y-92825809D01*
X101036380Y-93111523D01*
X100988761Y-93206761D01*
X100941142Y-93254380D01*
%TO.C,D4*%
X120602380Y-92938095D02*
X119602380Y-92938095D01*
X119602380Y-92700000D01*
X119650000Y-92557142D01*
X119745238Y-92461904D01*
X119840476Y-92414285D01*
X120030952Y-92366666D01*
X120173809Y-92366666D01*
X120364285Y-92414285D01*
X120459523Y-92461904D01*
X120554761Y-92557142D01*
X120602380Y-92700000D01*
X120602380Y-92938095D01*
X119935714Y-91509523D02*
X120602380Y-91509523D01*
X119554761Y-91747619D02*
X120269047Y-91985714D01*
X120269047Y-91366666D01*
%TO.C,C21*%
X137987142Y-87482857D02*
X138034761Y-87530476D01*
X138082380Y-87673333D01*
X138082380Y-87768571D01*
X138034761Y-87911428D01*
X137939523Y-88006666D01*
X137844285Y-88054285D01*
X137653809Y-88101904D01*
X137510952Y-88101904D01*
X137320476Y-88054285D01*
X137225238Y-88006666D01*
X137130000Y-87911428D01*
X137082380Y-87768571D01*
X137082380Y-87673333D01*
X137130000Y-87530476D01*
X137177619Y-87482857D01*
X137177619Y-87101904D02*
X137130000Y-87054285D01*
X137082380Y-86959047D01*
X137082380Y-86720952D01*
X137130000Y-86625714D01*
X137177619Y-86578095D01*
X137272857Y-86530476D01*
X137368095Y-86530476D01*
X137510952Y-86578095D01*
X138082380Y-87149523D01*
X138082380Y-86530476D01*
X138082380Y-85578095D02*
X138082380Y-86149523D01*
X138082380Y-85863809D02*
X137082380Y-85863809D01*
X137225238Y-85959047D01*
X137320476Y-86054285D01*
X137368095Y-86149523D01*
D16*
%TO.C,R13*%
X132545971Y-87678390D02*
X132379304Y-87440295D01*
X132260257Y-87678390D02*
X132260257Y-87178390D01*
X132450733Y-87178390D01*
X132498352Y-87202200D01*
X132522161Y-87226009D01*
X132545971Y-87273628D01*
X132545971Y-87345057D01*
X132522161Y-87392676D01*
X132498352Y-87416485D01*
X132450733Y-87440295D01*
X132260257Y-87440295D01*
X133022161Y-87678390D02*
X132736447Y-87678390D01*
X132879304Y-87678390D02*
X132879304Y-87178390D01*
X132831685Y-87249819D01*
X132784066Y-87297438D01*
X132736447Y-87321247D01*
X133188828Y-87178390D02*
X133498352Y-87178390D01*
X133331685Y-87368866D01*
X133403114Y-87368866D01*
X133450733Y-87392676D01*
X133474542Y-87416485D01*
X133498352Y-87464104D01*
X133498352Y-87583152D01*
X133474542Y-87630771D01*
X133450733Y-87654580D01*
X133403114Y-87678390D01*
X133260257Y-87678390D01*
X133212638Y-87654580D01*
X133188828Y-87630771D01*
%TO.C,C37*%
X174848571Y-77648571D02*
X174824761Y-77672380D01*
X174753333Y-77696190D01*
X174705714Y-77696190D01*
X174634285Y-77672380D01*
X174586666Y-77624761D01*
X174562857Y-77577142D01*
X174539047Y-77481904D01*
X174539047Y-77410476D01*
X174562857Y-77315238D01*
X174586666Y-77267619D01*
X174634285Y-77220000D01*
X174705714Y-77196190D01*
X174753333Y-77196190D01*
X174824761Y-77220000D01*
X174848571Y-77243809D01*
X175015238Y-77196190D02*
X175324761Y-77196190D01*
X175158095Y-77386666D01*
X175229523Y-77386666D01*
X175277142Y-77410476D01*
X175300952Y-77434285D01*
X175324761Y-77481904D01*
X175324761Y-77600952D01*
X175300952Y-77648571D01*
X175277142Y-77672380D01*
X175229523Y-77696190D01*
X175086666Y-77696190D01*
X175039047Y-77672380D01*
X175015238Y-77648571D01*
X175491428Y-77196190D02*
X175824761Y-77196190D01*
X175610476Y-77696190D01*
D13*
%TO.C,D2*%
X118122380Y-93018095D02*
X117122380Y-93018095D01*
X117122380Y-92780000D01*
X117170000Y-92637142D01*
X117265238Y-92541904D01*
X117360476Y-92494285D01*
X117550952Y-92446666D01*
X117693809Y-92446666D01*
X117884285Y-92494285D01*
X117979523Y-92541904D01*
X118074761Y-92637142D01*
X118122380Y-92780000D01*
X118122380Y-93018095D01*
X117217619Y-92065714D02*
X117170000Y-92018095D01*
X117122380Y-91922857D01*
X117122380Y-91684761D01*
X117170000Y-91589523D01*
X117217619Y-91541904D01*
X117312857Y-91494285D01*
X117408095Y-91494285D01*
X117550952Y-91541904D01*
X118122380Y-92113333D01*
X118122380Y-91494285D01*
%TO.C,C1*%
X143653333Y-94337142D02*
X143605714Y-94384761D01*
X143462857Y-94432380D01*
X143367619Y-94432380D01*
X143224761Y-94384761D01*
X143129523Y-94289523D01*
X143081904Y-94194285D01*
X143034285Y-94003809D01*
X143034285Y-93860952D01*
X143081904Y-93670476D01*
X143129523Y-93575238D01*
X143224761Y-93480000D01*
X143367619Y-93432380D01*
X143462857Y-93432380D01*
X143605714Y-93480000D01*
X143653333Y-93527619D01*
X144605714Y-94432380D02*
X144034285Y-94432380D01*
X144320000Y-94432380D02*
X144320000Y-93432380D01*
X144224761Y-93575238D01*
X144129523Y-93670476D01*
X144034285Y-93718095D01*
%TO.C,C52*%
X125827142Y-99107142D02*
X125779523Y-99154761D01*
X125636666Y-99202380D01*
X125541428Y-99202380D01*
X125398571Y-99154761D01*
X125303333Y-99059523D01*
X125255714Y-98964285D01*
X125208095Y-98773809D01*
X125208095Y-98630952D01*
X125255714Y-98440476D01*
X125303333Y-98345238D01*
X125398571Y-98250000D01*
X125541428Y-98202380D01*
X125636666Y-98202380D01*
X125779523Y-98250000D01*
X125827142Y-98297619D01*
X126731904Y-98202380D02*
X126255714Y-98202380D01*
X126208095Y-98678571D01*
X126255714Y-98630952D01*
X126350952Y-98583333D01*
X126589047Y-98583333D01*
X126684285Y-98630952D01*
X126731904Y-98678571D01*
X126779523Y-98773809D01*
X126779523Y-99011904D01*
X126731904Y-99107142D01*
X126684285Y-99154761D01*
X126589047Y-99202380D01*
X126350952Y-99202380D01*
X126255714Y-99154761D01*
X126208095Y-99107142D01*
X127160476Y-98297619D02*
X127208095Y-98250000D01*
X127303333Y-98202380D01*
X127541428Y-98202380D01*
X127636666Y-98250000D01*
X127684285Y-98297619D01*
X127731904Y-98392857D01*
X127731904Y-98488095D01*
X127684285Y-98630952D01*
X127112857Y-99202380D01*
X127731904Y-99202380D01*
%TO.C,R50*%
X114927142Y-96979980D02*
X114593809Y-96503790D01*
X114355714Y-96979980D02*
X114355714Y-95979980D01*
X114736666Y-95979980D01*
X114831904Y-96027600D01*
X114879523Y-96075219D01*
X114927142Y-96170457D01*
X114927142Y-96313314D01*
X114879523Y-96408552D01*
X114831904Y-96456171D01*
X114736666Y-96503790D01*
X114355714Y-96503790D01*
X115831904Y-95979980D02*
X115355714Y-95979980D01*
X115308095Y-96456171D01*
X115355714Y-96408552D01*
X115450952Y-96360933D01*
X115689047Y-96360933D01*
X115784285Y-96408552D01*
X115831904Y-96456171D01*
X115879523Y-96551409D01*
X115879523Y-96789504D01*
X115831904Y-96884742D01*
X115784285Y-96932361D01*
X115689047Y-96979980D01*
X115450952Y-96979980D01*
X115355714Y-96932361D01*
X115308095Y-96884742D01*
X116498571Y-95979980D02*
X116593809Y-95979980D01*
X116689047Y-96027600D01*
X116736666Y-96075219D01*
X116784285Y-96170457D01*
X116831904Y-96360933D01*
X116831904Y-96599028D01*
X116784285Y-96789504D01*
X116736666Y-96884742D01*
X116689047Y-96932361D01*
X116593809Y-96979980D01*
X116498571Y-96979980D01*
X116403333Y-96932361D01*
X116355714Y-96884742D01*
X116308095Y-96789504D01*
X116260476Y-96599028D01*
X116260476Y-96360933D01*
X116308095Y-96170457D01*
X116355714Y-96075219D01*
X116403333Y-96027600D01*
X116498571Y-95979980D01*
%TO.C,FB1*%
X143236666Y-92518571D02*
X142903333Y-92518571D01*
X142903333Y-93042380D02*
X142903333Y-92042380D01*
X143379523Y-92042380D01*
X144093809Y-92518571D02*
X144236666Y-92566190D01*
X144284285Y-92613809D01*
X144331904Y-92709047D01*
X144331904Y-92851904D01*
X144284285Y-92947142D01*
X144236666Y-92994761D01*
X144141428Y-93042380D01*
X143760476Y-93042380D01*
X143760476Y-92042380D01*
X144093809Y-92042380D01*
X144189047Y-92090000D01*
X144236666Y-92137619D01*
X144284285Y-92232857D01*
X144284285Y-92328095D01*
X144236666Y-92423333D01*
X144189047Y-92470952D01*
X144093809Y-92518571D01*
X143760476Y-92518571D01*
X145284285Y-93042380D02*
X144712857Y-93042380D01*
X144998571Y-93042380D02*
X144998571Y-92042380D01*
X144903333Y-92185238D01*
X144808095Y-92280476D01*
X144712857Y-92328095D01*
%TO.C,R68*%
X129722380Y-82572857D02*
X129246190Y-82906190D01*
X129722380Y-83144285D02*
X128722380Y-83144285D01*
X128722380Y-82763333D01*
X128770000Y-82668095D01*
X128817619Y-82620476D01*
X128912857Y-82572857D01*
X129055714Y-82572857D01*
X129150952Y-82620476D01*
X129198571Y-82668095D01*
X129246190Y-82763333D01*
X129246190Y-83144285D01*
X128722380Y-81715714D02*
X128722380Y-81906190D01*
X128770000Y-82001428D01*
X128817619Y-82049047D01*
X128960476Y-82144285D01*
X129150952Y-82191904D01*
X129531904Y-82191904D01*
X129627142Y-82144285D01*
X129674761Y-82096666D01*
X129722380Y-82001428D01*
X129722380Y-81810952D01*
X129674761Y-81715714D01*
X129627142Y-81668095D01*
X129531904Y-81620476D01*
X129293809Y-81620476D01*
X129198571Y-81668095D01*
X129150952Y-81715714D01*
X129103333Y-81810952D01*
X129103333Y-82001428D01*
X129150952Y-82096666D01*
X129198571Y-82144285D01*
X129293809Y-82191904D01*
X129150952Y-81049047D02*
X129103333Y-81144285D01*
X129055714Y-81191904D01*
X128960476Y-81239523D01*
X128912857Y-81239523D01*
X128817619Y-81191904D01*
X128770000Y-81144285D01*
X128722380Y-81049047D01*
X128722380Y-80858571D01*
X128770000Y-80763333D01*
X128817619Y-80715714D01*
X128912857Y-80668095D01*
X128960476Y-80668095D01*
X129055714Y-80715714D01*
X129103333Y-80763333D01*
X129150952Y-80858571D01*
X129150952Y-81049047D01*
X129198571Y-81144285D01*
X129246190Y-81191904D01*
X129341428Y-81239523D01*
X129531904Y-81239523D01*
X129627142Y-81191904D01*
X129674761Y-81144285D01*
X129722380Y-81049047D01*
X129722380Y-80858571D01*
X129674761Y-80763333D01*
X129627142Y-80715714D01*
X129531904Y-80668095D01*
X129341428Y-80668095D01*
X129246190Y-80715714D01*
X129198571Y-80763333D01*
X129150952Y-80858571D01*
%TO.C,C8*%
X121043333Y-80257142D02*
X120995714Y-80304761D01*
X120852857Y-80352380D01*
X120757619Y-80352380D01*
X120614761Y-80304761D01*
X120519523Y-80209523D01*
X120471904Y-80114285D01*
X120424285Y-79923809D01*
X120424285Y-79780952D01*
X120471904Y-79590476D01*
X120519523Y-79495238D01*
X120614761Y-79400000D01*
X120757619Y-79352380D01*
X120852857Y-79352380D01*
X120995714Y-79400000D01*
X121043333Y-79447619D01*
X121614761Y-79780952D02*
X121519523Y-79733333D01*
X121471904Y-79685714D01*
X121424285Y-79590476D01*
X121424285Y-79542857D01*
X121471904Y-79447619D01*
X121519523Y-79400000D01*
X121614761Y-79352380D01*
X121805238Y-79352380D01*
X121900476Y-79400000D01*
X121948095Y-79447619D01*
X121995714Y-79542857D01*
X121995714Y-79590476D01*
X121948095Y-79685714D01*
X121900476Y-79733333D01*
X121805238Y-79780952D01*
X121614761Y-79780952D01*
X121519523Y-79828571D01*
X121471904Y-79876190D01*
X121424285Y-79971428D01*
X121424285Y-80161904D01*
X121471904Y-80257142D01*
X121519523Y-80304761D01*
X121614761Y-80352380D01*
X121805238Y-80352380D01*
X121900476Y-80304761D01*
X121948095Y-80257142D01*
X121995714Y-80161904D01*
X121995714Y-79971428D01*
X121948095Y-79876190D01*
X121900476Y-79828571D01*
X121805238Y-79780952D01*
%TO.C,C27*%
X140627142Y-78477142D02*
X140579523Y-78524761D01*
X140436666Y-78572380D01*
X140341428Y-78572380D01*
X140198571Y-78524761D01*
X140103333Y-78429523D01*
X140055714Y-78334285D01*
X140008095Y-78143809D01*
X140008095Y-78000952D01*
X140055714Y-77810476D01*
X140103333Y-77715238D01*
X140198571Y-77620000D01*
X140341428Y-77572380D01*
X140436666Y-77572380D01*
X140579523Y-77620000D01*
X140627142Y-77667619D01*
X141008095Y-77667619D02*
X141055714Y-77620000D01*
X141150952Y-77572380D01*
X141389047Y-77572380D01*
X141484285Y-77620000D01*
X141531904Y-77667619D01*
X141579523Y-77762857D01*
X141579523Y-77858095D01*
X141531904Y-78000952D01*
X140960476Y-78572380D01*
X141579523Y-78572380D01*
X141912857Y-77572380D02*
X142579523Y-77572380D01*
X142150952Y-78572380D01*
%TO.C,C14*%
X155087142Y-94557142D02*
X155039523Y-94604761D01*
X154896666Y-94652380D01*
X154801428Y-94652380D01*
X154658571Y-94604761D01*
X154563333Y-94509523D01*
X154515714Y-94414285D01*
X154468095Y-94223809D01*
X154468095Y-94080952D01*
X154515714Y-93890476D01*
X154563333Y-93795238D01*
X154658571Y-93700000D01*
X154801428Y-93652380D01*
X154896666Y-93652380D01*
X155039523Y-93700000D01*
X155087142Y-93747619D01*
X156039523Y-94652380D02*
X155468095Y-94652380D01*
X155753809Y-94652380D02*
X155753809Y-93652380D01*
X155658571Y-93795238D01*
X155563333Y-93890476D01*
X155468095Y-93938095D01*
X156896666Y-93985714D02*
X156896666Y-94652380D01*
X156658571Y-93604761D02*
X156420476Y-94319047D01*
X157039523Y-94319047D01*
%TO.C,C54*%
X125937142Y-100747142D02*
X125889523Y-100794761D01*
X125746666Y-100842380D01*
X125651428Y-100842380D01*
X125508571Y-100794761D01*
X125413333Y-100699523D01*
X125365714Y-100604285D01*
X125318095Y-100413809D01*
X125318095Y-100270952D01*
X125365714Y-100080476D01*
X125413333Y-99985238D01*
X125508571Y-99890000D01*
X125651428Y-99842380D01*
X125746666Y-99842380D01*
X125889523Y-99890000D01*
X125937142Y-99937619D01*
X126841904Y-99842380D02*
X126365714Y-99842380D01*
X126318095Y-100318571D01*
X126365714Y-100270952D01*
X126460952Y-100223333D01*
X126699047Y-100223333D01*
X126794285Y-100270952D01*
X126841904Y-100318571D01*
X126889523Y-100413809D01*
X126889523Y-100651904D01*
X126841904Y-100747142D01*
X126794285Y-100794761D01*
X126699047Y-100842380D01*
X126460952Y-100842380D01*
X126365714Y-100794761D01*
X126318095Y-100747142D01*
X127746666Y-100175714D02*
X127746666Y-100842380D01*
X127508571Y-99794761D02*
X127270476Y-100509047D01*
X127889523Y-100509047D01*
%TO.C,C19*%
X144457142Y-78532857D02*
X144504761Y-78580476D01*
X144552380Y-78723333D01*
X144552380Y-78818571D01*
X144504761Y-78961428D01*
X144409523Y-79056666D01*
X144314285Y-79104285D01*
X144123809Y-79151904D01*
X143980952Y-79151904D01*
X143790476Y-79104285D01*
X143695238Y-79056666D01*
X143600000Y-78961428D01*
X143552380Y-78818571D01*
X143552380Y-78723333D01*
X143600000Y-78580476D01*
X143647619Y-78532857D01*
X144552380Y-77580476D02*
X144552380Y-78151904D01*
X144552380Y-77866190D02*
X143552380Y-77866190D01*
X143695238Y-77961428D01*
X143790476Y-78056666D01*
X143838095Y-78151904D01*
X144552380Y-77104285D02*
X144552380Y-76913809D01*
X144504761Y-76818571D01*
X144457142Y-76770952D01*
X144314285Y-76675714D01*
X144123809Y-76628095D01*
X143742857Y-76628095D01*
X143647619Y-76675714D01*
X143600000Y-76723333D01*
X143552380Y-76818571D01*
X143552380Y-77009047D01*
X143600000Y-77104285D01*
X143647619Y-77151904D01*
X143742857Y-77199523D01*
X143980952Y-77199523D01*
X144076190Y-77151904D01*
X144123809Y-77104285D01*
X144171428Y-77009047D01*
X144171428Y-76818571D01*
X144123809Y-76723333D01*
X144076190Y-76675714D01*
X143980952Y-76628095D01*
%TO.C,R59*%
X125922380Y-79762857D02*
X125446190Y-80096190D01*
X125922380Y-80334285D02*
X124922380Y-80334285D01*
X124922380Y-79953333D01*
X124970000Y-79858095D01*
X125017619Y-79810476D01*
X125112857Y-79762857D01*
X125255714Y-79762857D01*
X125350952Y-79810476D01*
X125398571Y-79858095D01*
X125446190Y-79953333D01*
X125446190Y-80334285D01*
X124922380Y-78858095D02*
X124922380Y-79334285D01*
X125398571Y-79381904D01*
X125350952Y-79334285D01*
X125303333Y-79239047D01*
X125303333Y-79000952D01*
X125350952Y-78905714D01*
X125398571Y-78858095D01*
X125493809Y-78810476D01*
X125731904Y-78810476D01*
X125827142Y-78858095D01*
X125874761Y-78905714D01*
X125922380Y-79000952D01*
X125922380Y-79239047D01*
X125874761Y-79334285D01*
X125827142Y-79381904D01*
X125922380Y-78334285D02*
X125922380Y-78143809D01*
X125874761Y-78048571D01*
X125827142Y-78000952D01*
X125684285Y-77905714D01*
X125493809Y-77858095D01*
X125112857Y-77858095D01*
X125017619Y-77905714D01*
X124970000Y-77953333D01*
X124922380Y-78048571D01*
X124922380Y-78239047D01*
X124970000Y-78334285D01*
X125017619Y-78381904D01*
X125112857Y-78429523D01*
X125350952Y-78429523D01*
X125446190Y-78381904D01*
X125493809Y-78334285D01*
X125541428Y-78239047D01*
X125541428Y-78048571D01*
X125493809Y-77953333D01*
X125446190Y-77905714D01*
X125350952Y-77858095D01*
%TO.C,C20*%
X138017142Y-84782857D02*
X138064761Y-84830476D01*
X138112380Y-84973333D01*
X138112380Y-85068571D01*
X138064761Y-85211428D01*
X137969523Y-85306666D01*
X137874285Y-85354285D01*
X137683809Y-85401904D01*
X137540952Y-85401904D01*
X137350476Y-85354285D01*
X137255238Y-85306666D01*
X137160000Y-85211428D01*
X137112380Y-85068571D01*
X137112380Y-84973333D01*
X137160000Y-84830476D01*
X137207619Y-84782857D01*
X137207619Y-84401904D02*
X137160000Y-84354285D01*
X137112380Y-84259047D01*
X137112380Y-84020952D01*
X137160000Y-83925714D01*
X137207619Y-83878095D01*
X137302857Y-83830476D01*
X137398095Y-83830476D01*
X137540952Y-83878095D01*
X138112380Y-84449523D01*
X138112380Y-83830476D01*
X137112380Y-83211428D02*
X137112380Y-83116190D01*
X137160000Y-83020952D01*
X137207619Y-82973333D01*
X137302857Y-82925714D01*
X137493333Y-82878095D01*
X137731428Y-82878095D01*
X137921904Y-82925714D01*
X138017142Y-82973333D01*
X138064761Y-83020952D01*
X138112380Y-83116190D01*
X138112380Y-83211428D01*
X138064761Y-83306666D01*
X138017142Y-83354285D01*
X137921904Y-83401904D01*
X137731428Y-83449523D01*
X137493333Y-83449523D01*
X137302857Y-83401904D01*
X137207619Y-83354285D01*
X137160000Y-83306666D01*
X137112380Y-83211428D01*
%TO.C,R57*%
X168192380Y-92472857D02*
X167716190Y-92806190D01*
X168192380Y-93044285D02*
X167192380Y-93044285D01*
X167192380Y-92663333D01*
X167240000Y-92568095D01*
X167287619Y-92520476D01*
X167382857Y-92472857D01*
X167525714Y-92472857D01*
X167620952Y-92520476D01*
X167668571Y-92568095D01*
X167716190Y-92663333D01*
X167716190Y-93044285D01*
X167192380Y-91568095D02*
X167192380Y-92044285D01*
X167668571Y-92091904D01*
X167620952Y-92044285D01*
X167573333Y-91949047D01*
X167573333Y-91710952D01*
X167620952Y-91615714D01*
X167668571Y-91568095D01*
X167763809Y-91520476D01*
X168001904Y-91520476D01*
X168097142Y-91568095D01*
X168144761Y-91615714D01*
X168192380Y-91710952D01*
X168192380Y-91949047D01*
X168144761Y-92044285D01*
X168097142Y-92091904D01*
X167192380Y-91187142D02*
X167192380Y-90520476D01*
X168192380Y-90949047D01*
%TO.C,C50*%
X120197142Y-96197142D02*
X120149523Y-96244761D01*
X120006666Y-96292380D01*
X119911428Y-96292380D01*
X119768571Y-96244761D01*
X119673333Y-96149523D01*
X119625714Y-96054285D01*
X119578095Y-95863809D01*
X119578095Y-95720952D01*
X119625714Y-95530476D01*
X119673333Y-95435238D01*
X119768571Y-95340000D01*
X119911428Y-95292380D01*
X120006666Y-95292380D01*
X120149523Y-95340000D01*
X120197142Y-95387619D01*
X121101904Y-95292380D02*
X120625714Y-95292380D01*
X120578095Y-95768571D01*
X120625714Y-95720952D01*
X120720952Y-95673333D01*
X120959047Y-95673333D01*
X121054285Y-95720952D01*
X121101904Y-95768571D01*
X121149523Y-95863809D01*
X121149523Y-96101904D01*
X121101904Y-96197142D01*
X121054285Y-96244761D01*
X120959047Y-96292380D01*
X120720952Y-96292380D01*
X120625714Y-96244761D01*
X120578095Y-96197142D01*
X121768571Y-95292380D02*
X121863809Y-95292380D01*
X121959047Y-95340000D01*
X122006666Y-95387619D01*
X122054285Y-95482857D01*
X122101904Y-95673333D01*
X122101904Y-95911428D01*
X122054285Y-96101904D01*
X122006666Y-96197142D01*
X121959047Y-96244761D01*
X121863809Y-96292380D01*
X121768571Y-96292380D01*
X121673333Y-96244761D01*
X121625714Y-96197142D01*
X121578095Y-96101904D01*
X121530476Y-95911428D01*
X121530476Y-95673333D01*
X121578095Y-95482857D01*
X121625714Y-95387619D01*
X121673333Y-95340000D01*
X121768571Y-95292380D01*
%TO.C,Q2*%
X112504761Y-88007619D02*
X112409523Y-87960000D01*
X112314285Y-87864761D01*
X112171428Y-87721904D01*
X112076190Y-87674285D01*
X111980952Y-87674285D01*
X112028571Y-87912380D02*
X111933333Y-87864761D01*
X111838095Y-87769523D01*
X111790476Y-87579047D01*
X111790476Y-87245714D01*
X111838095Y-87055238D01*
X111933333Y-86960000D01*
X112028571Y-86912380D01*
X112219047Y-86912380D01*
X112314285Y-86960000D01*
X112409523Y-87055238D01*
X112457142Y-87245714D01*
X112457142Y-87579047D01*
X112409523Y-87769523D01*
X112314285Y-87864761D01*
X112219047Y-87912380D01*
X112028571Y-87912380D01*
X112838095Y-87007619D02*
X112885714Y-86960000D01*
X112980952Y-86912380D01*
X113219047Y-86912380D01*
X113314285Y-86960000D01*
X113361904Y-87007619D01*
X113409523Y-87102857D01*
X113409523Y-87198095D01*
X113361904Y-87340952D01*
X112790476Y-87912380D01*
X113409523Y-87912380D01*
%TO.C,U5*%
X151540495Y-78879180D02*
X151540495Y-79688704D01*
X151588114Y-79783942D01*
X151635733Y-79831561D01*
X151730971Y-79879180D01*
X151921447Y-79879180D01*
X152016685Y-79831561D01*
X152064304Y-79783942D01*
X152111923Y-79688704D01*
X152111923Y-78879180D01*
X153064304Y-78879180D02*
X152588114Y-78879180D01*
X152540495Y-79355371D01*
X152588114Y-79307752D01*
X152683352Y-79260133D01*
X152921447Y-79260133D01*
X153016685Y-79307752D01*
X153064304Y-79355371D01*
X153111923Y-79450609D01*
X153111923Y-79688704D01*
X153064304Y-79783942D01*
X153016685Y-79831561D01*
X152921447Y-79879180D01*
X152683352Y-79879180D01*
X152588114Y-79831561D01*
X152540495Y-79783942D01*
%TO.C,D6*%
X133332380Y-82408095D02*
X132332380Y-82408095D01*
X132332380Y-82170000D01*
X132380000Y-82027142D01*
X132475238Y-81931904D01*
X132570476Y-81884285D01*
X132760952Y-81836666D01*
X132903809Y-81836666D01*
X133094285Y-81884285D01*
X133189523Y-81931904D01*
X133284761Y-82027142D01*
X133332380Y-82170000D01*
X133332380Y-82408095D01*
X132332380Y-80979523D02*
X132332380Y-81170000D01*
X132380000Y-81265238D01*
X132427619Y-81312857D01*
X132570476Y-81408095D01*
X132760952Y-81455714D01*
X133141904Y-81455714D01*
X133237142Y-81408095D01*
X133284761Y-81360476D01*
X133332380Y-81265238D01*
X133332380Y-81074761D01*
X133284761Y-80979523D01*
X133237142Y-80931904D01*
X133141904Y-80884285D01*
X132903809Y-80884285D01*
X132808571Y-80931904D01*
X132760952Y-80979523D01*
X132713333Y-81074761D01*
X132713333Y-81265238D01*
X132760952Y-81360476D01*
X132808571Y-81408095D01*
X132903809Y-81455714D01*
%TO.C,C49*%
X120257142Y-101817142D02*
X120209523Y-101864761D01*
X120066666Y-101912380D01*
X119971428Y-101912380D01*
X119828571Y-101864761D01*
X119733333Y-101769523D01*
X119685714Y-101674285D01*
X119638095Y-101483809D01*
X119638095Y-101340952D01*
X119685714Y-101150476D01*
X119733333Y-101055238D01*
X119828571Y-100960000D01*
X119971428Y-100912380D01*
X120066666Y-100912380D01*
X120209523Y-100960000D01*
X120257142Y-101007619D01*
X121114285Y-101245714D02*
X121114285Y-101912380D01*
X120876190Y-100864761D02*
X120638095Y-101579047D01*
X121257142Y-101579047D01*
X121685714Y-101912380D02*
X121876190Y-101912380D01*
X121971428Y-101864761D01*
X122019047Y-101817142D01*
X122114285Y-101674285D01*
X122161904Y-101483809D01*
X122161904Y-101102857D01*
X122114285Y-101007619D01*
X122066666Y-100960000D01*
X121971428Y-100912380D01*
X121780952Y-100912380D01*
X121685714Y-100960000D01*
X121638095Y-101007619D01*
X121590476Y-101102857D01*
X121590476Y-101340952D01*
X121638095Y-101436190D01*
X121685714Y-101483809D01*
X121780952Y-101531428D01*
X121971428Y-101531428D01*
X122066666Y-101483809D01*
X122114285Y-101436190D01*
X122161904Y-101340952D01*
%TO.C,R65*%
X137512380Y-77632857D02*
X137036190Y-77966190D01*
X137512380Y-78204285D02*
X136512380Y-78204285D01*
X136512380Y-77823333D01*
X136560000Y-77728095D01*
X136607619Y-77680476D01*
X136702857Y-77632857D01*
X136845714Y-77632857D01*
X136940952Y-77680476D01*
X136988571Y-77728095D01*
X137036190Y-77823333D01*
X137036190Y-78204285D01*
X136512380Y-76775714D02*
X136512380Y-76966190D01*
X136560000Y-77061428D01*
X136607619Y-77109047D01*
X136750476Y-77204285D01*
X136940952Y-77251904D01*
X137321904Y-77251904D01*
X137417142Y-77204285D01*
X137464761Y-77156666D01*
X137512380Y-77061428D01*
X137512380Y-76870952D01*
X137464761Y-76775714D01*
X137417142Y-76728095D01*
X137321904Y-76680476D01*
X137083809Y-76680476D01*
X136988571Y-76728095D01*
X136940952Y-76775714D01*
X136893333Y-76870952D01*
X136893333Y-77061428D01*
X136940952Y-77156666D01*
X136988571Y-77204285D01*
X137083809Y-77251904D01*
X136512380Y-75775714D02*
X136512380Y-76251904D01*
X136988571Y-76299523D01*
X136940952Y-76251904D01*
X136893333Y-76156666D01*
X136893333Y-75918571D01*
X136940952Y-75823333D01*
X136988571Y-75775714D01*
X137083809Y-75728095D01*
X137321904Y-75728095D01*
X137417142Y-75775714D01*
X137464761Y-75823333D01*
X137512380Y-75918571D01*
X137512380Y-76156666D01*
X137464761Y-76251904D01*
X137417142Y-76299523D01*
%TO.C,C11*%
X141377142Y-76732857D02*
X141424761Y-76780476D01*
X141472380Y-76923333D01*
X141472380Y-77018571D01*
X141424761Y-77161428D01*
X141329523Y-77256666D01*
X141234285Y-77304285D01*
X141043809Y-77351904D01*
X140900952Y-77351904D01*
X140710476Y-77304285D01*
X140615238Y-77256666D01*
X140520000Y-77161428D01*
X140472380Y-77018571D01*
X140472380Y-76923333D01*
X140520000Y-76780476D01*
X140567619Y-76732857D01*
X141472380Y-75780476D02*
X141472380Y-76351904D01*
X141472380Y-76066190D02*
X140472380Y-76066190D01*
X140615238Y-76161428D01*
X140710476Y-76256666D01*
X140758095Y-76351904D01*
X141472380Y-74828095D02*
X141472380Y-75399523D01*
X141472380Y-75113809D02*
X140472380Y-75113809D01*
X140615238Y-75209047D01*
X140710476Y-75304285D01*
X140758095Y-75399523D01*
%TO.C,H2*%
X114788095Y-71352380D02*
X114788095Y-70352380D01*
X114788095Y-70828571D02*
X115359523Y-70828571D01*
X115359523Y-71352380D02*
X115359523Y-70352380D01*
X115788095Y-70447619D02*
X115835714Y-70400000D01*
X115930952Y-70352380D01*
X116169047Y-70352380D01*
X116264285Y-70400000D01*
X116311904Y-70447619D01*
X116359523Y-70542857D01*
X116359523Y-70638095D01*
X116311904Y-70780952D01*
X115740476Y-71352380D01*
X116359523Y-71352380D01*
%TO.C,C3*%
X141403333Y-97037142D02*
X141355714Y-97084761D01*
X141212857Y-97132380D01*
X141117619Y-97132380D01*
X140974761Y-97084761D01*
X140879523Y-96989523D01*
X140831904Y-96894285D01*
X140784285Y-96703809D01*
X140784285Y-96560952D01*
X140831904Y-96370476D01*
X140879523Y-96275238D01*
X140974761Y-96180000D01*
X141117619Y-96132380D01*
X141212857Y-96132380D01*
X141355714Y-96180000D01*
X141403333Y-96227619D01*
X141736666Y-96132380D02*
X142355714Y-96132380D01*
X142022380Y-96513333D01*
X142165238Y-96513333D01*
X142260476Y-96560952D01*
X142308095Y-96608571D01*
X142355714Y-96703809D01*
X142355714Y-96941904D01*
X142308095Y-97037142D01*
X142260476Y-97084761D01*
X142165238Y-97132380D01*
X141879523Y-97132380D01*
X141784285Y-97084761D01*
X141736666Y-97037142D01*
%TO.C,C53*%
X119307142Y-99352857D02*
X119354761Y-99400476D01*
X119402380Y-99543333D01*
X119402380Y-99638571D01*
X119354761Y-99781428D01*
X119259523Y-99876666D01*
X119164285Y-99924285D01*
X118973809Y-99971904D01*
X118830952Y-99971904D01*
X118640476Y-99924285D01*
X118545238Y-99876666D01*
X118450000Y-99781428D01*
X118402380Y-99638571D01*
X118402380Y-99543333D01*
X118450000Y-99400476D01*
X118497619Y-99352857D01*
X118402380Y-98448095D02*
X118402380Y-98924285D01*
X118878571Y-98971904D01*
X118830952Y-98924285D01*
X118783333Y-98829047D01*
X118783333Y-98590952D01*
X118830952Y-98495714D01*
X118878571Y-98448095D01*
X118973809Y-98400476D01*
X119211904Y-98400476D01*
X119307142Y-98448095D01*
X119354761Y-98495714D01*
X119402380Y-98590952D01*
X119402380Y-98829047D01*
X119354761Y-98924285D01*
X119307142Y-98971904D01*
X118402380Y-98067142D02*
X118402380Y-97448095D01*
X118783333Y-97781428D01*
X118783333Y-97638571D01*
X118830952Y-97543333D01*
X118878571Y-97495714D01*
X118973809Y-97448095D01*
X119211904Y-97448095D01*
X119307142Y-97495714D01*
X119354761Y-97543333D01*
X119402380Y-97638571D01*
X119402380Y-97924285D01*
X119354761Y-98019523D01*
X119307142Y-98067142D01*
%TO.C,J1*%
X97496380Y-79073333D02*
X98210666Y-79073333D01*
X98353523Y-79120952D01*
X98448761Y-79216190D01*
X98496380Y-79359047D01*
X98496380Y-79454285D01*
X98496380Y-78073333D02*
X98496380Y-78644761D01*
X98496380Y-78359047D02*
X97496380Y-78359047D01*
X97639238Y-78454285D01*
X97734476Y-78549523D01*
X97782095Y-78644761D01*
X109922142Y-84811428D02*
X109922142Y-83668571D01*
X110493571Y-84240000D02*
X109350714Y-84240000D01*
X109922142Y-73811428D02*
X109922142Y-72668571D01*
D16*
%TO.C,D3*%
X135851152Y-87627590D02*
X135851152Y-87127590D01*
X135970200Y-87127590D01*
X136041628Y-87151400D01*
X136089247Y-87199019D01*
X136113057Y-87246638D01*
X136136866Y-87341876D01*
X136136866Y-87413304D01*
X136113057Y-87508542D01*
X136089247Y-87556161D01*
X136041628Y-87603780D01*
X135970200Y-87627590D01*
X135851152Y-87627590D01*
X136303533Y-87127590D02*
X136613057Y-87127590D01*
X136446390Y-87318066D01*
X136517819Y-87318066D01*
X136565438Y-87341876D01*
X136589247Y-87365685D01*
X136613057Y-87413304D01*
X136613057Y-87532352D01*
X136589247Y-87579971D01*
X136565438Y-87603780D01*
X136517819Y-87627590D01*
X136374961Y-87627590D01*
X136327342Y-87603780D01*
X136303533Y-87579971D01*
D13*
%TO.C,R58*%
X169602380Y-92472857D02*
X169126190Y-92806190D01*
X169602380Y-93044285D02*
X168602380Y-93044285D01*
X168602380Y-92663333D01*
X168650000Y-92568095D01*
X168697619Y-92520476D01*
X168792857Y-92472857D01*
X168935714Y-92472857D01*
X169030952Y-92520476D01*
X169078571Y-92568095D01*
X169126190Y-92663333D01*
X169126190Y-93044285D01*
X168602380Y-91568095D02*
X168602380Y-92044285D01*
X169078571Y-92091904D01*
X169030952Y-92044285D01*
X168983333Y-91949047D01*
X168983333Y-91710952D01*
X169030952Y-91615714D01*
X169078571Y-91568095D01*
X169173809Y-91520476D01*
X169411904Y-91520476D01*
X169507142Y-91568095D01*
X169554761Y-91615714D01*
X169602380Y-91710952D01*
X169602380Y-91949047D01*
X169554761Y-92044285D01*
X169507142Y-92091904D01*
X169030952Y-90949047D02*
X168983333Y-91044285D01*
X168935714Y-91091904D01*
X168840476Y-91139523D01*
X168792857Y-91139523D01*
X168697619Y-91091904D01*
X168650000Y-91044285D01*
X168602380Y-90949047D01*
X168602380Y-90758571D01*
X168650000Y-90663333D01*
X168697619Y-90615714D01*
X168792857Y-90568095D01*
X168840476Y-90568095D01*
X168935714Y-90615714D01*
X168983333Y-90663333D01*
X169030952Y-90758571D01*
X169030952Y-90949047D01*
X169078571Y-91044285D01*
X169126190Y-91091904D01*
X169221428Y-91139523D01*
X169411904Y-91139523D01*
X169507142Y-91091904D01*
X169554761Y-91044285D01*
X169602380Y-90949047D01*
X169602380Y-90758571D01*
X169554761Y-90663333D01*
X169507142Y-90615714D01*
X169411904Y-90568095D01*
X169221428Y-90568095D01*
X169126190Y-90615714D01*
X169078571Y-90663333D01*
X169030952Y-90758571D01*
%TO.C,C7*%
X121757142Y-85256666D02*
X121804761Y-85304285D01*
X121852380Y-85447142D01*
X121852380Y-85542380D01*
X121804761Y-85685238D01*
X121709523Y-85780476D01*
X121614285Y-85828095D01*
X121423809Y-85875714D01*
X121280952Y-85875714D01*
X121090476Y-85828095D01*
X120995238Y-85780476D01*
X120900000Y-85685238D01*
X120852380Y-85542380D01*
X120852380Y-85447142D01*
X120900000Y-85304285D01*
X120947619Y-85256666D01*
X120852380Y-84923333D02*
X120852380Y-84256666D01*
X121852380Y-84685238D01*
D16*
%TO.C,FB3*%
X175723333Y-75334285D02*
X175556666Y-75334285D01*
X175556666Y-75596190D02*
X175556666Y-75096190D01*
X175794761Y-75096190D01*
X176151904Y-75334285D02*
X176223333Y-75358095D01*
X176247142Y-75381904D01*
X176270952Y-75429523D01*
X176270952Y-75500952D01*
X176247142Y-75548571D01*
X176223333Y-75572380D01*
X176175714Y-75596190D01*
X175985238Y-75596190D01*
X175985238Y-75096190D01*
X176151904Y-75096190D01*
X176199523Y-75120000D01*
X176223333Y-75143809D01*
X176247142Y-75191428D01*
X176247142Y-75239047D01*
X176223333Y-75286666D01*
X176199523Y-75310476D01*
X176151904Y-75334285D01*
X175985238Y-75334285D01*
X176437619Y-75096190D02*
X176747142Y-75096190D01*
X176580476Y-75286666D01*
X176651904Y-75286666D01*
X176699523Y-75310476D01*
X176723333Y-75334285D01*
X176747142Y-75381904D01*
X176747142Y-75500952D01*
X176723333Y-75548571D01*
X176699523Y-75572380D01*
X176651904Y-75596190D01*
X176509047Y-75596190D01*
X176461428Y-75572380D01*
X176437619Y-75548571D01*
D13*
%TO.C,R20*%
X125196142Y-88944380D02*
X124862809Y-88468190D01*
X124624714Y-88944380D02*
X124624714Y-87944380D01*
X125005666Y-87944380D01*
X125100904Y-87992000D01*
X125148523Y-88039619D01*
X125196142Y-88134857D01*
X125196142Y-88277714D01*
X125148523Y-88372952D01*
X125100904Y-88420571D01*
X125005666Y-88468190D01*
X124624714Y-88468190D01*
X125577095Y-88039619D02*
X125624714Y-87992000D01*
X125719952Y-87944380D01*
X125958047Y-87944380D01*
X126053285Y-87992000D01*
X126100904Y-88039619D01*
X126148523Y-88134857D01*
X126148523Y-88230095D01*
X126100904Y-88372952D01*
X125529476Y-88944380D01*
X126148523Y-88944380D01*
X126767571Y-87944380D02*
X126862809Y-87944380D01*
X126958047Y-87992000D01*
X127005666Y-88039619D01*
X127053285Y-88134857D01*
X127100904Y-88325333D01*
X127100904Y-88563428D01*
X127053285Y-88753904D01*
X127005666Y-88849142D01*
X126958047Y-88896761D01*
X126862809Y-88944380D01*
X126767571Y-88944380D01*
X126672333Y-88896761D01*
X126624714Y-88849142D01*
X126577095Y-88753904D01*
X126529476Y-88563428D01*
X126529476Y-88325333D01*
X126577095Y-88134857D01*
X126624714Y-88039619D01*
X126672333Y-87992000D01*
X126767571Y-87944380D01*
%TO.C,J6*%
X160469066Y-77871680D02*
X160469066Y-78585966D01*
X160421447Y-78728823D01*
X160326209Y-78824061D01*
X160183352Y-78871680D01*
X160088114Y-78871680D01*
X161373828Y-77871680D02*
X161183352Y-77871680D01*
X161088114Y-77919300D01*
X161040495Y-77966919D01*
X160945257Y-78109776D01*
X160897638Y-78300252D01*
X160897638Y-78681204D01*
X160945257Y-78776442D01*
X160992876Y-78824061D01*
X161088114Y-78871680D01*
X161278590Y-78871680D01*
X161373828Y-78824061D01*
X161421447Y-78776442D01*
X161469066Y-78681204D01*
X161469066Y-78443109D01*
X161421447Y-78347871D01*
X161373828Y-78300252D01*
X161278590Y-78252633D01*
X161088114Y-78252633D01*
X160992876Y-78300252D01*
X160945257Y-78347871D01*
X160897638Y-78443109D01*
%TO.C,C26*%
X140267142Y-83712857D02*
X140314761Y-83760476D01*
X140362380Y-83903333D01*
X140362380Y-83998571D01*
X140314761Y-84141428D01*
X140219523Y-84236666D01*
X140124285Y-84284285D01*
X139933809Y-84331904D01*
X139790952Y-84331904D01*
X139600476Y-84284285D01*
X139505238Y-84236666D01*
X139410000Y-84141428D01*
X139362380Y-83998571D01*
X139362380Y-83903333D01*
X139410000Y-83760476D01*
X139457619Y-83712857D01*
X139457619Y-83331904D02*
X139410000Y-83284285D01*
X139362380Y-83189047D01*
X139362380Y-82950952D01*
X139410000Y-82855714D01*
X139457619Y-82808095D01*
X139552857Y-82760476D01*
X139648095Y-82760476D01*
X139790952Y-82808095D01*
X140362380Y-83379523D01*
X140362380Y-82760476D01*
X139362380Y-81903333D02*
X139362380Y-82093809D01*
X139410000Y-82189047D01*
X139457619Y-82236666D01*
X139600476Y-82331904D01*
X139790952Y-82379523D01*
X140171904Y-82379523D01*
X140267142Y-82331904D01*
X140314761Y-82284285D01*
X140362380Y-82189047D01*
X140362380Y-81998571D01*
X140314761Y-81903333D01*
X140267142Y-81855714D01*
X140171904Y-81808095D01*
X139933809Y-81808095D01*
X139838571Y-81855714D01*
X139790952Y-81903333D01*
X139743333Y-81998571D01*
X139743333Y-82189047D01*
X139790952Y-82284285D01*
X139838571Y-82331904D01*
X139933809Y-82379523D01*
%TO.C,Q10*%
X111028571Y-99907619D02*
X110933333Y-99860000D01*
X110838095Y-99764761D01*
X110695238Y-99621904D01*
X110600000Y-99574285D01*
X110504761Y-99574285D01*
X110552380Y-99812380D02*
X110457142Y-99764761D01*
X110361904Y-99669523D01*
X110314285Y-99479047D01*
X110314285Y-99145714D01*
X110361904Y-98955238D01*
X110457142Y-98860000D01*
X110552380Y-98812380D01*
X110742857Y-98812380D01*
X110838095Y-98860000D01*
X110933333Y-98955238D01*
X110980952Y-99145714D01*
X110980952Y-99479047D01*
X110933333Y-99669523D01*
X110838095Y-99764761D01*
X110742857Y-99812380D01*
X110552380Y-99812380D01*
X111933333Y-99812380D02*
X111361904Y-99812380D01*
X111647619Y-99812380D02*
X111647619Y-98812380D01*
X111552380Y-98955238D01*
X111457142Y-99050476D01*
X111361904Y-99098095D01*
X112552380Y-98812380D02*
X112647619Y-98812380D01*
X112742857Y-98860000D01*
X112790476Y-98907619D01*
X112838095Y-99002857D01*
X112885714Y-99193333D01*
X112885714Y-99431428D01*
X112838095Y-99621904D01*
X112790476Y-99717142D01*
X112742857Y-99764761D01*
X112647619Y-99812380D01*
X112552380Y-99812380D01*
X112457142Y-99764761D01*
X112409523Y-99717142D01*
X112361904Y-99621904D01*
X112314285Y-99431428D01*
X112314285Y-99193333D01*
X112361904Y-99002857D01*
X112409523Y-98907619D01*
X112457142Y-98860000D01*
X112552380Y-98812380D01*
%TO.C,Y2*%
X143366190Y-86966190D02*
X143842380Y-86966190D01*
X142842380Y-87299523D02*
X143366190Y-86966190D01*
X142842380Y-86632857D01*
X142937619Y-86347142D02*
X142890000Y-86299523D01*
X142842380Y-86204285D01*
X142842380Y-85966190D01*
X142890000Y-85870952D01*
X142937619Y-85823333D01*
X143032857Y-85775714D01*
X143128095Y-85775714D01*
X143270952Y-85823333D01*
X143842380Y-86394761D01*
X143842380Y-85775714D01*
%TO.C,C22*%
X138617142Y-89877142D02*
X138569523Y-89924761D01*
X138426666Y-89972380D01*
X138331428Y-89972380D01*
X138188571Y-89924761D01*
X138093333Y-89829523D01*
X138045714Y-89734285D01*
X137998095Y-89543809D01*
X137998095Y-89400952D01*
X138045714Y-89210476D01*
X138093333Y-89115238D01*
X138188571Y-89020000D01*
X138331428Y-88972380D01*
X138426666Y-88972380D01*
X138569523Y-89020000D01*
X138617142Y-89067619D01*
X138998095Y-89067619D02*
X139045714Y-89020000D01*
X139140952Y-88972380D01*
X139379047Y-88972380D01*
X139474285Y-89020000D01*
X139521904Y-89067619D01*
X139569523Y-89162857D01*
X139569523Y-89258095D01*
X139521904Y-89400952D01*
X138950476Y-89972380D01*
X139569523Y-89972380D01*
X139950476Y-89067619D02*
X139998095Y-89020000D01*
X140093333Y-88972380D01*
X140331428Y-88972380D01*
X140426666Y-89020000D01*
X140474285Y-89067619D01*
X140521904Y-89162857D01*
X140521904Y-89258095D01*
X140474285Y-89400952D01*
X139902857Y-89972380D01*
X140521904Y-89972380D01*
%TO.C,R51*%
X111879142Y-94780380D02*
X111545809Y-94304190D01*
X111307714Y-94780380D02*
X111307714Y-93780380D01*
X111688666Y-93780380D01*
X111783904Y-93828000D01*
X111831523Y-93875619D01*
X111879142Y-93970857D01*
X111879142Y-94113714D01*
X111831523Y-94208952D01*
X111783904Y-94256571D01*
X111688666Y-94304190D01*
X111307714Y-94304190D01*
X112783904Y-93780380D02*
X112307714Y-93780380D01*
X112260095Y-94256571D01*
X112307714Y-94208952D01*
X112402952Y-94161333D01*
X112641047Y-94161333D01*
X112736285Y-94208952D01*
X112783904Y-94256571D01*
X112831523Y-94351809D01*
X112831523Y-94589904D01*
X112783904Y-94685142D01*
X112736285Y-94732761D01*
X112641047Y-94780380D01*
X112402952Y-94780380D01*
X112307714Y-94732761D01*
X112260095Y-94685142D01*
X113783904Y-94780380D02*
X113212476Y-94780380D01*
X113498190Y-94780380D02*
X113498190Y-93780380D01*
X113402952Y-93923238D01*
X113307714Y-94018476D01*
X113212476Y-94066095D01*
%TO.C,AE1*%
X121473333Y-72316666D02*
X121949523Y-72316666D01*
X121378095Y-72602380D02*
X121711428Y-71602380D01*
X122044761Y-72602380D01*
X122378095Y-72078571D02*
X122711428Y-72078571D01*
X122854285Y-72602380D02*
X122378095Y-72602380D01*
X122378095Y-71602380D01*
X122854285Y-71602380D01*
X123806666Y-72602380D02*
X123235238Y-72602380D01*
X123520952Y-72602380D02*
X123520952Y-71602380D01*
X123425714Y-71745238D01*
X123330476Y-71840476D01*
X123235238Y-71888095D01*
%TO.C,R25*%
X164702380Y-81752857D02*
X164226190Y-82086190D01*
X164702380Y-82324285D02*
X163702380Y-82324285D01*
X163702380Y-81943333D01*
X163750000Y-81848095D01*
X163797619Y-81800476D01*
X163892857Y-81752857D01*
X164035714Y-81752857D01*
X164130952Y-81800476D01*
X164178571Y-81848095D01*
X164226190Y-81943333D01*
X164226190Y-82324285D01*
X163797619Y-81371904D02*
X163750000Y-81324285D01*
X163702380Y-81229047D01*
X163702380Y-80990952D01*
X163750000Y-80895714D01*
X163797619Y-80848095D01*
X163892857Y-80800476D01*
X163988095Y-80800476D01*
X164130952Y-80848095D01*
X164702380Y-81419523D01*
X164702380Y-80800476D01*
X163702380Y-79895714D02*
X163702380Y-80371904D01*
X164178571Y-80419523D01*
X164130952Y-80371904D01*
X164083333Y-80276666D01*
X164083333Y-80038571D01*
X164130952Y-79943333D01*
X164178571Y-79895714D01*
X164273809Y-79848095D01*
X164511904Y-79848095D01*
X164607142Y-79895714D01*
X164654761Y-79943333D01*
X164702380Y-80038571D01*
X164702380Y-80276666D01*
X164654761Y-80371904D01*
X164607142Y-80419523D01*
%TO.C,C40*%
X179117142Y-95252857D02*
X179164761Y-95300476D01*
X179212380Y-95443333D01*
X179212380Y-95538571D01*
X179164761Y-95681428D01*
X179069523Y-95776666D01*
X178974285Y-95824285D01*
X178783809Y-95871904D01*
X178640952Y-95871904D01*
X178450476Y-95824285D01*
X178355238Y-95776666D01*
X178260000Y-95681428D01*
X178212380Y-95538571D01*
X178212380Y-95443333D01*
X178260000Y-95300476D01*
X178307619Y-95252857D01*
X178545714Y-94395714D02*
X179212380Y-94395714D01*
X178164761Y-94633809D02*
X178879047Y-94871904D01*
X178879047Y-94252857D01*
X178212380Y-93681428D02*
X178212380Y-93586190D01*
X178260000Y-93490952D01*
X178307619Y-93443333D01*
X178402857Y-93395714D01*
X178593333Y-93348095D01*
X178831428Y-93348095D01*
X179021904Y-93395714D01*
X179117142Y-93443333D01*
X179164761Y-93490952D01*
X179212380Y-93586190D01*
X179212380Y-93681428D01*
X179164761Y-93776666D01*
X179117142Y-93824285D01*
X179021904Y-93871904D01*
X178831428Y-93919523D01*
X178593333Y-93919523D01*
X178402857Y-93871904D01*
X178307619Y-93824285D01*
X178260000Y-93776666D01*
X178212380Y-93681428D01*
%TO.C,D13*%
X128532380Y-82714285D02*
X127532380Y-82714285D01*
X127532380Y-82476190D01*
X127580000Y-82333333D01*
X127675238Y-82238095D01*
X127770476Y-82190476D01*
X127960952Y-82142857D01*
X128103809Y-82142857D01*
X128294285Y-82190476D01*
X128389523Y-82238095D01*
X128484761Y-82333333D01*
X128532380Y-82476190D01*
X128532380Y-82714285D01*
X128532380Y-81190476D02*
X128532380Y-81761904D01*
X128532380Y-81476190D02*
X127532380Y-81476190D01*
X127675238Y-81571428D01*
X127770476Y-81666666D01*
X127818095Y-81761904D01*
X127532380Y-80857142D02*
X127532380Y-80238095D01*
X127913333Y-80571428D01*
X127913333Y-80428571D01*
X127960952Y-80333333D01*
X128008571Y-80285714D01*
X128103809Y-80238095D01*
X128341904Y-80238095D01*
X128437142Y-80285714D01*
X128484761Y-80333333D01*
X128532380Y-80428571D01*
X128532380Y-80714285D01*
X128484761Y-80809523D01*
X128437142Y-80857142D01*
D16*
%TO.C,R55*%
X174828571Y-76636190D02*
X174661904Y-76398095D01*
X174542857Y-76636190D02*
X174542857Y-76136190D01*
X174733333Y-76136190D01*
X174780952Y-76160000D01*
X174804761Y-76183809D01*
X174828571Y-76231428D01*
X174828571Y-76302857D01*
X174804761Y-76350476D01*
X174780952Y-76374285D01*
X174733333Y-76398095D01*
X174542857Y-76398095D01*
X175280952Y-76136190D02*
X175042857Y-76136190D01*
X175019047Y-76374285D01*
X175042857Y-76350476D01*
X175090476Y-76326666D01*
X175209523Y-76326666D01*
X175257142Y-76350476D01*
X175280952Y-76374285D01*
X175304761Y-76421904D01*
X175304761Y-76540952D01*
X175280952Y-76588571D01*
X175257142Y-76612380D01*
X175209523Y-76636190D01*
X175090476Y-76636190D01*
X175042857Y-76612380D01*
X175019047Y-76588571D01*
X175757142Y-76136190D02*
X175519047Y-76136190D01*
X175495238Y-76374285D01*
X175519047Y-76350476D01*
X175566666Y-76326666D01*
X175685714Y-76326666D01*
X175733333Y-76350476D01*
X175757142Y-76374285D01*
X175780952Y-76421904D01*
X175780952Y-76540952D01*
X175757142Y-76588571D01*
X175733333Y-76612380D01*
X175685714Y-76636190D01*
X175566666Y-76636190D01*
X175519047Y-76612380D01*
X175495238Y-76588571D01*
D13*
%TO.C,R12*%
X160672380Y-87782857D02*
X160196190Y-88116190D01*
X160672380Y-88354285D02*
X159672380Y-88354285D01*
X159672380Y-87973333D01*
X159720000Y-87878095D01*
X159767619Y-87830476D01*
X159862857Y-87782857D01*
X160005714Y-87782857D01*
X160100952Y-87830476D01*
X160148571Y-87878095D01*
X160196190Y-87973333D01*
X160196190Y-88354285D01*
X160672380Y-86830476D02*
X160672380Y-87401904D01*
X160672380Y-87116190D02*
X159672380Y-87116190D01*
X159815238Y-87211428D01*
X159910476Y-87306666D01*
X159958095Y-87401904D01*
X159767619Y-86449523D02*
X159720000Y-86401904D01*
X159672380Y-86306666D01*
X159672380Y-86068571D01*
X159720000Y-85973333D01*
X159767619Y-85925714D01*
X159862857Y-85878095D01*
X159958095Y-85878095D01*
X160100952Y-85925714D01*
X160672380Y-86497142D01*
X160672380Y-85878095D01*
%TO.C,Q5*%
X109324761Y-93707619D02*
X109229523Y-93660000D01*
X109134285Y-93564761D01*
X108991428Y-93421904D01*
X108896190Y-93374285D01*
X108800952Y-93374285D01*
X108848571Y-93612380D02*
X108753333Y-93564761D01*
X108658095Y-93469523D01*
X108610476Y-93279047D01*
X108610476Y-92945714D01*
X108658095Y-92755238D01*
X108753333Y-92660000D01*
X108848571Y-92612380D01*
X109039047Y-92612380D01*
X109134285Y-92660000D01*
X109229523Y-92755238D01*
X109277142Y-92945714D01*
X109277142Y-93279047D01*
X109229523Y-93469523D01*
X109134285Y-93564761D01*
X109039047Y-93612380D01*
X108848571Y-93612380D01*
X110181904Y-92612380D02*
X109705714Y-92612380D01*
X109658095Y-93088571D01*
X109705714Y-93040952D01*
X109800952Y-92993333D01*
X110039047Y-92993333D01*
X110134285Y-93040952D01*
X110181904Y-93088571D01*
X110229523Y-93183809D01*
X110229523Y-93421904D01*
X110181904Y-93517142D01*
X110134285Y-93564761D01*
X110039047Y-93612380D01*
X109800952Y-93612380D01*
X109705714Y-93564761D01*
X109658095Y-93517142D01*
%TO.C,R60*%
X124142380Y-79762857D02*
X123666190Y-80096190D01*
X124142380Y-80334285D02*
X123142380Y-80334285D01*
X123142380Y-79953333D01*
X123190000Y-79858095D01*
X123237619Y-79810476D01*
X123332857Y-79762857D01*
X123475714Y-79762857D01*
X123570952Y-79810476D01*
X123618571Y-79858095D01*
X123666190Y-79953333D01*
X123666190Y-80334285D01*
X123142380Y-78905714D02*
X123142380Y-79096190D01*
X123190000Y-79191428D01*
X123237619Y-79239047D01*
X123380476Y-79334285D01*
X123570952Y-79381904D01*
X123951904Y-79381904D01*
X124047142Y-79334285D01*
X124094761Y-79286666D01*
X124142380Y-79191428D01*
X124142380Y-79000952D01*
X124094761Y-78905714D01*
X124047142Y-78858095D01*
X123951904Y-78810476D01*
X123713809Y-78810476D01*
X123618571Y-78858095D01*
X123570952Y-78905714D01*
X123523333Y-79000952D01*
X123523333Y-79191428D01*
X123570952Y-79286666D01*
X123618571Y-79334285D01*
X123713809Y-79381904D01*
X123142380Y-78191428D02*
X123142380Y-78096190D01*
X123190000Y-78000952D01*
X123237619Y-77953333D01*
X123332857Y-77905714D01*
X123523333Y-77858095D01*
X123761428Y-77858095D01*
X123951904Y-77905714D01*
X124047142Y-77953333D01*
X124094761Y-78000952D01*
X124142380Y-78096190D01*
X124142380Y-78191428D01*
X124094761Y-78286666D01*
X124047142Y-78334285D01*
X123951904Y-78381904D01*
X123761428Y-78429523D01*
X123523333Y-78429523D01*
X123332857Y-78381904D01*
X123237619Y-78334285D01*
X123190000Y-78286666D01*
X123142380Y-78191428D01*
%TO.C,TP5*%
X110563095Y-89479380D02*
X111134523Y-89479380D01*
X110848809Y-90479380D02*
X110848809Y-89479380D01*
X111467857Y-90479380D02*
X111467857Y-89479380D01*
X111848809Y-89479380D01*
X111944047Y-89527000D01*
X111991666Y-89574619D01*
X112039285Y-89669857D01*
X112039285Y-89812714D01*
X111991666Y-89907952D01*
X111944047Y-89955571D01*
X111848809Y-90003190D01*
X111467857Y-90003190D01*
X112944047Y-89479380D02*
X112467857Y-89479380D01*
X112420238Y-89955571D01*
X112467857Y-89907952D01*
X112563095Y-89860333D01*
X112801190Y-89860333D01*
X112896428Y-89907952D01*
X112944047Y-89955571D01*
X112991666Y-90050809D01*
X112991666Y-90288904D01*
X112944047Y-90384142D01*
X112896428Y-90431761D01*
X112801190Y-90479380D01*
X112563095Y-90479380D01*
X112467857Y-90431761D01*
X112420238Y-90384142D01*
%TO.C,FB2*%
X136998571Y-82973333D02*
X136998571Y-83306666D01*
X137522380Y-83306666D02*
X136522380Y-83306666D01*
X136522380Y-82830476D01*
X136998571Y-82116190D02*
X137046190Y-81973333D01*
X137093809Y-81925714D01*
X137189047Y-81878095D01*
X137331904Y-81878095D01*
X137427142Y-81925714D01*
X137474761Y-81973333D01*
X137522380Y-82068571D01*
X137522380Y-82449523D01*
X136522380Y-82449523D01*
X136522380Y-82116190D01*
X136570000Y-82020952D01*
X136617619Y-81973333D01*
X136712857Y-81925714D01*
X136808095Y-81925714D01*
X136903333Y-81973333D01*
X136950952Y-82020952D01*
X136998571Y-82116190D01*
X136998571Y-82449523D01*
X136617619Y-81497142D02*
X136570000Y-81449523D01*
X136522380Y-81354285D01*
X136522380Y-81116190D01*
X136570000Y-81020952D01*
X136617619Y-80973333D01*
X136712857Y-80925714D01*
X136808095Y-80925714D01*
X136950952Y-80973333D01*
X137522380Y-81544761D01*
X137522380Y-80925714D01*
%TO.C,J4*%
X135054166Y-77954880D02*
X135054166Y-78669166D01*
X135006547Y-78812023D01*
X134911309Y-78907261D01*
X134768452Y-78954880D01*
X134673214Y-78954880D01*
X135958928Y-78288214D02*
X135958928Y-78954880D01*
X135720833Y-77907261D02*
X135482738Y-78621547D01*
X136101785Y-78621547D01*
%TO.C,R24*%
X160932380Y-81622857D02*
X160456190Y-81956190D01*
X160932380Y-82194285D02*
X159932380Y-82194285D01*
X159932380Y-81813333D01*
X159980000Y-81718095D01*
X160027619Y-81670476D01*
X160122857Y-81622857D01*
X160265714Y-81622857D01*
X160360952Y-81670476D01*
X160408571Y-81718095D01*
X160456190Y-81813333D01*
X160456190Y-82194285D01*
X160027619Y-81241904D02*
X159980000Y-81194285D01*
X159932380Y-81099047D01*
X159932380Y-80860952D01*
X159980000Y-80765714D01*
X160027619Y-80718095D01*
X160122857Y-80670476D01*
X160218095Y-80670476D01*
X160360952Y-80718095D01*
X160932380Y-81289523D01*
X160932380Y-80670476D01*
X160265714Y-79813333D02*
X160932380Y-79813333D01*
X159884761Y-80051428D02*
X160599047Y-80289523D01*
X160599047Y-79670476D01*
%TO.C,R67*%
X131212380Y-82912857D02*
X130736190Y-83246190D01*
X131212380Y-83484285D02*
X130212380Y-83484285D01*
X130212380Y-83103333D01*
X130260000Y-83008095D01*
X130307619Y-82960476D01*
X130402857Y-82912857D01*
X130545714Y-82912857D01*
X130640952Y-82960476D01*
X130688571Y-83008095D01*
X130736190Y-83103333D01*
X130736190Y-83484285D01*
X130212380Y-82055714D02*
X130212380Y-82246190D01*
X130260000Y-82341428D01*
X130307619Y-82389047D01*
X130450476Y-82484285D01*
X130640952Y-82531904D01*
X131021904Y-82531904D01*
X131117142Y-82484285D01*
X131164761Y-82436666D01*
X131212380Y-82341428D01*
X131212380Y-82150952D01*
X131164761Y-82055714D01*
X131117142Y-82008095D01*
X131021904Y-81960476D01*
X130783809Y-81960476D01*
X130688571Y-82008095D01*
X130640952Y-82055714D01*
X130593333Y-82150952D01*
X130593333Y-82341428D01*
X130640952Y-82436666D01*
X130688571Y-82484285D01*
X130783809Y-82531904D01*
X130212380Y-81627142D02*
X130212380Y-80960476D01*
X131212380Y-81389047D01*
%TO.C,H4*%
X167238095Y-71352380D02*
X167238095Y-70352380D01*
X167238095Y-70828571D02*
X167809523Y-70828571D01*
X167809523Y-71352380D02*
X167809523Y-70352380D01*
X168714285Y-70685714D02*
X168714285Y-71352380D01*
X168476190Y-70304761D02*
X168238095Y-71019047D01*
X168857142Y-71019047D01*
D16*
%TO.C,D10*%
X180516190Y-76797142D02*
X180016190Y-76797142D01*
X180016190Y-76678095D01*
X180040000Y-76606666D01*
X180087619Y-76559047D01*
X180135238Y-76535238D01*
X180230476Y-76511428D01*
X180301904Y-76511428D01*
X180397142Y-76535238D01*
X180444761Y-76559047D01*
X180492380Y-76606666D01*
X180516190Y-76678095D01*
X180516190Y-76797142D01*
X180516190Y-76035238D02*
X180516190Y-76320952D01*
X180516190Y-76178095D02*
X180016190Y-76178095D01*
X180087619Y-76225714D01*
X180135238Y-76273333D01*
X180159047Y-76320952D01*
X180016190Y-75725714D02*
X180016190Y-75678095D01*
X180040000Y-75630476D01*
X180063809Y-75606666D01*
X180111428Y-75582857D01*
X180206666Y-75559047D01*
X180325714Y-75559047D01*
X180420952Y-75582857D01*
X180468571Y-75606666D01*
X180492380Y-75630476D01*
X180516190Y-75678095D01*
X180516190Y-75725714D01*
X180492380Y-75773333D01*
X180468571Y-75797142D01*
X180420952Y-75820952D01*
X180325714Y-75844761D01*
X180206666Y-75844761D01*
X180111428Y-75820952D01*
X180063809Y-75797142D01*
X180040000Y-75773333D01*
X180016190Y-75725714D01*
D13*
%TO.C,R29*%
X101677142Y-85652380D02*
X101343809Y-85176190D01*
X101105714Y-85652380D02*
X101105714Y-84652380D01*
X101486666Y-84652380D01*
X101581904Y-84700000D01*
X101629523Y-84747619D01*
X101677142Y-84842857D01*
X101677142Y-84985714D01*
X101629523Y-85080952D01*
X101581904Y-85128571D01*
X101486666Y-85176190D01*
X101105714Y-85176190D01*
X102058095Y-84747619D02*
X102105714Y-84700000D01*
X102200952Y-84652380D01*
X102439047Y-84652380D01*
X102534285Y-84700000D01*
X102581904Y-84747619D01*
X102629523Y-84842857D01*
X102629523Y-84938095D01*
X102581904Y-85080952D01*
X102010476Y-85652380D01*
X102629523Y-85652380D01*
X103105714Y-85652380D02*
X103296190Y-85652380D01*
X103391428Y-85604761D01*
X103439047Y-85557142D01*
X103534285Y-85414285D01*
X103581904Y-85223809D01*
X103581904Y-84842857D01*
X103534285Y-84747619D01*
X103486666Y-84700000D01*
X103391428Y-84652380D01*
X103200952Y-84652380D01*
X103105714Y-84700000D01*
X103058095Y-84747619D01*
X103010476Y-84842857D01*
X103010476Y-85080952D01*
X103058095Y-85176190D01*
X103105714Y-85223809D01*
X103200952Y-85271428D01*
X103391428Y-85271428D01*
X103486666Y-85223809D01*
X103534285Y-85176190D01*
X103581904Y-85080952D01*
%TO.C,C2*%
X139123333Y-91667142D02*
X139075714Y-91714761D01*
X138932857Y-91762380D01*
X138837619Y-91762380D01*
X138694761Y-91714761D01*
X138599523Y-91619523D01*
X138551904Y-91524285D01*
X138504285Y-91333809D01*
X138504285Y-91190952D01*
X138551904Y-91000476D01*
X138599523Y-90905238D01*
X138694761Y-90810000D01*
X138837619Y-90762380D01*
X138932857Y-90762380D01*
X139075714Y-90810000D01*
X139123333Y-90857619D01*
X139504285Y-90857619D02*
X139551904Y-90810000D01*
X139647142Y-90762380D01*
X139885238Y-90762380D01*
X139980476Y-90810000D01*
X140028095Y-90857619D01*
X140075714Y-90952857D01*
X140075714Y-91048095D01*
X140028095Y-91190952D01*
X139456666Y-91762380D01*
X140075714Y-91762380D01*
%TO.C,Q9*%
X107224761Y-97457619D02*
X107129523Y-97410000D01*
X107034285Y-97314761D01*
X106891428Y-97171904D01*
X106796190Y-97124285D01*
X106700952Y-97124285D01*
X106748571Y-97362380D02*
X106653333Y-97314761D01*
X106558095Y-97219523D01*
X106510476Y-97029047D01*
X106510476Y-96695714D01*
X106558095Y-96505238D01*
X106653333Y-96410000D01*
X106748571Y-96362380D01*
X106939047Y-96362380D01*
X107034285Y-96410000D01*
X107129523Y-96505238D01*
X107177142Y-96695714D01*
X107177142Y-97029047D01*
X107129523Y-97219523D01*
X107034285Y-97314761D01*
X106939047Y-97362380D01*
X106748571Y-97362380D01*
X107653333Y-97362380D02*
X107843809Y-97362380D01*
X107939047Y-97314761D01*
X107986666Y-97267142D01*
X108081904Y-97124285D01*
X108129523Y-96933809D01*
X108129523Y-96552857D01*
X108081904Y-96457619D01*
X108034285Y-96410000D01*
X107939047Y-96362380D01*
X107748571Y-96362380D01*
X107653333Y-96410000D01*
X107605714Y-96457619D01*
X107558095Y-96552857D01*
X107558095Y-96790952D01*
X107605714Y-96886190D01*
X107653333Y-96933809D01*
X107748571Y-96981428D01*
X107939047Y-96981428D01*
X108034285Y-96933809D01*
X108081904Y-96886190D01*
X108129523Y-96790952D01*
%TO.C,R33*%
X140957142Y-100432380D02*
X140623809Y-99956190D01*
X140385714Y-100432380D02*
X140385714Y-99432380D01*
X140766666Y-99432380D01*
X140861904Y-99480000D01*
X140909523Y-99527619D01*
X140957142Y-99622857D01*
X140957142Y-99765714D01*
X140909523Y-99860952D01*
X140861904Y-99908571D01*
X140766666Y-99956190D01*
X140385714Y-99956190D01*
X141290476Y-99432380D02*
X141909523Y-99432380D01*
X141576190Y-99813333D01*
X141719047Y-99813333D01*
X141814285Y-99860952D01*
X141861904Y-99908571D01*
X141909523Y-100003809D01*
X141909523Y-100241904D01*
X141861904Y-100337142D01*
X141814285Y-100384761D01*
X141719047Y-100432380D01*
X141433333Y-100432380D01*
X141338095Y-100384761D01*
X141290476Y-100337142D01*
X142242857Y-99432380D02*
X142861904Y-99432380D01*
X142528571Y-99813333D01*
X142671428Y-99813333D01*
X142766666Y-99860952D01*
X142814285Y-99908571D01*
X142861904Y-100003809D01*
X142861904Y-100241904D01*
X142814285Y-100337142D01*
X142766666Y-100384761D01*
X142671428Y-100432380D01*
X142385714Y-100432380D01*
X142290476Y-100384761D01*
X142242857Y-100337142D01*
%TO.C,C10*%
X139827142Y-76902857D02*
X139874761Y-76950476D01*
X139922380Y-77093333D01*
X139922380Y-77188571D01*
X139874761Y-77331428D01*
X139779523Y-77426666D01*
X139684285Y-77474285D01*
X139493809Y-77521904D01*
X139350952Y-77521904D01*
X139160476Y-77474285D01*
X139065238Y-77426666D01*
X138970000Y-77331428D01*
X138922380Y-77188571D01*
X138922380Y-77093333D01*
X138970000Y-76950476D01*
X139017619Y-76902857D01*
X139922380Y-75950476D02*
X139922380Y-76521904D01*
X139922380Y-76236190D02*
X138922380Y-76236190D01*
X139065238Y-76331428D01*
X139160476Y-76426666D01*
X139208095Y-76521904D01*
X138922380Y-75331428D02*
X138922380Y-75236190D01*
X138970000Y-75140952D01*
X139017619Y-75093333D01*
X139112857Y-75045714D01*
X139303333Y-74998095D01*
X139541428Y-74998095D01*
X139731904Y-75045714D01*
X139827142Y-75093333D01*
X139874761Y-75140952D01*
X139922380Y-75236190D01*
X139922380Y-75331428D01*
X139874761Y-75426666D01*
X139827142Y-75474285D01*
X139731904Y-75521904D01*
X139541428Y-75569523D01*
X139303333Y-75569523D01*
X139112857Y-75521904D01*
X139017619Y-75474285D01*
X138970000Y-75426666D01*
X138922380Y-75331428D01*
%TO.C,C41*%
X122097142Y-93952857D02*
X122144761Y-94000476D01*
X122192380Y-94143333D01*
X122192380Y-94238571D01*
X122144761Y-94381428D01*
X122049523Y-94476666D01*
X121954285Y-94524285D01*
X121763809Y-94571904D01*
X121620952Y-94571904D01*
X121430476Y-94524285D01*
X121335238Y-94476666D01*
X121240000Y-94381428D01*
X121192380Y-94238571D01*
X121192380Y-94143333D01*
X121240000Y-94000476D01*
X121287619Y-93952857D01*
X121525714Y-93095714D02*
X122192380Y-93095714D01*
X121144761Y-93333809D02*
X121859047Y-93571904D01*
X121859047Y-92952857D01*
X122192380Y-92048095D02*
X122192380Y-92619523D01*
X122192380Y-92333809D02*
X121192380Y-92333809D01*
X121335238Y-92429047D01*
X121430476Y-92524285D01*
X121478095Y-92619523D01*
%TO.C,Q4*%
X108504761Y-85457619D02*
X108409523Y-85410000D01*
X108314285Y-85314761D01*
X108171428Y-85171904D01*
X108076190Y-85124285D01*
X107980952Y-85124285D01*
X108028571Y-85362380D02*
X107933333Y-85314761D01*
X107838095Y-85219523D01*
X107790476Y-85029047D01*
X107790476Y-84695714D01*
X107838095Y-84505238D01*
X107933333Y-84410000D01*
X108028571Y-84362380D01*
X108219047Y-84362380D01*
X108314285Y-84410000D01*
X108409523Y-84505238D01*
X108457142Y-84695714D01*
X108457142Y-85029047D01*
X108409523Y-85219523D01*
X108314285Y-85314761D01*
X108219047Y-85362380D01*
X108028571Y-85362380D01*
X109314285Y-84695714D02*
X109314285Y-85362380D01*
X109076190Y-84314761D02*
X108838095Y-85029047D01*
X109457142Y-85029047D01*
%TO.C,Y1*%
X141586190Y-79946190D02*
X142062380Y-79946190D01*
X141062380Y-80279523D02*
X141586190Y-79946190D01*
X141062380Y-79612857D01*
X142062380Y-78755714D02*
X142062380Y-79327142D01*
X142062380Y-79041428D02*
X141062380Y-79041428D01*
X141205238Y-79136666D01*
X141300476Y-79231904D01*
X141348095Y-79327142D01*
%TO.C,C39*%
X181917142Y-92772857D02*
X181964761Y-92820476D01*
X182012380Y-92963333D01*
X182012380Y-93058571D01*
X181964761Y-93201428D01*
X181869523Y-93296666D01*
X181774285Y-93344285D01*
X181583809Y-93391904D01*
X181440952Y-93391904D01*
X181250476Y-93344285D01*
X181155238Y-93296666D01*
X181060000Y-93201428D01*
X181012380Y-93058571D01*
X181012380Y-92963333D01*
X181060000Y-92820476D01*
X181107619Y-92772857D01*
X181012380Y-92439523D02*
X181012380Y-91820476D01*
X181393333Y-92153809D01*
X181393333Y-92010952D01*
X181440952Y-91915714D01*
X181488571Y-91868095D01*
X181583809Y-91820476D01*
X181821904Y-91820476D01*
X181917142Y-91868095D01*
X181964761Y-91915714D01*
X182012380Y-92010952D01*
X182012380Y-92296666D01*
X181964761Y-92391904D01*
X181917142Y-92439523D01*
X182012380Y-91344285D02*
X182012380Y-91153809D01*
X181964761Y-91058571D01*
X181917142Y-91010952D01*
X181774285Y-90915714D01*
X181583809Y-90868095D01*
X181202857Y-90868095D01*
X181107619Y-90915714D01*
X181060000Y-90963333D01*
X181012380Y-91058571D01*
X181012380Y-91249047D01*
X181060000Y-91344285D01*
X181107619Y-91391904D01*
X181202857Y-91439523D01*
X181440952Y-91439523D01*
X181536190Y-91391904D01*
X181583809Y-91344285D01*
X181631428Y-91249047D01*
X181631428Y-91058571D01*
X181583809Y-90963333D01*
X181536190Y-90915714D01*
X181440952Y-90868095D01*
%TO.C,R11*%
X162502380Y-89012857D02*
X162026190Y-89346190D01*
X162502380Y-89584285D02*
X161502380Y-89584285D01*
X161502380Y-89203333D01*
X161550000Y-89108095D01*
X161597619Y-89060476D01*
X161692857Y-89012857D01*
X161835714Y-89012857D01*
X161930952Y-89060476D01*
X161978571Y-89108095D01*
X162026190Y-89203333D01*
X162026190Y-89584285D01*
X162502380Y-88060476D02*
X162502380Y-88631904D01*
X162502380Y-88346190D02*
X161502380Y-88346190D01*
X161645238Y-88441428D01*
X161740476Y-88536666D01*
X161788095Y-88631904D01*
X162502380Y-87108095D02*
X162502380Y-87679523D01*
X162502380Y-87393809D02*
X161502380Y-87393809D01*
X161645238Y-87489047D01*
X161740476Y-87584285D01*
X161788095Y-87679523D01*
%TO.C,D12*%
X166582380Y-93114285D02*
X165582380Y-93114285D01*
X165582380Y-92876190D01*
X165630000Y-92733333D01*
X165725238Y-92638095D01*
X165820476Y-92590476D01*
X166010952Y-92542857D01*
X166153809Y-92542857D01*
X166344285Y-92590476D01*
X166439523Y-92638095D01*
X166534761Y-92733333D01*
X166582380Y-92876190D01*
X166582380Y-93114285D01*
X166582380Y-91590476D02*
X166582380Y-92161904D01*
X166582380Y-91876190D02*
X165582380Y-91876190D01*
X165725238Y-91971428D01*
X165820476Y-92066666D01*
X165868095Y-92161904D01*
X165677619Y-91209523D02*
X165630000Y-91161904D01*
X165582380Y-91066666D01*
X165582380Y-90828571D01*
X165630000Y-90733333D01*
X165677619Y-90685714D01*
X165772857Y-90638095D01*
X165868095Y-90638095D01*
X166010952Y-90685714D01*
X166582380Y-91257142D01*
X166582380Y-90638095D01*
%TO.C,R8*%
X114613333Y-92652380D02*
X114280000Y-92176190D01*
X114041904Y-92652380D02*
X114041904Y-91652380D01*
X114422857Y-91652380D01*
X114518095Y-91700000D01*
X114565714Y-91747619D01*
X114613333Y-91842857D01*
X114613333Y-91985714D01*
X114565714Y-92080952D01*
X114518095Y-92128571D01*
X114422857Y-92176190D01*
X114041904Y-92176190D01*
X115184761Y-92080952D02*
X115089523Y-92033333D01*
X115041904Y-91985714D01*
X114994285Y-91890476D01*
X114994285Y-91842857D01*
X115041904Y-91747619D01*
X115089523Y-91700000D01*
X115184761Y-91652380D01*
X115375238Y-91652380D01*
X115470476Y-91700000D01*
X115518095Y-91747619D01*
X115565714Y-91842857D01*
X115565714Y-91890476D01*
X115518095Y-91985714D01*
X115470476Y-92033333D01*
X115375238Y-92080952D01*
X115184761Y-92080952D01*
X115089523Y-92128571D01*
X115041904Y-92176190D01*
X114994285Y-92271428D01*
X114994285Y-92461904D01*
X115041904Y-92557142D01*
X115089523Y-92604761D01*
X115184761Y-92652380D01*
X115375238Y-92652380D01*
X115470476Y-92604761D01*
X115518095Y-92557142D01*
X115565714Y-92461904D01*
X115565714Y-92271428D01*
X115518095Y-92176190D01*
X115470476Y-92128571D01*
X115375238Y-92080952D01*
D17*
%TO.C,C4*%
X139810000Y-93390580D02*
X139810000Y-93109420D01*
X138790000Y-93390580D02*
X138790000Y-93109420D01*
%TO.C,R66*%
X134515000Y-79297776D02*
X134515000Y-79807224D01*
X135560000Y-79297776D02*
X135560000Y-79807224D01*
%TO.C,TP9*%
X177050000Y-99300000D02*
X177050000Y-100700000D01*
X177050000Y-100700000D02*
X175650000Y-100700000D01*
X175650000Y-99300000D02*
X177050000Y-99300000D01*
X175650000Y-100700000D02*
X175650000Y-99300000D01*
%TO.C,TP6*%
X163300000Y-84400000D02*
X164700000Y-84400000D01*
X164700000Y-85800000D02*
X163300000Y-85800000D01*
X163300000Y-85800000D02*
X163300000Y-84400000D01*
X164700000Y-84400000D02*
X164700000Y-85800000D01*
%TO.C,SW1*%
X182319600Y-77915200D02*
X182619600Y-77915200D01*
X182619600Y-82055200D02*
X182319600Y-82055200D01*
X182319600Y-82055200D02*
X182319600Y-77915200D01*
X185459600Y-77915200D02*
X185459600Y-82055200D01*
X185459600Y-82055200D02*
X185159600Y-82055200D01*
X185159600Y-77915200D02*
X185459600Y-77915200D01*
%TO.C,U3*%
X112480000Y-80350000D02*
X113740000Y-80350000D01*
X112480000Y-86360000D02*
X112480000Y-80350000D01*
X119300000Y-80350000D02*
X118040000Y-80350000D01*
X119300000Y-84110000D02*
X119300000Y-80350000D01*
D11*
%TO.C,IC2*%
X171600000Y-89960000D02*
X171600000Y-89960000D01*
D12*
X181050000Y-88660000D02*
X181050000Y-79060000D01*
X170950000Y-88660000D02*
X170950000Y-79060000D01*
D11*
X171600000Y-90060000D02*
X171600000Y-90060000D01*
X171600000Y-89960000D02*
G75*
G03*
X171600000Y-90060000I0J-50000D01*
G01*
X171600000Y-90060000D02*
G75*
G03*
X171600000Y-89960000I0J50000D01*
G01*
D17*
%TO.C,C9*%
X121081233Y-82900000D02*
X121373767Y-82900000D01*
X121081233Y-81880000D02*
X121373767Y-81880000D01*
%TO.C,J3*%
X99310000Y-100712000D02*
X106430000Y-100712000D01*
X106670000Y-100952000D02*
X106670000Y-99452000D01*
X106430000Y-100712000D02*
X106430000Y-85892000D01*
X104930000Y-100952000D02*
X106670000Y-100952000D01*
X99310000Y-100712000D02*
X99310000Y-85892000D01*
X104870000Y-100712000D02*
X104870000Y-85892000D01*
X99310000Y-85892000D02*
X106430000Y-85892000D01*
X103378000Y-97120000D02*
G75*
G03*
X102162258Y-97119891I-607999J-1432003D01*
G01*
X104202000Y-99160000D02*
G75*
G03*
X104325493Y-98524989I-1431988J607998D01*
G01*
X104325000Y-98552000D02*
G75*
G03*
X104201385Y-97944413I-1554997J1D01*
G01*
X101338000Y-97944000D02*
G75*
G03*
X101337891Y-99159742I1432003J-607999D01*
G01*
X102162000Y-99984000D02*
G75*
G03*
X103377742Y-99984109I607999J1432003D01*
G01*
X104325000Y-95052000D02*
G75*
G03*
X104325000Y-95052000I-1555000J0D01*
G01*
X104325000Y-91552000D02*
G75*
G03*
X104325000Y-91552000I-1555000J0D01*
G01*
X104325000Y-88052000D02*
G75*
G03*
X104325000Y-88052000I-1555000J0D01*
G01*
%TO.C,D4*%
X118960000Y-86870000D02*
X118960000Y-90770000D01*
X120960000Y-86870000D02*
X120960000Y-90770000D01*
X120960000Y-86870000D02*
X118960000Y-86870000D01*
%TO.C,C21*%
X139210000Y-87316233D02*
X139210000Y-87608767D01*
X138190000Y-87316233D02*
X138190000Y-87608767D01*
%TO.C,R13*%
X132575276Y-87967500D02*
X133084724Y-87967500D01*
X132575276Y-89012500D02*
X133084724Y-89012500D01*
%TO.C,C37*%
X176752164Y-77810000D02*
X176967836Y-77810000D01*
X176752164Y-77090000D02*
X176967836Y-77090000D01*
%TO.C,D2*%
X118580000Y-86860000D02*
X116580000Y-86860000D01*
X118580000Y-86860000D02*
X118580000Y-90760000D01*
X116580000Y-86860000D02*
X116580000Y-90760000D01*
%TO.C,C1*%
X141421920Y-93490000D02*
X141703080Y-93490000D01*
X141421920Y-94510000D02*
X141703080Y-94510000D01*
%TO.C,C52*%
X123709420Y-99160000D02*
X123990580Y-99160000D01*
X123709420Y-98140000D02*
X123990580Y-98140000D01*
%TO.C,R50*%
X115807258Y-95620100D02*
X115332742Y-95620100D01*
X115807258Y-94575100D02*
X115332742Y-94575100D01*
%TO.C,FB1*%
X141399721Y-91990000D02*
X141725279Y-91990000D01*
X141399721Y-93010000D02*
X141725279Y-93010000D01*
%TO.C,TP10*%
X173400000Y-99325000D02*
X174800000Y-99325000D01*
X173400000Y-100725000D02*
X173400000Y-99325000D01*
X174800000Y-100725000D02*
X173400000Y-100725000D01*
X174800000Y-99325000D02*
X174800000Y-100725000D01*
%TO.C,R68*%
X128585000Y-79297776D02*
X128585000Y-79807224D01*
X129630000Y-79297776D02*
X129630000Y-79807224D01*
%TO.C,C8*%
X121081233Y-81370000D02*
X121373767Y-81370000D01*
X121081233Y-80350000D02*
X121373767Y-80350000D01*
D18*
%TO.C,J2*%
X184088400Y-91810800D02*
X182658400Y-91810800D01*
X182658400Y-100060800D02*
X182658400Y-98295800D01*
X186708400Y-98975800D02*
X186708400Y-92885800D01*
X184078400Y-100060800D02*
X182658400Y-100060800D01*
X182658400Y-91810800D02*
X182658400Y-93575800D01*
D12*
X181108400Y-97735800D02*
G75*
G03*
X181108400Y-97735800I-100000J0D01*
G01*
D17*
%TO.C,C27*%
X138978080Y-78112500D02*
X138696920Y-78112500D01*
X138978080Y-79132500D02*
X138696920Y-79132500D01*
%TO.C,C14*%
X153058767Y-94810000D02*
X152766233Y-94810000D01*
X153058767Y-93790000D02*
X152766233Y-93790000D01*
%TO.C,C54*%
X123709420Y-100710000D02*
X123990580Y-100710000D01*
X123709420Y-99690000D02*
X123990580Y-99690000D01*
%TO.C,C19*%
X144560000Y-80946267D02*
X144560000Y-80653733D01*
X143540000Y-80946267D02*
X143540000Y-80653733D01*
%TO.C,AE2*%
X178160000Y-74835000D02*
X178800000Y-74835000D01*
X178210000Y-72115000D02*
X180910000Y-72115000D01*
X180960000Y-74835000D02*
X180320000Y-74835000D01*
X178800000Y-74835000D02*
X178800000Y-75465000D01*
%TO.C,R59*%
X125772500Y-81402742D02*
X125772500Y-81877258D01*
X124727500Y-81402742D02*
X124727500Y-81877258D01*
%TO.C,C20*%
X138192500Y-83948279D02*
X138192500Y-84240813D01*
X139212500Y-83948279D02*
X139212500Y-84240813D01*
%TO.C,R57*%
X168137500Y-89267258D02*
X168137500Y-88792742D01*
X167092500Y-89267258D02*
X167092500Y-88792742D01*
%TO.C,C50*%
X120940580Y-97610000D02*
X120659420Y-97610000D01*
X120940580Y-96590000D02*
X120659420Y-96590000D01*
%TO.C,TP8*%
X164700000Y-84250000D02*
X163300000Y-84250000D01*
X163300000Y-82850000D02*
X164700000Y-82850000D01*
X163300000Y-84250000D02*
X163300000Y-82850000D01*
X164700000Y-82850000D02*
X164700000Y-84250000D01*
%TO.C,Q2*%
X114410000Y-86920000D02*
X113760000Y-86920000D01*
X114410000Y-90040000D02*
X113760000Y-90040000D01*
X114410000Y-90040000D02*
X116085000Y-90040000D01*
X114410000Y-86920000D02*
X115060000Y-86920000D01*
%TO.C,U5*%
X145290000Y-82640000D02*
X143950000Y-82640000D01*
X155510000Y-91910000D02*
X155510000Y-90960000D01*
X154560000Y-81690000D02*
X155510000Y-81690000D01*
X155510000Y-81690000D02*
X155510000Y-82640000D01*
X145290000Y-81690000D02*
X145290000Y-82640000D01*
X146240000Y-81690000D02*
X145290000Y-81690000D01*
X145290000Y-91910000D02*
X145290000Y-90960000D01*
X146240000Y-91910000D02*
X145290000Y-91910000D01*
X154560000Y-91910000D02*
X155510000Y-91910000D01*
%TO.C,D6*%
X133997500Y-80202500D02*
X133997500Y-78302500D01*
X131677500Y-78802500D02*
X131677500Y-80202500D01*
%TO.C,C49*%
X120940580Y-100710000D02*
X120659420Y-100710000D01*
X120940580Y-99690000D02*
X120659420Y-99690000D01*
%TO.C,R65*%
X137100000Y-79297776D02*
X137100000Y-79807224D01*
X136055000Y-79297776D02*
X136055000Y-79807224D01*
%TO.C,C11*%
X141480000Y-73552267D02*
X141480000Y-73259733D01*
X140460000Y-73552267D02*
X140460000Y-73259733D01*
%TO.C,C3*%
X141703080Y-96060000D02*
X141421920Y-96060000D01*
X141703080Y-95040000D02*
X141421920Y-95040000D01*
%TO.C,C53*%
X120965580Y-99160000D02*
X120684420Y-99160000D01*
X120965580Y-98140000D02*
X120684420Y-98140000D01*
%TO.C,J1*%
X98705000Y-84390000D02*
X98705000Y-83800000D01*
X96605000Y-73680000D02*
X98705000Y-73680000D01*
X100925000Y-73680000D02*
X100925000Y-73090000D01*
X100925000Y-84390000D02*
X100925000Y-83800000D01*
X96605000Y-83800000D02*
X96605000Y-73680000D01*
X96605000Y-83800000D02*
X98705000Y-83800000D01*
X105825000Y-83800000D02*
X105825000Y-73680000D01*
X100925000Y-73680000D02*
X105825000Y-73680000D01*
X98705000Y-73680000D02*
X98705000Y-73090000D01*
X100925000Y-83800000D02*
X105825000Y-83800000D01*
X98705000Y-84390000D02*
G75*
G03*
X100925000Y-84390000I1110000J0D01*
G01*
X100925000Y-73090000D02*
G75*
G03*
X98705000Y-73090000I-1110000J0D01*
G01*
%TO.C,D3*%
X137060000Y-87755000D02*
X134600000Y-87755000D01*
X134600000Y-87755000D02*
X134600000Y-89225000D01*
X134600000Y-89225000D02*
X137060000Y-89225000D01*
%TO.C,R58*%
X169662500Y-89267258D02*
X169662500Y-88792742D01*
X168617500Y-89267258D02*
X168617500Y-88792742D01*
%TO.C,C7*%
X120820000Y-85146267D02*
X120820000Y-84853733D01*
X119800000Y-85146267D02*
X119800000Y-84853733D01*
%TO.C,FB3*%
X178013641Y-75670000D02*
X177706359Y-75670000D01*
X178013641Y-74910000D02*
X177706359Y-74910000D01*
%TO.C,R20*%
X125591742Y-86569500D02*
X126066258Y-86569500D01*
X125591742Y-87614500D02*
X126066258Y-87614500D01*
%TO.C,J6*%
X156902400Y-75219300D02*
X156902400Y-77069300D01*
X164702400Y-77069300D02*
X164252400Y-77069300D01*
X156902400Y-77069300D02*
X157352400Y-77069300D01*
X162502400Y-77619300D02*
X162052400Y-77619300D01*
X156902400Y-72669300D02*
X156902400Y-72919300D01*
X162502400Y-77619300D02*
X162502400Y-77169300D01*
X164702400Y-72669300D02*
X164702400Y-72919300D01*
X164702400Y-75219300D02*
X164702400Y-77069300D01*
%TO.C,C26*%
X139127500Y-80751920D02*
X139127500Y-81033080D01*
X140147500Y-80751920D02*
X140147500Y-81033080D01*
%TO.C,Q10*%
X108864400Y-100975600D02*
X110539400Y-100975600D01*
X108864400Y-100975600D02*
X108214400Y-100975600D01*
X108864400Y-97855600D02*
X109514400Y-97855600D01*
X108864400Y-97855600D02*
X108214400Y-97855600D01*
%TO.C,Y2*%
X139700000Y-84500000D02*
X139700000Y-88500000D01*
X143000000Y-84500000D02*
X139700000Y-84500000D01*
%TO.C,C22*%
X141546267Y-88890000D02*
X141253733Y-88890000D01*
X141546267Y-89910000D02*
X141253733Y-89910000D01*
%TO.C,C12*%
X185889600Y-75643967D02*
X185889600Y-75351433D01*
X186909600Y-75643967D02*
X186909600Y-75351433D01*
%TO.C,R51*%
X112284742Y-95235500D02*
X112759258Y-95235500D01*
X112284742Y-96280500D02*
X112759258Y-96280500D01*
%TO.C,AE1*%
X126280000Y-74075000D02*
X126280000Y-77675000D01*
X118920000Y-74075000D02*
X118920000Y-77675000D01*
X120800000Y-72195000D02*
X124400000Y-72195000D01*
X120800000Y-79555000D02*
X124400000Y-79555000D01*
%TO.C,R25*%
X162427500Y-80845276D02*
X162427500Y-81354724D01*
X163472500Y-80845276D02*
X163472500Y-81354724D01*
%TO.C,C40*%
X178150000Y-91939420D02*
X178150000Y-92220580D01*
X179170000Y-91939420D02*
X179170000Y-92220580D01*
%TO.C,D13*%
X127360000Y-80250000D02*
X126160000Y-80250000D01*
X127360000Y-82100000D02*
X127360000Y-80250000D01*
X126160000Y-82100000D02*
X126160000Y-80250000D01*
%TO.C,R55*%
X176686359Y-76010000D02*
X176993641Y-76010000D01*
X176686359Y-76770000D02*
X176993641Y-76770000D01*
%TO.C,R12*%
X159627500Y-84137742D02*
X159627500Y-84612258D01*
X160672500Y-84137742D02*
X160672500Y-84612258D01*
%TO.C,Q5*%
X108407200Y-89168800D02*
X107757200Y-89168800D01*
X108407200Y-89168800D02*
X109057200Y-89168800D01*
X108407200Y-92288800D02*
X107757200Y-92288800D01*
X108407200Y-92288800D02*
X110082200Y-92288800D01*
%TO.C,R60*%
X123187500Y-81867258D02*
X123187500Y-81392742D01*
X124232500Y-81867258D02*
X124232500Y-81392742D01*
%TO.C,TP5*%
X111125000Y-92175000D02*
X111125000Y-90775000D01*
X111125000Y-90775000D02*
X112525000Y-90775000D01*
X112525000Y-90775000D02*
X112525000Y-92175000D01*
X112525000Y-92175000D02*
X111125000Y-92175000D01*
%TO.C,FB2*%
X138607500Y-80729721D02*
X138607500Y-81055279D01*
X137587500Y-80729721D02*
X137587500Y-81055279D01*
%TO.C,TP3*%
X131380000Y-85660000D02*
X132780000Y-85660000D01*
X132780000Y-87060000D02*
X131380000Y-87060000D01*
X132780000Y-85660000D02*
X132780000Y-87060000D01*
X131380000Y-87060000D02*
X131380000Y-85660000D01*
D18*
%TO.C,J4*%
X138222500Y-76347500D02*
X138222500Y-75097500D01*
X136972500Y-72297500D02*
X128722500Y-72297500D01*
X138222500Y-76347500D02*
X136622500Y-76347500D01*
X127472500Y-76347500D02*
X127472500Y-75097500D01*
X127472500Y-76347500D02*
X129072500Y-76347500D01*
D12*
X138980000Y-76597500D02*
G75*
G03*
X138980000Y-76597500I-100000J0D01*
G01*
D17*
%TO.C,R10*%
X185837300Y-78938658D02*
X185837300Y-78464142D01*
X186882300Y-78938658D02*
X186882300Y-78464142D01*
%TO.C,R24*%
X160877500Y-81354724D02*
X160877500Y-80845276D01*
X161922500Y-81354724D02*
X161922500Y-80845276D01*
%TO.C,R67*%
X130115000Y-79297776D02*
X130115000Y-79807224D01*
X131160000Y-79297776D02*
X131160000Y-79807224D01*
D11*
%TO.C,D10*%
X181160000Y-77355000D02*
G75*
G03*
X181160000Y-77355000I-50000J0D01*
G01*
D17*
%TO.C,R29*%
X104834458Y-84110300D02*
X104359942Y-84110300D01*
X104834458Y-85155300D02*
X104359942Y-85155300D01*
%TO.C,C2*%
X141703080Y-90440000D02*
X141421920Y-90440000D01*
X141703080Y-91460000D02*
X141421920Y-91460000D01*
%TO.C,Q9*%
X108864400Y-94401200D02*
X109514400Y-94401200D01*
X108864400Y-97521200D02*
X110539400Y-97521200D01*
X108864400Y-94401200D02*
X108214400Y-94401200D01*
X108864400Y-97521200D02*
X108214400Y-97521200D01*
%TO.C,R33*%
X141337742Y-99047500D02*
X141812258Y-99047500D01*
X141337742Y-98002500D02*
X141812258Y-98002500D01*
%TO.C,C10*%
X139956000Y-73552267D02*
X139956000Y-73259733D01*
X138936000Y-73552267D02*
X138936000Y-73259733D01*
%TO.C,C41*%
X122420000Y-97775000D02*
X137960000Y-97775000D01*
X137960000Y-97775000D02*
X137960000Y-89365000D01*
X137960000Y-89365000D02*
X122420000Y-89365000D01*
X122420000Y-89365000D02*
X122420000Y-97775000D01*
%TO.C,Q4*%
X108455700Y-85612800D02*
X107805700Y-85612800D01*
X108455700Y-85612800D02*
X109105700Y-85612800D01*
X108455700Y-88732800D02*
X110130700Y-88732800D01*
X108455700Y-88732800D02*
X107805700Y-88732800D01*
%TO.C,Y1*%
X142525000Y-82825000D02*
X142525000Y-81475000D01*
X140775000Y-82825000D02*
X140775000Y-81475000D01*
%TO.C,C39*%
X180720000Y-91939420D02*
X180720000Y-92220580D01*
X179700000Y-91939420D02*
X179700000Y-92220580D01*
%TO.C,R11*%
X161602500Y-84112742D02*
X161602500Y-84587258D01*
X162647500Y-84112742D02*
X162647500Y-84587258D01*
%TO.C,G\u002A\u002A\u002A*%
G36*
X157234130Y-99435175D02*
G01*
X157234385Y-99436147D01*
X157228974Y-99464747D01*
X157213852Y-99537351D01*
X157190679Y-99646169D01*
X157161120Y-99783412D01*
X157126835Y-99941290D01*
X157115073Y-99995189D01*
X157079624Y-100158032D01*
X157048363Y-100302729D01*
X157022955Y-100421495D01*
X157005061Y-100506545D01*
X156996343Y-100550094D01*
X156995762Y-100554001D01*
X156972487Y-100562523D01*
X156915557Y-100566617D01*
X156906642Y-100566680D01*
X156846930Y-100562340D01*
X156826413Y-100541844D01*
X156829654Y-100503209D01*
X156841787Y-100439738D01*
X156689673Y-100516466D01*
X156565026Y-100570185D01*
X156465568Y-100589172D01*
X156377615Y-100574754D01*
X156326632Y-100551692D01*
X156279917Y-100516421D01*
X156248615Y-100465789D01*
X156232741Y-100393990D01*
X156232309Y-100295214D01*
X156247332Y-100163654D01*
X156277824Y-99993503D01*
X156323799Y-99778953D01*
X156328527Y-99758017D01*
X156400607Y-99439854D01*
X156486076Y-99431545D01*
X156544189Y-99432700D01*
X156571288Y-99446642D01*
X156571545Y-99448588D01*
X156565948Y-99482559D01*
X156550614Y-99557879D01*
X156527728Y-99664229D01*
X156499473Y-99791290D01*
X156492005Y-99824300D01*
X156450585Y-100018023D01*
X156425032Y-100166696D01*
X156414900Y-100275728D01*
X156419743Y-100350525D01*
X156439113Y-100396494D01*
X156444280Y-100402296D01*
X156508485Y-100432239D01*
X156593588Y-100426710D01*
X156687002Y-100391357D01*
X156776140Y-100331825D01*
X156848415Y-100253761D01*
X156874381Y-100209365D01*
X156895783Y-100150154D01*
X156924020Y-100052142D01*
X156955550Y-99928530D01*
X156986832Y-99792518D01*
X156989374Y-99780773D01*
X157062763Y-99439854D01*
X157148574Y-99431545D01*
X157206936Y-99429362D01*
X157234130Y-99435175D01*
G37*
G36*
X144440342Y-99002856D02*
G01*
X144551020Y-99004865D01*
X144623975Y-99009275D01*
X144666858Y-99016953D01*
X144687319Y-99028768D01*
X144693009Y-99045590D01*
X144693060Y-99048779D01*
X144688170Y-99093305D01*
X144668949Y-99124379D01*
X144627195Y-99144708D01*
X144554712Y-99157002D01*
X144443299Y-99163967D01*
X144334557Y-99167200D01*
X144017449Y-99174718D01*
X143975478Y-99373851D01*
X143952483Y-99481152D01*
X143931268Y-99577063D01*
X143916142Y-99642140D01*
X143915278Y-99645615D01*
X143897049Y-99718246D01*
X144458366Y-99718246D01*
X144449977Y-99791159D01*
X144441587Y-99864071D01*
X144151154Y-99877328D01*
X143860721Y-99890584D01*
X143803797Y-100158070D01*
X143771157Y-100311870D01*
X143746901Y-100421432D01*
X143727623Y-100494218D01*
X143709921Y-100537689D01*
X143690389Y-100559307D01*
X143665623Y-100566534D01*
X143632218Y-100566832D01*
X143617375Y-100566680D01*
X143555133Y-100562020D01*
X143533823Y-100543587D01*
X143536640Y-100520282D01*
X143545650Y-100482712D01*
X143564194Y-100400649D01*
X143590650Y-100281437D01*
X143623396Y-100132424D01*
X143660810Y-99960955D01*
X143699076Y-99784530D01*
X143739421Y-99598568D01*
X143776642Y-99428104D01*
X143809116Y-99280487D01*
X143835220Y-99163061D01*
X143853331Y-99083172D01*
X143861643Y-99048779D01*
X143871547Y-99031015D01*
X143894547Y-99018422D01*
X143938551Y-99010130D01*
X144011470Y-99005272D01*
X144121215Y-99002978D01*
X144275694Y-99002381D01*
X144284292Y-99002380D01*
X144440342Y-99002856D01*
G37*
G36*
X153881477Y-95451676D02*
G01*
X153948530Y-95458718D01*
X153973215Y-95471507D01*
X153973215Y-95471523D01*
X153967632Y-95502466D01*
X153951651Y-95579888D01*
X153926430Y-95698514D01*
X153893124Y-95853070D01*
X153852889Y-96038281D01*
X153806881Y-96248873D01*
X153756255Y-96479569D01*
X153702169Y-96725098D01*
X153645777Y-96980182D01*
X153588236Y-97239549D01*
X153530701Y-97497923D01*
X153474328Y-97750029D01*
X153455093Y-97835783D01*
X153414406Y-98017038D01*
X153377027Y-98183624D01*
X153344699Y-98327756D01*
X153319170Y-98441652D01*
X153302184Y-98517528D01*
X153296053Y-98545021D01*
X153287862Y-98570746D01*
X153270549Y-98587763D01*
X153234635Y-98597867D01*
X153170643Y-98602855D01*
X153069096Y-98604523D01*
X152981206Y-98604676D01*
X152679561Y-98604676D01*
X152743858Y-98306399D01*
X152772832Y-98173665D01*
X152809813Y-98006728D01*
X152850902Y-97823059D01*
X152892199Y-97640129D01*
X152911025Y-97557390D01*
X152944108Y-97411323D01*
X152985873Y-97225184D01*
X153033711Y-97010713D01*
X153085009Y-96779647D01*
X153137156Y-96543726D01*
X153187541Y-96314687D01*
X153191901Y-96294804D01*
X153369909Y-95482949D01*
X153529627Y-95466255D01*
X153661675Y-95455321D01*
X153782409Y-95450503D01*
X153881477Y-95451676D01*
G37*
G36*
X149276231Y-99147884D02*
G01*
X149271501Y-99177426D01*
X149256924Y-99237116D01*
X149240881Y-99316768D01*
X149239006Y-99327171D01*
X149221385Y-99426597D01*
X149575485Y-99426597D01*
X149567096Y-99499509D01*
X149560115Y-99537498D01*
X149542086Y-99559922D01*
X149501011Y-99571699D01*
X149424894Y-99577742D01*
X149370303Y-99580134D01*
X149181900Y-99587847D01*
X149109910Y-99915417D01*
X149073106Y-100095076D01*
X149052415Y-100229780D01*
X149047914Y-100325122D01*
X149059682Y-100386691D01*
X149087797Y-100420078D01*
X149117121Y-100429658D01*
X149186721Y-100425851D01*
X149258060Y-100405834D01*
X149318916Y-100387115D01*
X149359031Y-100398091D01*
X149379570Y-100415952D01*
X149399146Y-100441531D01*
X149392375Y-100463500D01*
X149351536Y-100490230D01*
X149278401Y-100525686D01*
X149153234Y-100574928D01*
X149056361Y-100589633D01*
X148976192Y-100570216D01*
X148925956Y-100538243D01*
X148886061Y-100494246D01*
X148863053Y-100433525D01*
X148856889Y-100348874D01*
X148867525Y-100233087D01*
X148894917Y-100078961D01*
X148922380Y-99951727D01*
X148954640Y-99807674D01*
X148975064Y-99707443D01*
X148983301Y-99643090D01*
X148979002Y-99606669D01*
X148961819Y-99590234D01*
X148931402Y-99585840D01*
X148906287Y-99585678D01*
X148850081Y-99579782D01*
X148836128Y-99557927D01*
X148840003Y-99543740D01*
X148854583Y-99484013D01*
X148856096Y-99464199D01*
X148880399Y-99435289D01*
X148946563Y-99426597D01*
X149006588Y-99421796D01*
X149036235Y-99397056D01*
X149052158Y-99336867D01*
X149053920Y-99326629D01*
X149074489Y-99235483D01*
X149104819Y-99183047D01*
X149156267Y-99155028D01*
X149198493Y-99144683D01*
X149256740Y-99136390D01*
X149276231Y-99147884D01*
G37*
G36*
X154991809Y-99966392D02*
G01*
X155028017Y-99803357D01*
X155060373Y-99659219D01*
X155087168Y-99541827D01*
X155100160Y-99486252D01*
X155125541Y-99441270D01*
X155182210Y-99426779D01*
X155193345Y-99426597D01*
X155249338Y-99433224D01*
X155269973Y-99464373D01*
X155272380Y-99506138D01*
X155277046Y-99563071D01*
X155297554Y-99581306D01*
X155343670Y-99563063D01*
X155391284Y-99533168D01*
X155510560Y-99478130D01*
X155634734Y-99460421D01*
X155751856Y-99478008D01*
X155849976Y-99528857D01*
X155917144Y-99610934D01*
X155922917Y-99623643D01*
X155955079Y-99759859D01*
X155953408Y-99920021D01*
X155920190Y-100089252D01*
X155857713Y-100252672D01*
X155814265Y-100330661D01*
X155716583Y-100441415D01*
X155588273Y-100524110D01*
X155443097Y-100574046D01*
X155294815Y-100586523D01*
X155157184Y-100556842D01*
X155154870Y-100555885D01*
X155090696Y-100530972D01*
X155051980Y-100519569D01*
X155047444Y-100519934D01*
X155040019Y-100547456D01*
X155025407Y-100612050D01*
X155009657Y-100685992D01*
X154979511Y-100828463D01*
X154956174Y-100927031D01*
X154935979Y-100989775D01*
X154915256Y-101024774D01*
X154890338Y-101040107D01*
X154857556Y-101043852D01*
X154847141Y-101043925D01*
X154788009Y-101033361D01*
X154768623Y-101008874D01*
X154774104Y-100977286D01*
X154789409Y-100901792D01*
X154812828Y-100790240D01*
X154842652Y-100650481D01*
X154877172Y-100490367D01*
X154914677Y-100317747D01*
X154922901Y-100280156D01*
X155113753Y-100280156D01*
X155135948Y-100354178D01*
X155196253Y-100405371D01*
X155283636Y-100430830D01*
X155387065Y-100427651D01*
X155495508Y-100392927D01*
X155511416Y-100384876D01*
X155593767Y-100316119D01*
X155668206Y-100208723D01*
X155727104Y-100077077D01*
X155762833Y-99935570D01*
X155767006Y-99902802D01*
X155772351Y-99810534D01*
X155762301Y-99748820D01*
X155732648Y-99696381D01*
X155723972Y-99685104D01*
X155647579Y-99627214D01*
X155550736Y-99611122D01*
X155443564Y-99635301D01*
X155336185Y-99698220D01*
X155277111Y-99752598D01*
X155239904Y-99812599D01*
X155200012Y-99908375D01*
X155162597Y-100023258D01*
X155132819Y-100140581D01*
X155115839Y-100243675D01*
X155113753Y-100280156D01*
X154922901Y-100280156D01*
X154953460Y-100140472D01*
X154991809Y-99966392D01*
G37*
G36*
X165042631Y-98604676D02*
G01*
X164658693Y-98604676D01*
X164651810Y-97332695D01*
X164644927Y-96060713D01*
X164525616Y-96155358D01*
X164413829Y-96236259D01*
X164277184Y-96323848D01*
X164135094Y-96406507D01*
X164006970Y-96472618D01*
X163962203Y-96492567D01*
X163862777Y-96533912D01*
X163862777Y-96338200D01*
X163864335Y-96236241D01*
X163871093Y-96175112D01*
X163886176Y-96142657D01*
X163912712Y-96126718D01*
X163917581Y-96125094D01*
X163961853Y-96103510D01*
X164037861Y-96059060D01*
X164133657Y-95998936D01*
X164206365Y-95951193D01*
X164358356Y-95839755D01*
X164500965Y-95717153D01*
X164623792Y-95593502D01*
X164716439Y-95478917D01*
X164752639Y-95419843D01*
X164783515Y-95372582D01*
X164824141Y-95350155D01*
X164893691Y-95343676D01*
X164917372Y-95343507D01*
X165042631Y-95343507D01*
X165042631Y-98604676D01*
G37*
G36*
X145346675Y-95559496D02*
G01*
X145575394Y-95586679D01*
X145674636Y-95603038D01*
X145752109Y-95621001D01*
X145793878Y-95637201D01*
X145796890Y-95640191D01*
X145797182Y-95675821D01*
X145784220Y-95748401D01*
X145760626Y-95844289D01*
X145751340Y-95877384D01*
X145719871Y-95981325D01*
X145695908Y-96043005D01*
X145674046Y-96071597D01*
X145648880Y-96076271D01*
X145635898Y-96073271D01*
X145395158Y-96014868D01*
X145173123Y-95985606D01*
X144975698Y-95985308D01*
X144808789Y-96013796D01*
X144678302Y-96070892D01*
X144635779Y-96103361D01*
X144581954Y-96180969D01*
X144548685Y-96285999D01*
X144542749Y-96394668D01*
X144546070Y-96418254D01*
X144571526Y-96497224D01*
X144621020Y-96572374D01*
X144700952Y-96650079D01*
X144817724Y-96736712D01*
X144953273Y-96823695D01*
X145155399Y-96958596D01*
X145310025Y-97088160D01*
X145421381Y-97218694D01*
X145493699Y-97356510D01*
X145531212Y-97507914D01*
X145538149Y-97679218D01*
X145537473Y-97694727D01*
X145503478Y-97922399D01*
X145426688Y-98120554D01*
X145309134Y-98287999D01*
X145152850Y-98423541D01*
X144959867Y-98525989D01*
X144732217Y-98594150D01*
X144471934Y-98626832D01*
X144181049Y-98622841D01*
X143990856Y-98602091D01*
X143803934Y-98572121D01*
X143651406Y-98540711D01*
X143538008Y-98509155D01*
X143468480Y-98478753D01*
X143447328Y-98453273D01*
X143454614Y-98403428D01*
X143473389Y-98327014D01*
X143499032Y-98238763D01*
X143526923Y-98153408D01*
X143552438Y-98085682D01*
X143570956Y-98050319D01*
X143574390Y-98048221D01*
X143606645Y-98055021D01*
X143677563Y-98072986D01*
X143774762Y-98098923D01*
X143831589Y-98114505D01*
X144045785Y-98161282D01*
X144249169Y-98181945D01*
X144431589Y-98176413D01*
X144582895Y-98144608D01*
X144639897Y-98120804D01*
X144755830Y-98044920D01*
X144828319Y-97952322D01*
X144865613Y-97830361D01*
X144873061Y-97763227D01*
X144873039Y-97665978D01*
X144854158Y-97582914D01*
X144810641Y-97506283D01*
X144736713Y-97428334D01*
X144626598Y-97341314D01*
X144487824Y-97246224D01*
X144294202Y-97112011D01*
X144144675Y-96991510D01*
X144034363Y-96878100D01*
X143958387Y-96765162D01*
X143911868Y-96646076D01*
X143889926Y-96514220D01*
X143886544Y-96430411D01*
X143908488Y-96224287D01*
X143977670Y-96041323D01*
X144095668Y-95877903D01*
X144152465Y-95821253D01*
X144291426Y-95712982D01*
X144447044Y-95631785D01*
X144624848Y-95576749D01*
X144830369Y-95546963D01*
X145069135Y-95541516D01*
X145346675Y-95559496D01*
G37*
G36*
X151787205Y-99884786D02*
G01*
X151858670Y-99744266D01*
X151950941Y-99626336D01*
X152027814Y-99562458D01*
X152164112Y-99495277D01*
X152308672Y-99463281D01*
X152448851Y-99466537D01*
X152572009Y-99505109D01*
X152647658Y-99559286D01*
X152707458Y-99654079D01*
X152736528Y-99779513D01*
X152736179Y-99923975D01*
X152707723Y-100075856D01*
X152652473Y-100223543D01*
X152571739Y-100355426D01*
X152555422Y-100375620D01*
X152441011Y-100475978D01*
X152300102Y-100546107D01*
X152147875Y-100581510D01*
X151999510Y-100577694D01*
X151932589Y-100560061D01*
X151853762Y-100513432D01*
X151784065Y-100442886D01*
X151777842Y-100434113D01*
X151731865Y-100322558D01*
X151720381Y-100185864D01*
X151725459Y-100147005D01*
X151910414Y-100147005D01*
X151913414Y-100262942D01*
X151952317Y-100353802D01*
X151960108Y-100364253D01*
X152034908Y-100419711D01*
X152132476Y-100434841D01*
X152240733Y-100409287D01*
X152305568Y-100374429D01*
X152399828Y-100284210D01*
X152475530Y-100158033D01*
X152525201Y-100011800D01*
X152541483Y-99872573D01*
X152529404Y-99747769D01*
X152490715Y-99666022D01*
X152421738Y-99622575D01*
X152340093Y-99612192D01*
X152213802Y-99637362D01*
X152103901Y-99710969D01*
X152013322Y-99830162D01*
X151944995Y-99992086D01*
X151942977Y-99998711D01*
X151910414Y-100147005D01*
X151725459Y-100147005D01*
X151739968Y-100035962D01*
X151787205Y-99884786D01*
G37*
G36*
X161697480Y-96503476D02*
G01*
X161703468Y-96566935D01*
X161711419Y-96673634D01*
X161720702Y-96813851D01*
X161730684Y-96977863D01*
X161740732Y-97155946D01*
X161744472Y-97225971D01*
X161754361Y-97398984D01*
X161764759Y-97554280D01*
X161775016Y-97684011D01*
X161784481Y-97780325D01*
X161792505Y-97835372D01*
X161795721Y-97844910D01*
X161813104Y-97828266D01*
X161853080Y-97770601D01*
X161912407Y-97677199D01*
X161987840Y-97553348D01*
X162076138Y-97404331D01*
X162174056Y-97235434D01*
X162232069Y-97133811D01*
X162334811Y-96954196D01*
X162430343Y-96789743D01*
X162515284Y-96646077D01*
X162586250Y-96528822D01*
X162639861Y-96443601D01*
X162672734Y-96396037D01*
X162680596Y-96388017D01*
X162718900Y-96383682D01*
X162797938Y-96381427D01*
X162905452Y-96381429D01*
X163006527Y-96383250D01*
X163300374Y-96390793D01*
X162766283Y-97240488D01*
X162638052Y-97444362D01*
X162511676Y-97645045D01*
X162391615Y-97835469D01*
X162282332Y-98008566D01*
X162188290Y-98157267D01*
X162113951Y-98274504D01*
X162067480Y-98347429D01*
X161902767Y-98604676D01*
X161622545Y-98604676D01*
X161484036Y-98602500D01*
X161393026Y-98595563D01*
X161344151Y-98583252D01*
X161332256Y-98571534D01*
X161327005Y-98538412D01*
X161316483Y-98458691D01*
X161301430Y-98338460D01*
X161282589Y-98183806D01*
X161260701Y-98000816D01*
X161236506Y-97795577D01*
X161210748Y-97574177D01*
X161210340Y-97570647D01*
X161184244Y-97344920D01*
X161159579Y-97131669D01*
X161137125Y-96937649D01*
X161117666Y-96769614D01*
X161101983Y-96634320D01*
X161090860Y-96538523D01*
X161085223Y-96490219D01*
X161071956Y-96377536D01*
X161681833Y-96377536D01*
X161697480Y-96503476D01*
G37*
G36*
X157219056Y-97685911D02*
G01*
X157355153Y-97554042D01*
X157537802Y-97444035D01*
X157767570Y-97355558D01*
X158045028Y-97288280D01*
X158370745Y-97241869D01*
X158421455Y-97236903D01*
X158517397Y-97225137D01*
X158590989Y-97210767D01*
X158627747Y-97196698D01*
X158628921Y-97195292D01*
X158639695Y-97157242D01*
X158651568Y-97085115D01*
X158658322Y-97028707D01*
X158664295Y-96941889D01*
X158655927Y-96886569D01*
X158627690Y-96841958D01*
X158601227Y-96813994D01*
X158561380Y-96777695D01*
X158522368Y-96757293D01*
X158468932Y-96749475D01*
X158385810Y-96750927D01*
X158325988Y-96754235D01*
X158180327Y-96770836D01*
X158038236Y-96806132D01*
X157889709Y-96860176D01*
X157780054Y-96903227D01*
X157709168Y-96927031D01*
X157667216Y-96933550D01*
X157644366Y-96924744D01*
X157634738Y-96911037D01*
X157612414Y-96858739D01*
X157585644Y-96784208D01*
X157559487Y-96703456D01*
X157539002Y-96632495D01*
X157529250Y-96587337D01*
X157529961Y-96579452D01*
X157557600Y-96566656D01*
X157619744Y-96540375D01*
X157685115Y-96513555D01*
X157910400Y-96435514D01*
X158146551Y-96377414D01*
X158380409Y-96341146D01*
X158598813Y-96328598D01*
X158788606Y-96341662D01*
X158829888Y-96349120D01*
X159001573Y-96405403D01*
X159131209Y-96493971D01*
X159218861Y-96614911D01*
X159264590Y-96768312D01*
X159268462Y-96954261D01*
X159268422Y-96954729D01*
X159258831Y-97025921D01*
X159238953Y-97141406D01*
X159210298Y-97293781D01*
X159174377Y-97475641D01*
X159132700Y-97679582D01*
X159086779Y-97898200D01*
X159038124Y-98124090D01*
X158988246Y-98349848D01*
X158943967Y-98545021D01*
X158935379Y-98571050D01*
X158917508Y-98588146D01*
X158880713Y-98598181D01*
X158815354Y-98603030D01*
X158711791Y-98604565D01*
X158636992Y-98604676D01*
X158343741Y-98604676D01*
X158362086Y-98521155D01*
X158370075Y-98465043D01*
X158357510Y-98449507D01*
X158344307Y-98453373D01*
X158192218Y-98517974D01*
X158074308Y-98562980D01*
X157977161Y-98592172D01*
X157887361Y-98609330D01*
X157791492Y-98618238D01*
X157752523Y-98620169D01*
X157635887Y-98620877D01*
X157525969Y-98614460D01*
X157444527Y-98602275D01*
X157437666Y-98600481D01*
X157303482Y-98536670D01*
X157195900Y-98433502D01*
X157120587Y-98300339D01*
X157083210Y-98146545D01*
X157084237Y-98016563D01*
X157088619Y-97999252D01*
X157691799Y-97999252D01*
X157693423Y-98079320D01*
X157733957Y-98155685D01*
X157740067Y-98163627D01*
X157782085Y-98206375D01*
X157833091Y-98227054D01*
X157913097Y-98232877D01*
X157932290Y-98232904D01*
X158040860Y-98221966D01*
X158146364Y-98194994D01*
X158175616Y-98183220D01*
X158319249Y-98089245D01*
X158426556Y-97956963D01*
X158497808Y-97785995D01*
X158518134Y-97696587D01*
X158535952Y-97597161D01*
X158421010Y-97597161D01*
X158261396Y-97611095D01*
X158102954Y-97649513D01*
X157957352Y-97707339D01*
X157836253Y-97779499D01*
X157751324Y-97860916D01*
X157728336Y-97898541D01*
X157691799Y-97999252D01*
X157088619Y-97999252D01*
X157128940Y-97839974D01*
X157219056Y-97685911D01*
G37*
G36*
X150518056Y-96824076D02*
G01*
X150678390Y-96646028D01*
X150856979Y-96505213D01*
X150965359Y-96444623D01*
X151162131Y-96373374D01*
X151373920Y-96335436D01*
X151586795Y-96331131D01*
X151786821Y-96360783D01*
X151954209Y-96421691D01*
X152100427Y-96521240D01*
X152208649Y-96652503D01*
X152279608Y-96817394D01*
X152314034Y-97017828D01*
X152312662Y-97255721D01*
X152304891Y-97339086D01*
X152292681Y-97449973D01*
X152283078Y-97539809D01*
X152277369Y-97596422D01*
X152276347Y-97609372D01*
X152250962Y-97613109D01*
X152179322Y-97616481D01*
X152068197Y-97619356D01*
X151924360Y-97621601D01*
X151754580Y-97623084D01*
X151565630Y-97623670D01*
X151547729Y-97623674D01*
X150819111Y-97623674D01*
X150802079Y-97691536D01*
X150790611Y-97823792D01*
X150816820Y-97954014D01*
X150876121Y-98062895D01*
X150895319Y-98084258D01*
X150935497Y-98122321D01*
X150972522Y-98146489D01*
X151019412Y-98159918D01*
X151089187Y-98165761D01*
X151194865Y-98167172D01*
X151237700Y-98167202D01*
X151361080Y-98165972D01*
X151450051Y-98159564D01*
X151523225Y-98143907D01*
X151599208Y-98114928D01*
X151696610Y-98068554D01*
X151703105Y-98065346D01*
X151796394Y-98020623D01*
X151869682Y-97988127D01*
X151911682Y-97972747D01*
X151917259Y-97972548D01*
X151932328Y-97999050D01*
X151964200Y-98060074D01*
X152006104Y-98142644D01*
X152007928Y-98146282D01*
X152090470Y-98310957D01*
X151977928Y-98376870D01*
X151709456Y-98507694D01*
X151433733Y-98591658D01*
X151157392Y-98627467D01*
X150887063Y-98613828D01*
X150821593Y-98602619D01*
X150629811Y-98541417D01*
X150468201Y-98441484D01*
X150342089Y-98307412D01*
X150256800Y-98143793D01*
X150244200Y-98104824D01*
X150218671Y-97964499D01*
X150210360Y-97792521D01*
X150218389Y-97607080D01*
X150241881Y-97426366D01*
X150279958Y-97268569D01*
X150285312Y-97252484D01*
X150312425Y-97191391D01*
X150924155Y-97191391D01*
X150935848Y-97205358D01*
X150975176Y-97215241D01*
X151048510Y-97221599D01*
X151162224Y-97224989D01*
X151318958Y-97225971D01*
X151713761Y-97225971D01*
X151725497Y-97126545D01*
X151726793Y-96977159D01*
X151690824Y-96865437D01*
X151617404Y-96791135D01*
X151506348Y-96754009D01*
X151438519Y-96749316D01*
X151337832Y-96756947D01*
X151256126Y-96787623D01*
X151191993Y-96829357D01*
X151121411Y-96891638D01*
X151048977Y-96973227D01*
X150985057Y-97060114D01*
X150940017Y-97138289D01*
X150924155Y-97191391D01*
X150312425Y-97191391D01*
X150384267Y-97029510D01*
X150518056Y-96824076D01*
G37*
G36*
X155535310Y-95453545D02*
G01*
X155557373Y-95464759D01*
X155563644Y-95484136D01*
X155563833Y-95491965D01*
X155558066Y-95534279D01*
X155542283Y-95618089D01*
X155518542Y-95733259D01*
X155488903Y-95869652D01*
X155470089Y-95953319D01*
X155397135Y-96274732D01*
X155335681Y-96547591D01*
X155285075Y-96774960D01*
X155244664Y-96959902D01*
X155213795Y-97105478D01*
X155191817Y-97214752D01*
X155178077Y-97290787D01*
X155171922Y-97336645D01*
X155171897Y-97353109D01*
X155191368Y-97345555D01*
X155242517Y-97302752D01*
X155321279Y-97228623D01*
X155423590Y-97127093D01*
X155545387Y-97002084D01*
X155656827Y-96884939D01*
X156134071Y-96378382D01*
X156849441Y-96377536D01*
X156326046Y-96901422D01*
X156190066Y-97038270D01*
X156067232Y-97163308D01*
X155962324Y-97271555D01*
X155880121Y-97358033D01*
X155825404Y-97417759D01*
X155802952Y-97445755D01*
X155802652Y-97446785D01*
X155814431Y-97475395D01*
X155847501Y-97544164D01*
X155898461Y-97646323D01*
X155963911Y-97775100D01*
X156040450Y-97923729D01*
X156094301Y-98027327D01*
X156176053Y-98184406D01*
X156248959Y-98325192D01*
X156309636Y-98443097D01*
X156354705Y-98531535D01*
X156380783Y-98583917D01*
X156385950Y-98595534D01*
X156361111Y-98598998D01*
X156293286Y-98601860D01*
X156192518Y-98603842D01*
X156068848Y-98604668D01*
X156054633Y-98604676D01*
X155723316Y-98604676D01*
X155444736Y-98030300D01*
X155366605Y-97871392D01*
X155295454Y-97730827D01*
X155234629Y-97614880D01*
X155187476Y-97529830D01*
X155157343Y-97481951D01*
X155148118Y-97473963D01*
X155137114Y-97504199D01*
X155117320Y-97576779D01*
X155090910Y-97682165D01*
X155060056Y-97810819D01*
X155026931Y-97953204D01*
X154993707Y-98099782D01*
X154962559Y-98241016D01*
X154935659Y-98367367D01*
X154915179Y-98469298D01*
X154903293Y-98537272D01*
X154901190Y-98557811D01*
X154896332Y-98578052D01*
X154875876Y-98591500D01*
X154831002Y-98599510D01*
X154752890Y-98603439D01*
X154632718Y-98604642D01*
X154596284Y-98604676D01*
X154451427Y-98602717D01*
X154355252Y-98596552D01*
X154303549Y-98585751D01*
X154291378Y-98573480D01*
X154297009Y-98538971D01*
X154313072Y-98458910D01*
X154338330Y-98338839D01*
X154371540Y-98184299D01*
X154411463Y-98000832D01*
X154456858Y-97793979D01*
X154506486Y-97569282D01*
X154559105Y-97332282D01*
X154613476Y-97088521D01*
X154668359Y-96843541D01*
X154722512Y-96602882D01*
X154774696Y-96372086D01*
X154823671Y-96156696D01*
X154868196Y-95962252D01*
X154907031Y-95794295D01*
X154938935Y-95658368D01*
X154962669Y-95560012D01*
X154976992Y-95504768D01*
X154980462Y-95494703D01*
X155013170Y-95484607D01*
X155087020Y-95473821D01*
X155190171Y-95463805D01*
X155281592Y-95457566D01*
X155406697Y-95451079D01*
X155488177Y-95449362D01*
X155535310Y-95453545D01*
G37*
G36*
X145889679Y-99434648D02*
G01*
X145913088Y-99454028D01*
X145913090Y-99454234D01*
X145907708Y-99485677D01*
X145892895Y-99559562D01*
X145870655Y-99666554D01*
X145842989Y-99797314D01*
X145811900Y-99942505D01*
X145779391Y-100092791D01*
X145747463Y-100238834D01*
X145718119Y-100371297D01*
X145693362Y-100480843D01*
X145687318Y-100507025D01*
X145665084Y-100549810D01*
X145614775Y-100565661D01*
X145585303Y-100566680D01*
X145497147Y-100566680D01*
X145610242Y-100059757D01*
X145646210Y-99898928D01*
X145679126Y-99752485D01*
X145706911Y-99629608D01*
X145727490Y-99539483D01*
X145738786Y-99491291D01*
X145739177Y-99489715D01*
X145764741Y-99442421D01*
X145819446Y-99426913D01*
X145834055Y-99426597D01*
X145889679Y-99434648D01*
G37*
G36*
X157887076Y-99158320D02*
G01*
X157888076Y-99222534D01*
X157870456Y-99319830D01*
X157854253Y-99380198D01*
X157852822Y-99404330D01*
X157872955Y-99418331D01*
X157924783Y-99424863D01*
X158018434Y-99426587D01*
X158030842Y-99426597D01*
X158129651Y-99428160D01*
X158185096Y-99434391D01*
X158206789Y-99447606D01*
X158204967Y-99468536D01*
X158190410Y-99527413D01*
X158188873Y-99546915D01*
X158172778Y-99567984D01*
X158119647Y-99581813D01*
X158022209Y-99590096D01*
X157999010Y-99591145D01*
X157809147Y-99598935D01*
X157731885Y-99953765D01*
X157696664Y-100124375D01*
X157676235Y-100250284D01*
X157671021Y-100337835D01*
X157681445Y-100393369D01*
X157707930Y-100423229D01*
X157750898Y-100433758D01*
X157763914Y-100434113D01*
X157848726Y-100422686D01*
X157911132Y-100402478D01*
X157965743Y-100384382D01*
X157996102Y-100397547D01*
X158003427Y-100407841D01*
X158016389Y-100447088D01*
X157995942Y-100481653D01*
X157935155Y-100519562D01*
X157887324Y-100542345D01*
X157753379Y-100584313D01*
X157626825Y-100581277D01*
X157598586Y-100574848D01*
X157550840Y-100540148D01*
X157506758Y-100473563D01*
X157478031Y-100395622D01*
X157473007Y-100354310D01*
X157478821Y-100306799D01*
X157494985Y-100217005D01*
X157519582Y-100094232D01*
X157550694Y-99947785D01*
X157586405Y-99786970D01*
X157619083Y-99645334D01*
X157621727Y-99603362D01*
X157593197Y-99587545D01*
X157553053Y-99585678D01*
X157493198Y-99576388D01*
X157473553Y-99544574D01*
X157473413Y-99539280D01*
X157490728Y-99469311D01*
X157545765Y-99431585D01*
X157592284Y-99422361D01*
X157641867Y-99411256D01*
X157669950Y-99382544D01*
X157688041Y-99321239D01*
X157694042Y-99289860D01*
X157720567Y-99200527D01*
X157766902Y-99152834D01*
X157845165Y-99135955D01*
X157867033Y-99135310D01*
X157887076Y-99158320D01*
G37*
G36*
X147199595Y-96099144D02*
G01*
X147139484Y-96377536D01*
X147443880Y-96377536D01*
X147574381Y-96377871D01*
X147660475Y-96380055D01*
X147710780Y-96385858D01*
X147733915Y-96397050D01*
X147738498Y-96415400D01*
X147734422Y-96437192D01*
X147721180Y-96495955D01*
X147701859Y-96583629D01*
X147687739Y-96648494D01*
X147654909Y-96800141D01*
X147349676Y-96807575D01*
X147044444Y-96815010D01*
X146917097Y-97358538D01*
X146867553Y-97574277D01*
X146831098Y-97744813D01*
X146807057Y-97876157D01*
X146794758Y-97974317D01*
X146793527Y-98045303D01*
X146802691Y-98095122D01*
X146821578Y-98129786D01*
X146829702Y-98138795D01*
X146892803Y-98169797D01*
X146986651Y-98179059D01*
X147093587Y-98166486D01*
X147176574Y-98140689D01*
X147243478Y-98115005D01*
X147289219Y-98101515D01*
X147294587Y-98100918D01*
X147318119Y-98122780D01*
X147353518Y-98177739D01*
X147392473Y-98249852D01*
X147426673Y-98323179D01*
X147447807Y-98381778D01*
X147450877Y-98400687D01*
X147426058Y-98441940D01*
X147358238Y-98483713D01*
X147257375Y-98523810D01*
X147133426Y-98560037D01*
X146996348Y-98590201D01*
X146856099Y-98612106D01*
X146722635Y-98623559D01*
X146605913Y-98622364D01*
X146516646Y-98606575D01*
X146382191Y-98544185D01*
X146275535Y-98457743D01*
X146217402Y-98374315D01*
X146189718Y-98277154D01*
X146181876Y-98142203D01*
X146194099Y-97966982D01*
X146226609Y-97749015D01*
X146279630Y-97485822D01*
X146308693Y-97358538D01*
X146344729Y-97206121D01*
X146377415Y-97069436D01*
X146404505Y-96957761D01*
X146423750Y-96880374D01*
X146432363Y-96848152D01*
X146434150Y-96821693D01*
X146410962Y-96807668D01*
X146351933Y-96802336D01*
X146297537Y-96801754D01*
X146212870Y-96799689D01*
X146170216Y-96791004D01*
X146158642Y-96771966D01*
X146161671Y-96755355D01*
X146173631Y-96705536D01*
X146191002Y-96623082D01*
X146206678Y-96543246D01*
X146238152Y-96377536D01*
X146537683Y-96377536D01*
X146590458Y-96119201D01*
X146614054Y-96005983D01*
X146636956Y-95926752D01*
X146668403Y-95875308D01*
X146717634Y-95845451D01*
X146793889Y-95830980D01*
X146906408Y-95825694D01*
X147030501Y-95823888D01*
X147259707Y-95820751D01*
X147199595Y-96099144D01*
G37*
G36*
X153335923Y-99429938D02*
G01*
X153356434Y-99450670D01*
X153351102Y-99504859D01*
X153348939Y-99516509D01*
X153332071Y-99606421D01*
X153484041Y-99529766D01*
X153609919Y-99474789D01*
X153707226Y-99455301D01*
X153787163Y-99471714D01*
X153860930Y-99524445D01*
X153880752Y-99544442D01*
X153966889Y-99635773D01*
X154055523Y-99570380D01*
X154178182Y-99500826D01*
X154303040Y-99466475D01*
X154418671Y-99468171D01*
X154513647Y-99506758D01*
X154544706Y-99534252D01*
X154572566Y-99580776D01*
X154586157Y-99647531D01*
X154585060Y-99740838D01*
X154568859Y-99867018D01*
X154537135Y-100032390D01*
X154501123Y-100193612D01*
X154414369Y-100566680D01*
X154323524Y-100566680D01*
X154259513Y-100559146D01*
X154244444Y-100535985D01*
X154245253Y-100533538D01*
X154255375Y-100496951D01*
X154274704Y-100418753D01*
X154300809Y-100309067D01*
X154331260Y-100178016D01*
X154344350Y-100120839D01*
X154378961Y-99963946D01*
X154400964Y-99849774D01*
X154411451Y-99769816D01*
X154411518Y-99715567D01*
X154402257Y-99678520D01*
X154401464Y-99676736D01*
X154353004Y-99625880D01*
X154277908Y-99610770D01*
X154186723Y-99629341D01*
X154089992Y-99679529D01*
X154002322Y-99754873D01*
X153970396Y-99801152D01*
X153938998Y-99874327D01*
X153905492Y-99982103D01*
X153867243Y-100132187D01*
X153854073Y-100188238D01*
X153769514Y-100553424D01*
X153685770Y-100561732D01*
X153628360Y-100561143D01*
X153602183Y-100548469D01*
X153602025Y-100547071D01*
X153607674Y-100514057D01*
X153623157Y-100439579D01*
X153646281Y-100333818D01*
X153674851Y-100206955D01*
X153683025Y-100171231D01*
X153722144Y-99989781D01*
X153745269Y-99852542D01*
X153752665Y-99753250D01*
X153744595Y-99685644D01*
X153721322Y-99643459D01*
X153705779Y-99630988D01*
X153635424Y-99614839D01*
X153544118Y-99631056D01*
X153448633Y-99674737D01*
X153380620Y-99726051D01*
X153343879Y-99764103D01*
X153314677Y-99806013D01*
X153289228Y-99861602D01*
X153263743Y-99940692D01*
X153234435Y-100053105D01*
X153202104Y-100188981D01*
X153113958Y-100566680D01*
X153023735Y-100566680D01*
X152959608Y-100558846D01*
X152944925Y-100534985D01*
X152945402Y-100533538D01*
X152954339Y-100498566D01*
X152972450Y-100419996D01*
X152997891Y-100306100D01*
X153028820Y-100165149D01*
X153063394Y-100005417D01*
X153072395Y-99963497D01*
X153187500Y-99426597D01*
X153276653Y-99426597D01*
X153335923Y-99429938D01*
G37*
G36*
X149787276Y-96342544D02*
G01*
X149873208Y-96352152D01*
X149917235Y-96367550D01*
X149917774Y-96368066D01*
X149925126Y-96395246D01*
X149911505Y-96447196D01*
X149874416Y-96530552D01*
X149811368Y-96651952D01*
X149810757Y-96653086D01*
X149754643Y-96755949D01*
X149708124Y-96838912D01*
X149676609Y-96892478D01*
X149665710Y-96907808D01*
X149638767Y-96898610D01*
X149581404Y-96875751D01*
X149562796Y-96868037D01*
X149411766Y-96830672D01*
X149258688Y-96838261D01*
X149115811Y-96887428D01*
X148995389Y-96974794D01*
X148942348Y-97039114D01*
X148917359Y-97079252D01*
X148894626Y-97124590D01*
X148872470Y-97181265D01*
X148849214Y-97255410D01*
X148823181Y-97353162D01*
X148792693Y-97480654D01*
X148756073Y-97644022D01*
X148711644Y-97849401D01*
X148679255Y-98001400D01*
X148551190Y-98604492D01*
X148249444Y-98604584D01*
X147947697Y-98604676D01*
X147963253Y-98518507D01*
X147978135Y-98442068D01*
X148001859Y-98327589D01*
X148032944Y-98181692D01*
X148069907Y-98010996D01*
X148111266Y-97822123D01*
X148155539Y-97621694D01*
X148201246Y-97416329D01*
X148246903Y-97212649D01*
X148291029Y-97017276D01*
X148332143Y-96836829D01*
X148368762Y-96677930D01*
X148399404Y-96547199D01*
X148422588Y-96451257D01*
X148436832Y-96396725D01*
X148440387Y-96386704D01*
X148473802Y-96376730D01*
X148544330Y-96368099D01*
X148638898Y-96361245D01*
X148744434Y-96356603D01*
X148847865Y-96354607D01*
X148936119Y-96355691D01*
X148996123Y-96360290D01*
X149015178Y-96367608D01*
X149008403Y-96407420D01*
X148991961Y-96472061D01*
X148990618Y-96476780D01*
X148978043Y-96545202D01*
X148993771Y-96572346D01*
X149040993Y-96559472D01*
X149103492Y-96521269D01*
X149261962Y-96426950D01*
X149412187Y-96370022D01*
X149575291Y-96343725D01*
X149670063Y-96339932D01*
X149787276Y-96342544D01*
G37*
G36*
X159910722Y-99429730D02*
G01*
X159931601Y-99449700D01*
X159926911Y-99502362D01*
X159923763Y-99519394D01*
X159920714Y-99584279D01*
X159937088Y-99614261D01*
X159966233Y-99601857D01*
X159980245Y-99582918D01*
X160020721Y-99549048D01*
X160093053Y-99511196D01*
X160177532Y-99477736D01*
X160254448Y-99457042D01*
X160283445Y-99454099D01*
X160364548Y-99463587D01*
X160398066Y-99494518D01*
X160386079Y-99549752D01*
X160371569Y-99575272D01*
X160322267Y-99631317D01*
X160266240Y-99643853D01*
X160260087Y-99643112D01*
X160122798Y-99649078D01*
X159997635Y-99703757D01*
X159945102Y-99746635D01*
X159910276Y-99785407D01*
X159881633Y-99831750D01*
X159855481Y-99895520D01*
X159828133Y-99986572D01*
X159795900Y-100114762D01*
X159776524Y-100197048D01*
X159690570Y-100566680D01*
X159599724Y-100566680D01*
X159535281Y-100558928D01*
X159520204Y-100535279D01*
X159520767Y-100533538D01*
X159529705Y-100498566D01*
X159547815Y-100419996D01*
X159573257Y-100306100D01*
X159604185Y-100165149D01*
X159638759Y-100005417D01*
X159647761Y-99963497D01*
X159762865Y-99426597D01*
X159852018Y-99426597D01*
X159910722Y-99429730D01*
G37*
G36*
X158632705Y-99587782D02*
G01*
X158772394Y-99502823D01*
X158795766Y-99493911D01*
X158955135Y-99458028D01*
X159091081Y-99467848D01*
X159199834Y-99519824D01*
X159277625Y-99610407D01*
X159320683Y-99736050D01*
X159325238Y-99893204D01*
X159312386Y-99980068D01*
X159295815Y-100062923D01*
X158566245Y-100062923D01*
X158552097Y-100135835D01*
X158547711Y-100247106D01*
X158576103Y-100341123D01*
X158622494Y-100395293D01*
X158707600Y-100426788D01*
X158820327Y-100429563D01*
X158944169Y-100404306D01*
X159010141Y-100379124D01*
X159082015Y-100348312D01*
X159122378Y-100339794D01*
X159147482Y-100352827D01*
X159163045Y-100372134D01*
X159178898Y-100404699D01*
X159164510Y-100433304D01*
X159112087Y-100470730D01*
X159097414Y-100479752D01*
X158924245Y-100559875D01*
X158748693Y-100588730D01*
X158595397Y-100574770D01*
X158499454Y-100530791D01*
X158425673Y-100446277D01*
X158378251Y-100330582D01*
X158361383Y-100193062D01*
X158372095Y-100076880D01*
X158428335Y-99880618D01*
X158431963Y-99873839D01*
X158613090Y-99873839D01*
X158637293Y-99889519D01*
X158710885Y-99899396D01*
X158835346Y-99903640D01*
X158878226Y-99903841D01*
X159143362Y-99903841D01*
X159143362Y-99799681D01*
X159127943Y-99699979D01*
X159078641Y-99639518D01*
X158990888Y-99613812D01*
X158952384Y-99612192D01*
X158884261Y-99618100D01*
X158827577Y-99642144D01*
X158764039Y-99693807D01*
X158728913Y-99728014D01*
X158667825Y-99793645D01*
X158625856Y-99847422D01*
X158613090Y-99873839D01*
X158431963Y-99873839D01*
X158516612Y-99715650D01*
X158632705Y-99587782D01*
G37*
G36*
X151405241Y-98992590D02*
G01*
X151490676Y-99004499D01*
X151537500Y-99028555D01*
X151552776Y-99068048D01*
X151546218Y-99116259D01*
X151527160Y-99163950D01*
X151492766Y-99169528D01*
X151463484Y-99159865D01*
X151360028Y-99138850D01*
X151232237Y-99138214D01*
X151104136Y-99156577D01*
X151013875Y-99185671D01*
X150893462Y-99267822D01*
X150788463Y-99393738D01*
X150702629Y-99555456D01*
X150639708Y-99745013D01*
X150603451Y-99954446D01*
X150596289Y-100072503D01*
X150600892Y-100193053D01*
X150622755Y-100277708D01*
X150640521Y-100310516D01*
X150680882Y-100362572D01*
X150728187Y-100398126D01*
X150791258Y-100418645D01*
X150878921Y-100425598D01*
X150999998Y-100420453D01*
X151163315Y-100404676D01*
X151189291Y-100401788D01*
X151238953Y-100405302D01*
X151254944Y-100441452D01*
X151255575Y-100460439D01*
X151248834Y-100501501D01*
X151219999Y-100527972D01*
X151156146Y-100549296D01*
X151123007Y-100557320D01*
X150920802Y-100587008D01*
X150748335Y-100574816D01*
X150678653Y-100555298D01*
X150575829Y-100509538D01*
X150506869Y-100450731D01*
X150452777Y-100361608D01*
X150443291Y-100341315D01*
X150403477Y-100198906D01*
X150395273Y-100028293D01*
X150416019Y-99841736D01*
X150463054Y-99651496D01*
X150533716Y-99469831D01*
X150625344Y-99309002D01*
X150683658Y-99233931D01*
X150752133Y-99170447D01*
X150843590Y-99103472D01*
X150902444Y-99067659D01*
X150979323Y-99028650D01*
X151047675Y-99005273D01*
X151126119Y-98993614D01*
X151233272Y-98989760D01*
X151274134Y-98989540D01*
X151405241Y-98992590D01*
G37*
G36*
X148041341Y-98929090D02*
G01*
X148054188Y-98949395D01*
X148054825Y-98993340D01*
X148043875Y-99068828D01*
X148021959Y-99183762D01*
X148003848Y-99274728D01*
X147982065Y-99391190D01*
X147966732Y-99487377D01*
X147959456Y-99552144D01*
X147960716Y-99574083D01*
X147989829Y-99570650D01*
X148045684Y-99545287D01*
X148065943Y-99533860D01*
X148152239Y-99495692D01*
X148253734Y-99467519D01*
X148280017Y-99463084D01*
X148359672Y-99456170D01*
X148412838Y-99468716D01*
X148464855Y-99508978D01*
X148486785Y-99530451D01*
X148536339Y-99584717D01*
X148558317Y-99631428D01*
X148559620Y-99693382D01*
X148553074Y-99749427D01*
X148539293Y-99833404D01*
X148516632Y-99950644D01*
X148488730Y-100082881D01*
X148470070Y-100165801D01*
X148441989Y-100287310D01*
X148417231Y-100394613D01*
X148398943Y-100474063D01*
X148391396Y-100507025D01*
X148369504Y-100549753D01*
X148319583Y-100565629D01*
X148289606Y-100566680D01*
X148201371Y-100566680D01*
X148289773Y-100188862D01*
X148329764Y-100013637D01*
X148356839Y-99882291D01*
X148371772Y-99787476D01*
X148375335Y-99721839D01*
X148368299Y-99678032D01*
X148351439Y-99648703D01*
X148347036Y-99644008D01*
X148287304Y-99617121D01*
X148201641Y-99616363D01*
X148109947Y-99641195D01*
X148089044Y-99651010D01*
X148011727Y-99700573D01*
X147950596Y-99765320D01*
X147900614Y-99854447D01*
X147856745Y-99977151D01*
X147813952Y-100142626D01*
X147809760Y-100160903D01*
X147780912Y-100286846D01*
X147755353Y-100396815D01*
X147735900Y-100478789D01*
X147725504Y-100520282D01*
X147688916Y-100558224D01*
X147634686Y-100566680D01*
X147576126Y-100556976D01*
X147557903Y-100523941D01*
X147557892Y-100520282D01*
X147563593Y-100483358D01*
X147579250Y-100401526D01*
X147603444Y-100281670D01*
X147634761Y-100130674D01*
X147671784Y-99955425D01*
X147713096Y-99762807D01*
X147725610Y-99704989D01*
X147892367Y-98936096D01*
X147976528Y-98927788D01*
X148015662Y-98924522D01*
X148041341Y-98929090D01*
G37*
G36*
X145302908Y-98929335D02*
G01*
X145329580Y-98944280D01*
X145329792Y-98946146D01*
X145324466Y-98976003D01*
X145309593Y-99049898D01*
X145286830Y-99160041D01*
X145257834Y-99298639D01*
X145224261Y-99457900D01*
X145187767Y-99630035D01*
X145150010Y-99807250D01*
X145112646Y-99981754D01*
X145077332Y-100145756D01*
X145045724Y-100291464D01*
X145019479Y-100411087D01*
X145000255Y-100496833D01*
X144997909Y-100507025D01*
X144975475Y-100550011D01*
X144924652Y-100565758D01*
X144896905Y-100566680D01*
X144809705Y-100566680D01*
X145160527Y-98936096D01*
X145245159Y-98927788D01*
X145302908Y-98929335D01*
G37*
G36*
X146153041Y-100644146D02*
G01*
X146192736Y-100603552D01*
X146248692Y-100545646D01*
X146269328Y-100505275D01*
X146261439Y-100467756D01*
X146258378Y-100461769D01*
X146241682Y-100378562D01*
X146272494Y-100291217D01*
X146347181Y-100209607D01*
X146352733Y-100205296D01*
X146407278Y-100160662D01*
X146425059Y-100129407D01*
X146412307Y-100093869D01*
X146399292Y-100073339D01*
X146365453Y-99976883D01*
X146367461Y-99919437D01*
X146550722Y-99919437D01*
X146557151Y-100003479D01*
X146581232Y-100057620D01*
X146635150Y-100081308D01*
X146716678Y-100087170D01*
X146803598Y-100075526D01*
X146862548Y-100053567D01*
X146933259Y-99993972D01*
X146987120Y-99910679D01*
X147020697Y-99817091D01*
X147030557Y-99726609D01*
X147013267Y-99652635D01*
X146975376Y-99613125D01*
X146874722Y-99586886D01*
X146766582Y-99602148D01*
X146667688Y-99653238D01*
X146594773Y-99734483D01*
X146589635Y-99743892D01*
X146561731Y-99826136D01*
X146550722Y-99919437D01*
X146367461Y-99919437D01*
X146369449Y-99862551D01*
X146406323Y-99743785D01*
X146471116Y-99634023D01*
X146558870Y-99546706D01*
X146603931Y-99518625D01*
X146685909Y-99489841D01*
X146807510Y-99464437D01*
X146955353Y-99444308D01*
X147116056Y-99431352D01*
X147247241Y-99427416D01*
X147342489Y-99428063D01*
X147395812Y-99433614D01*
X147418300Y-99447856D01*
X147421043Y-99474574D01*
X147419579Y-99486252D01*
X147406542Y-99523523D01*
X147371572Y-99543337D01*
X147300257Y-99552951D01*
X147285015Y-99553995D01*
X147210230Y-99560593D01*
X147178021Y-99572203D01*
X147177973Y-99595702D01*
X147188649Y-99617624D01*
X147205277Y-99689884D01*
X147201394Y-99789775D01*
X147179370Y-99897094D01*
X147145676Y-99983952D01*
X147098205Y-100046949D01*
X147026603Y-100112835D01*
X146994843Y-100135863D01*
X146922486Y-100177412D01*
X146850790Y-100199945D01*
X146757979Y-100209010D01*
X146703156Y-100210177D01*
X146597813Y-100214295D01*
X146529692Y-100226896D01*
X146483201Y-100251753D01*
X146465414Y-100267709D01*
X146421530Y-100323500D01*
X146419949Y-100363662D01*
X146463240Y-100389916D01*
X146553973Y-100403981D01*
X146674523Y-100407640D01*
X146818835Y-100412219D01*
X146923198Y-100427073D01*
X147000004Y-100453968D01*
X147000147Y-100454039D01*
X147055666Y-100486382D01*
X147084517Y-100523680D01*
X147097067Y-100584701D01*
X147100846Y-100636355D01*
X147101806Y-100722932D01*
X147086243Y-100782060D01*
X147045430Y-100838740D01*
X147020881Y-100865479D01*
X146909699Y-100948891D01*
X146765090Y-101007402D01*
X146601789Y-101038287D01*
X146434536Y-101038825D01*
X146278068Y-101006293D01*
X146271374Y-101003957D01*
X146172314Y-100955175D01*
X146117613Y-100890043D01*
X146098909Y-100797883D01*
X146098685Y-100783481D01*
X146100234Y-100773946D01*
X146260118Y-100773946D01*
X146297450Y-100828308D01*
X146378006Y-100866294D01*
X146498587Y-100884001D01*
X146535430Y-100884802D01*
X146669493Y-100873756D01*
X146777034Y-100843351D01*
X146787501Y-100838403D01*
X146870740Y-100781480D01*
X146923511Y-100714924D01*
X146939214Y-100649938D01*
X146922705Y-100608981D01*
X146892915Y-100587779D01*
X146839500Y-100574701D01*
X146752211Y-100568197D01*
X146642838Y-100566680D01*
X146524734Y-100567923D01*
X146446274Y-100573490D01*
X146394100Y-100586138D01*
X146354854Y-100608627D01*
X146327922Y-100631698D01*
X146269209Y-100707108D01*
X146260118Y-100773946D01*
X146100234Y-100773946D01*
X146110520Y-100710629D01*
X146153041Y-100644146D01*
G37*
G36*
X145992928Y-99006062D02*
G01*
X146014488Y-99023586D01*
X146009342Y-99062035D01*
X145996072Y-99130912D01*
X145992993Y-99168090D01*
X145980975Y-99198855D01*
X145937270Y-99212396D01*
X145884790Y-99214488D01*
X145816341Y-99210804D01*
X145788972Y-99195951D01*
X145789889Y-99168090D01*
X145815631Y-99079077D01*
X145836627Y-99029504D01*
X145862722Y-99007829D01*
X145903759Y-99002511D01*
X145931226Y-99002380D01*
X145992928Y-99006062D01*
G37*
%TO.C,TP7*%
X164850000Y-84400000D02*
X166250000Y-84400000D01*
X166250000Y-85800000D02*
X164850000Y-85800000D01*
X164850000Y-85800000D02*
X164850000Y-84400000D01*
X166250000Y-84400000D02*
X166250000Y-85800000D01*
%TO.C,TP4*%
X145850000Y-73200000D02*
X145850000Y-74600000D01*
X145850000Y-74600000D02*
X144450000Y-74600000D01*
X144450000Y-74600000D02*
X144450000Y-73200000D01*
X144450000Y-73200000D02*
X145850000Y-73200000D01*
%TO.C,SW2*%
X185459600Y-76455200D02*
X185159600Y-76455200D01*
X185459600Y-72315200D02*
X185459600Y-76455200D01*
X182619600Y-76455200D02*
X182319600Y-76455200D01*
X185159600Y-72315200D02*
X185459600Y-72315200D01*
X182319600Y-76455200D02*
X182319600Y-72315200D01*
X182319600Y-72315200D02*
X182619600Y-72315200D01*
%TO.C,D12*%
X165355000Y-88210000D02*
X165355000Y-90495000D01*
X165355000Y-90495000D02*
X166825000Y-90495000D01*
X166825000Y-90495000D02*
X166825000Y-88210000D01*
%TO.C,R8*%
X114612742Y-91512500D02*
X115087258Y-91512500D01*
X114612742Y-90467500D02*
X115087258Y-90467500D01*
%TD*%
M02*
