%TF.GenerationSoftware,KiCad,Pcbnew,(6.0.2)*%
%TF.CreationDate,2022-11-13T17:15:13+11:00*%
%TF.ProjectId,Strelka_Flight_Computer,53747265-6c6b-4615-9f46-6c696768745f,rev?*%
%TF.SameCoordinates,Original*%
%TF.FileFunction,Soldermask,Bot*%
%TF.FilePolarity,Negative*%
%FSLAX46Y46*%
G04 Gerber Fmt 4.6, Leading zero omitted, Abs format (unit mm)*
G04 Created by KiCad (PCBNEW (6.0.2)) date 2022-11-13 17:15:13*
%MOMM*%
%LPD*%
G01*
G04 APERTURE LIST*
G04 Aperture macros list*
%AMRoundRect*
0 Rectangle with rounded corners*
0 $1 Rounding radius*
0 $2 $3 $4 $5 $6 $7 $8 $9 X,Y pos of 4 corners*
0 Add a 4 corners polygon primitive as box body*
4,1,4,$2,$3,$4,$5,$6,$7,$8,$9,$2,$3,0*
0 Add four circle primitives for the rounded corners*
1,1,$1+$1,$2,$3*
1,1,$1+$1,$4,$5*
1,1,$1+$1,$6,$7*
1,1,$1+$1,$8,$9*
0 Add four rect primitives between the rounded corners*
20,1,$1+$1,$2,$3,$4,$5,0*
20,1,$1+$1,$4,$5,$6,$7,0*
20,1,$1+$1,$6,$7,$8,$9,0*
20,1,$1+$1,$8,$9,$2,$3,0*%
G04 Aperture macros list end*
%ADD10C,0.152400*%
%ADD11R,2.400000X2.400000*%
%ADD12C,2.400000*%
%ADD13C,5.000000*%
%ADD14C,1.400000*%
%ADD15R,3.500000X3.500000*%
%ADD16C,3.500000*%
%ADD17O,1.200000X1.900000*%
%ADD18C,1.450000*%
%ADD19C,2.050000*%
%ADD20C,2.250000*%
%ADD21C,1.600000*%
%ADD22RoundRect,0.150000X0.587500X0.150000X-0.587500X0.150000X-0.587500X-0.150000X0.587500X-0.150000X0*%
%ADD23RoundRect,0.200000X0.275000X-0.200000X0.275000X0.200000X-0.275000X0.200000X-0.275000X-0.200000X0*%
%ADD24RoundRect,0.225000X-0.250000X0.225000X-0.250000X-0.225000X0.250000X-0.225000X0.250000X0.225000X0*%
%ADD25RoundRect,0.237500X0.237500X-0.250000X0.237500X0.250000X-0.237500X0.250000X-0.237500X-0.250000X0*%
%ADD26RoundRect,0.200000X-0.275000X0.200000X-0.275000X-0.200000X0.275000X-0.200000X0.275000X0.200000X0*%
%ADD27RoundRect,0.150000X0.150000X-0.587500X0.150000X0.587500X-0.150000X0.587500X-0.150000X-0.587500X0*%
%ADD28R,1.200000X0.900000*%
%ADD29RoundRect,0.225000X0.225000X0.250000X-0.225000X0.250000X-0.225000X-0.250000X0.225000X-0.250000X0*%
%ADD30RoundRect,0.250000X-0.250000X-0.475000X0.250000X-0.475000X0.250000X0.475000X-0.250000X0.475000X0*%
%ADD31RoundRect,0.005000X-0.332500X-0.120000X0.332500X-0.120000X0.332500X0.120000X-0.332500X0.120000X0*%
%ADD32RoundRect,0.005000X-0.120000X0.270000X-0.120000X-0.270000X0.120000X-0.270000X0.120000X0.270000X0*%
%ADD33RoundRect,0.200000X-0.200000X-0.275000X0.200000X-0.275000X0.200000X0.275000X-0.200000X0.275000X0*%
%ADD34RoundRect,0.150000X-0.512500X-0.150000X0.512500X-0.150000X0.512500X0.150000X-0.512500X0.150000X0*%
%ADD35RoundRect,0.028800X-0.706200X-0.211200X0.706200X-0.211200X0.706200X0.211200X-0.706200X0.211200X0*%
%ADD36RoundRect,0.150000X-0.150000X0.512500X-0.150000X-0.512500X0.150000X-0.512500X0.150000X0.512500X0*%
%ADD37RoundRect,0.250000X-1.425000X0.362500X-1.425000X-0.362500X1.425000X-0.362500X1.425000X0.362500X0*%
%ADD38RoundRect,0.200000X0.200000X0.275000X-0.200000X0.275000X-0.200000X-0.275000X0.200000X-0.275000X0*%
%ADD39RoundRect,0.237500X-0.300000X-0.237500X0.300000X-0.237500X0.300000X0.237500X-0.300000X0.237500X0*%
%ADD40R,1.700000X0.600000*%
%ADD41R,2.700000X1.000000*%
%ADD42RoundRect,0.237500X-0.237500X0.250000X-0.237500X-0.250000X0.237500X-0.250000X0.237500X0.250000X0*%
%ADD43RoundRect,0.250000X0.362500X1.425000X-0.362500X1.425000X-0.362500X-1.425000X0.362500X-1.425000X0*%
%ADD44R,1.000000X2.000000*%
%ADD45R,0.600000X0.700000*%
%ADD46R,1.250000X0.650000*%
%ADD47RoundRect,0.237500X0.237500X-0.300000X0.237500X0.300000X-0.237500X0.300000X-0.237500X-0.300000X0*%
%ADD48R,0.650000X2.200000*%
%ADD49R,0.650000X2.300000*%
%ADD50R,0.558800X1.003300*%
%ADD51RoundRect,0.250000X-0.475000X0.250000X-0.475000X-0.250000X0.475000X-0.250000X0.475000X0.250000X0*%
%ADD52RoundRect,0.225000X-0.225000X-0.250000X0.225000X-0.250000X0.225000X0.250000X-0.225000X0.250000X0*%
%ADD53RoundRect,0.450000X-0.550000X-0.450000X0.550000X-0.450000X0.550000X0.450000X-0.550000X0.450000X0*%
%ADD54RoundRect,0.225000X0.250000X-0.225000X0.250000X0.225000X-0.250000X0.225000X-0.250000X-0.225000X0*%
%ADD55R,1.092200X0.609600*%
G04 APERTURE END LIST*
D10*
%TO.C,U12*%
X175871700Y-89829800D02*
X174779500Y-89829800D01*
X178071700Y-88579800D02*
X176979500Y-88579800D01*
X176979500Y-89829800D02*
X176979500Y-89220200D01*
X178071700Y-90470200D02*
X178071700Y-91079800D01*
X174779500Y-89829800D02*
X174779500Y-89220200D01*
X176979500Y-87970200D02*
X178071700Y-87970200D01*
X175871700Y-87970200D02*
X175871700Y-88579800D01*
X174779500Y-92329800D02*
X174779500Y-91720200D01*
X174779500Y-90470200D02*
X175871700Y-90470200D01*
X178071700Y-87970200D02*
X178071700Y-88579800D01*
X174779500Y-87970200D02*
X175871700Y-87970200D01*
X175871700Y-91079800D02*
X174779500Y-91079800D01*
X174779500Y-89220200D02*
X175871700Y-89220200D01*
X175871700Y-88579800D02*
X174779500Y-88579800D01*
X176979500Y-89220200D02*
X178071700Y-89220200D01*
X176979500Y-91720200D02*
X178071700Y-91720200D01*
X178071700Y-91079800D02*
X176979500Y-91079800D01*
X174779500Y-91079800D02*
X174779500Y-90470200D01*
X176979500Y-92329800D02*
X176979500Y-91720200D01*
X178071700Y-92329800D02*
X176979500Y-92329800D01*
X176979500Y-90470200D02*
X178071700Y-90470200D01*
X175871700Y-89220200D02*
X175871700Y-89829800D01*
X178071700Y-89829800D02*
X176979500Y-89829800D01*
X175871700Y-92329800D02*
X174779500Y-92329800D01*
X176979500Y-91079800D02*
X176979500Y-90470200D01*
X174779500Y-91720200D02*
X175871700Y-91720200D01*
X178071700Y-91720200D02*
X178071700Y-92329800D01*
X174779500Y-88579800D02*
X174779500Y-87970200D01*
X175871700Y-90470200D02*
X175871700Y-91079800D01*
X178071700Y-89220200D02*
X178071700Y-89829800D01*
X175871700Y-91720200D02*
X175871700Y-92329800D01*
X176979500Y-88579800D02*
X176979500Y-87970200D01*
%TD*%
D11*
%TO.C,J3*%
X102770000Y-98552000D03*
D12*
X102770000Y-95052000D03*
X102770000Y-91552000D03*
X102770000Y-88052000D03*
%TD*%
D13*
%TO.C,H1*%
X168000000Y-98755200D03*
%TD*%
%TO.C,H2*%
X115550000Y-74400000D03*
%TD*%
D14*
%TO.C,J1*%
X99815000Y-84240000D03*
X99815000Y-73240000D03*
D15*
X109815000Y-76240000D03*
D16*
X109815000Y-81240000D03*
%TD*%
D17*
%TO.C,J6*%
X157302400Y-74069300D03*
X164302400Y-74069300D03*
D18*
X163302400Y-76769300D03*
X158302400Y-76769300D03*
%TD*%
D19*
%TO.C,AE1*%
X122600000Y-75875000D03*
D20*
X125140000Y-73335000D03*
X120060000Y-73335000D03*
X125140000Y-78415000D03*
X120060000Y-78415000D03*
%TD*%
D13*
%TO.C,H4*%
X168000000Y-74400000D03*
%TD*%
D21*
%TO.C,C41*%
X124960000Y-95235000D03*
X124960000Y-91735000D03*
%TD*%
D13*
%TO.C,H3*%
X115550000Y-98755200D03*
%TD*%
D22*
%TO.C,Q6*%
X110868700Y-86121200D03*
X110868700Y-88021200D03*
X108993700Y-87071200D03*
%TD*%
D23*
%TO.C,R63*%
X125425200Y-99072200D03*
X125425200Y-97422200D03*
%TD*%
D24*
%TO.C,C28*%
X166950000Y-89775000D03*
X166950000Y-91325000D03*
%TD*%
D25*
%TO.C,R19*%
X165600000Y-95462500D03*
X165600000Y-93637500D03*
%TD*%
D26*
%TO.C,R64*%
X102108000Y-83897200D03*
X102108000Y-85547200D03*
%TD*%
D27*
%TO.C,Q8*%
X107045800Y-74749900D03*
X105145800Y-74749900D03*
X106095800Y-72874900D03*
%TD*%
D28*
%TO.C,D1*%
X117500400Y-84606400D03*
X117500400Y-81306400D03*
%TD*%
D25*
%TO.C,R16*%
X160950000Y-95462500D03*
X160950000Y-93637500D03*
%TD*%
D26*
%TO.C,R7*%
X120700800Y-81877400D03*
X120700800Y-83527400D03*
%TD*%
D29*
%TO.C,C48*%
X131534200Y-100634800D03*
X129984200Y-100634800D03*
%TD*%
D23*
%TO.C,R39*%
X157850000Y-98575000D03*
X157850000Y-96925000D03*
%TD*%
D30*
%TO.C,C55*%
X133771600Y-100563600D03*
X135671600Y-100563600D03*
%TD*%
D31*
%TO.C,U11*%
X171100200Y-91852400D03*
X171100200Y-91352400D03*
X171100200Y-90852400D03*
X171100200Y-90352400D03*
X171100200Y-89852400D03*
X171100200Y-89352400D03*
X171100200Y-88852400D03*
D32*
X170337700Y-88302400D03*
X169837700Y-88302400D03*
X169337700Y-88302400D03*
D31*
X168575200Y-88852400D03*
X168575200Y-89352400D03*
X168575200Y-89852400D03*
X168575200Y-90352400D03*
X168575200Y-90852400D03*
X168575200Y-91352400D03*
X168575200Y-91852400D03*
D32*
X169337700Y-92402400D03*
X169837700Y-92402400D03*
X170337700Y-92402400D03*
%TD*%
D33*
%TO.C,R61*%
X126847600Y-100634800D03*
X128497600Y-100634800D03*
%TD*%
D25*
%TO.C,R14*%
X157850000Y-95462500D03*
X157850000Y-93637500D03*
%TD*%
D34*
%TO.C,U15*%
X105669500Y-98105000D03*
X105669500Y-97155000D03*
X105669500Y-96205000D03*
X107944500Y-96205000D03*
X107944500Y-98105000D03*
%TD*%
D23*
%TO.C,R36*%
X162500000Y-98575000D03*
X162500000Y-96925000D03*
%TD*%
D35*
%TO.C,U16*%
X127085200Y-98409400D03*
X127085200Y-97759400D03*
X127085200Y-97109400D03*
X127085200Y-96459400D03*
X131385200Y-96459400D03*
X131385200Y-97109400D03*
X131385200Y-97759400D03*
X131385200Y-98409400D03*
%TD*%
D29*
%TO.C,C46*%
X122847400Y-95910400D03*
X121297400Y-95910400D03*
%TD*%
D22*
%TO.C,D11*%
X179487500Y-81150000D03*
X179487500Y-83050000D03*
X177612500Y-82100000D03*
%TD*%
D33*
%TO.C,R49*%
X110427000Y-99212400D03*
X112077000Y-99212400D03*
%TD*%
D28*
%TO.C,D14*%
X133632000Y-98813600D03*
X133632000Y-95513600D03*
%TD*%
D36*
%TO.C,U2*%
X123916400Y-86136900D03*
X124866400Y-86136900D03*
X125816400Y-86136900D03*
X125816400Y-88411900D03*
X124866400Y-88411900D03*
X123916400Y-88411900D03*
%TD*%
D37*
%TO.C,R27*%
X104851200Y-78571500D03*
X104851200Y-84496500D03*
%TD*%
D23*
%TO.C,R69*%
X102108000Y-82523600D03*
X102108000Y-80873600D03*
%TD*%
D38*
%TO.C,R34*%
X107251000Y-86487000D03*
X105601000Y-86487000D03*
%TD*%
D23*
%TO.C,R31*%
X109875000Y-91150000D03*
X109875000Y-89500000D03*
%TD*%
D26*
%TO.C,R9*%
X123139200Y-90107000D03*
X123139200Y-91757000D03*
%TD*%
D39*
%TO.C,C13*%
X147727500Y-93980000D03*
X149452500Y-93980000D03*
%TD*%
D40*
%TO.C,SW3*%
X100905000Y-79111000D03*
X100905000Y-77861000D03*
D41*
X97705000Y-76011000D03*
X97705000Y-80961000D03*
%TD*%
D38*
%TO.C,R54*%
X107124000Y-93091000D03*
X105474000Y-93091000D03*
%TD*%
D29*
%TO.C,C51*%
X125387400Y-100634800D03*
X123837400Y-100634800D03*
%TD*%
D23*
%TO.C,R37*%
X160950000Y-98575000D03*
X160950000Y-96925000D03*
%TD*%
D24*
%TO.C,C30*%
X179170000Y-87960000D03*
X179170000Y-89510000D03*
%TD*%
D42*
%TO.C,R21*%
X168450000Y-81000000D03*
X168450000Y-82825000D03*
%TD*%
D22*
%TO.C,Q11*%
X111783100Y-95773200D03*
X111783100Y-97673200D03*
X109908100Y-96723200D03*
%TD*%
D43*
%TO.C,R47*%
X119650100Y-94030800D03*
X113725100Y-94030800D03*
%TD*%
D26*
%TO.C,R40*%
X172675000Y-88725000D03*
X172675000Y-90375000D03*
%TD*%
D44*
%TO.C,U4*%
X141924800Y-88619600D03*
X139924800Y-88619600D03*
X137924800Y-88619600D03*
X135924800Y-88619600D03*
X133924800Y-88619600D03*
X131924800Y-88619600D03*
X129924800Y-88619600D03*
X127924800Y-88619600D03*
X127924800Y-72619600D03*
X129924800Y-72619600D03*
X131924800Y-72619600D03*
X133924800Y-72619600D03*
X135924800Y-72619600D03*
X137924800Y-72619600D03*
X139924800Y-72619600D03*
X141924800Y-72619600D03*
%TD*%
D39*
%TO.C,C18*%
X147017500Y-79310000D03*
X148742500Y-79310000D03*
%TD*%
D33*
%TO.C,R56*%
X177275000Y-84600000D03*
X178925000Y-84600000D03*
%TD*%
D45*
%TO.C,D9*%
X100584000Y-99060000D03*
X99184000Y-99060000D03*
%TD*%
D34*
%TO.C,U10*%
X105796500Y-91501000D03*
X105796500Y-90551000D03*
X105796500Y-89601000D03*
X108071500Y-89601000D03*
X108071500Y-91501000D03*
%TD*%
D22*
%TO.C,Q1*%
X115214400Y-79380000D03*
X115214400Y-81280000D03*
X113339400Y-80330000D03*
%TD*%
D46*
%TO.C,IC1*%
X154150000Y-96145000D03*
X154150000Y-97415000D03*
X154150000Y-98685000D03*
X154150000Y-99955000D03*
X146650000Y-99955000D03*
X146650000Y-98685000D03*
X146650000Y-97415000D03*
X146650000Y-96145000D03*
%TD*%
D47*
%TO.C,C17*%
X144950000Y-94572500D03*
X144950000Y-92847500D03*
%TD*%
D28*
%TO.C,I1*%
X99822000Y-92709000D03*
X99822000Y-89409000D03*
%TD*%
D38*
%TO.C,R52*%
X107124000Y-94615000D03*
X105474000Y-94615000D03*
%TD*%
D28*
%TO.C,I2*%
X99822000Y-94235000D03*
X99822000Y-97535000D03*
%TD*%
D25*
%TO.C,R17*%
X162500000Y-95462500D03*
X162500000Y-93637500D03*
%TD*%
D48*
%TO.C,BT2*%
X172150000Y-85225000D03*
D49*
X173650000Y-85175000D03*
%TD*%
D27*
%TO.C,Q3*%
X103616800Y-74749900D03*
X101716800Y-74749900D03*
X102666800Y-72874900D03*
%TD*%
D39*
%TO.C,C15*%
X147017500Y-77780000D03*
X148742500Y-77780000D03*
%TD*%
D24*
%TO.C,C31*%
X144950000Y-96125000D03*
X144950000Y-97675000D03*
%TD*%
D42*
%TO.C,R22*%
X166900000Y-80987500D03*
X166900000Y-82812500D03*
%TD*%
D50*
%TO.C,MOSFET1*%
X123901200Y-81673700D03*
X124851201Y-81673700D03*
X125801202Y-81673700D03*
X125801202Y-84378800D03*
X124851201Y-84378800D03*
X123901200Y-84378800D03*
%TD*%
D33*
%TO.C,R28*%
X104991400Y-76555600D03*
X106641400Y-76555600D03*
%TD*%
D23*
%TO.C,R35*%
X164050000Y-98575000D03*
X164050000Y-96925000D03*
%TD*%
D51*
%TO.C,C56*%
X137932000Y-96813600D03*
X137932000Y-98713600D03*
%TD*%
%TO.C,C57*%
X135832000Y-96813600D03*
X135832000Y-98713600D03*
%TD*%
D33*
%TO.C,R3*%
X117043200Y-86156800D03*
X118693200Y-86156800D03*
%TD*%
D47*
%TO.C,C16*%
X158300000Y-82050000D03*
X158300000Y-80325000D03*
%TD*%
D26*
%TO.C,R62*%
X123799600Y-97422200D03*
X123799600Y-99072200D03*
%TD*%
D36*
%TO.C,U8*%
X160175000Y-79625000D03*
X161125000Y-79625000D03*
X162075000Y-79625000D03*
X162075000Y-81900000D03*
X161125000Y-81900000D03*
X160175000Y-81900000D03*
%TD*%
D52*
%TO.C,C38*%
X177325000Y-86100000D03*
X178875000Y-86100000D03*
%TD*%
D24*
%TO.C,C47*%
X122275600Y-97472200D03*
X122275600Y-99022200D03*
%TD*%
D53*
%TO.C,L2*%
X126982000Y-92763600D03*
X131482000Y-92763600D03*
%TD*%
D23*
%TO.C,R30*%
X111400000Y-91159600D03*
X111400000Y-89509600D03*
%TD*%
D38*
%TO.C,R32*%
X107251000Y-88011000D03*
X105601000Y-88011000D03*
%TD*%
D26*
%TO.C,R53*%
X119126000Y-96660200D03*
X119126000Y-98310200D03*
%TD*%
D33*
%TO.C,R48*%
X108547400Y-73304400D03*
X110197400Y-73304400D03*
%TD*%
D45*
%TO.C,D5*%
X100649000Y-87884000D03*
X99249000Y-87884000D03*
%TD*%
D25*
%TO.C,R15*%
X159400000Y-95462500D03*
X159400000Y-93637500D03*
%TD*%
D23*
%TO.C,R38*%
X159400000Y-98575000D03*
X159400000Y-96925000D03*
%TD*%
D54*
%TO.C,C6*%
X122224800Y-83426600D03*
X122224800Y-81876600D03*
%TD*%
D24*
%TO.C,C29*%
X172750000Y-92150000D03*
X172750000Y-93700000D03*
%TD*%
D54*
%TO.C,C36*%
X168450000Y-85850000D03*
X168450000Y-84300000D03*
%TD*%
D25*
%TO.C,R18*%
X164050000Y-95462500D03*
X164050000Y-93637500D03*
%TD*%
D55*
%TO.C,U12*%
X177525600Y-88275000D03*
X177525600Y-89525000D03*
X177525600Y-90775000D03*
X177525600Y-92025000D03*
X175325600Y-92025000D03*
X175325600Y-90775000D03*
X175325600Y-89525000D03*
X175325600Y-88275000D03*
%TD*%
M02*
