%TF.GenerationSoftware,KiCad,Pcbnew,(6.0.2)*%
%TF.CreationDate,2022-11-13T17:15:13+11:00*%
%TF.ProjectId,Strelka_Flight_Computer,53747265-6c6b-4615-9f46-6c696768745f,rev?*%
%TF.SameCoordinates,Original*%
%TF.FileFunction,Soldermask,Top*%
%TF.FilePolarity,Negative*%
%FSLAX46Y46*%
G04 Gerber Fmt 4.6, Leading zero omitted, Abs format (unit mm)*
G04 Created by KiCad (PCBNEW (6.0.2)) date 2022-11-13 17:15:13*
%MOMM*%
%LPD*%
G01*
G04 APERTURE LIST*
G04 Aperture macros list*
%AMRoundRect*
0 Rectangle with rounded corners*
0 $1 Rounding radius*
0 $2 $3 $4 $5 $6 $7 $8 $9 X,Y pos of 4 corners*
0 Add a 4 corners polygon primitive as box body*
4,1,4,$2,$3,$4,$5,$6,$7,$8,$9,$2,$3,0*
0 Add four circle primitives for the rounded corners*
1,1,$1+$1,$2,$3*
1,1,$1+$1,$4,$5*
1,1,$1+$1,$6,$7*
1,1,$1+$1,$8,$9*
0 Add four rect primitives between the rounded corners*
20,1,$1+$1,$2,$3,$4,$5,0*
20,1,$1+$1,$4,$5,$6,$7,0*
20,1,$1+$1,$6,$7,$8,$9,0*
20,1,$1+$1,$8,$9,$2,$3,0*%
G04 Aperture macros list end*
%ADD10RoundRect,0.225000X0.250000X-0.225000X0.250000X0.225000X-0.250000X0.225000X-0.250000X-0.225000X0*%
%ADD11RoundRect,0.237500X-0.237500X0.250000X-0.237500X-0.250000X0.237500X-0.250000X0.237500X0.250000X0*%
%ADD12R,1.000000X1.000000*%
%ADD13RoundRect,0.200000X-0.800000X0.200000X-0.800000X-0.200000X0.800000X-0.200000X0.800000X0.200000X0*%
%ADD14R,1.500000X2.000000*%
%ADD15R,3.800000X2.000000*%
%ADD16R,0.700000X1.800000*%
%ADD17R,0.800000X1.800000*%
%ADD18RoundRect,0.237500X-0.300000X-0.237500X0.300000X-0.237500X0.300000X0.237500X-0.300000X0.237500X0*%
%ADD19R,2.400000X2.400000*%
%ADD20C,2.400000*%
%ADD21R,1.200000X0.900000*%
%ADD22RoundRect,0.237500X-0.237500X0.300000X-0.237500X-0.300000X0.237500X-0.300000X0.237500X0.300000X0*%
%ADD23RoundRect,0.237500X-0.250000X-0.237500X0.250000X-0.237500X0.250000X0.237500X-0.250000X0.237500X0*%
%ADD24RoundRect,0.140000X-0.140000X-0.170000X0.140000X-0.170000X0.140000X0.170000X-0.140000X0.170000X0*%
%ADD25RoundRect,0.225000X-0.225000X-0.250000X0.225000X-0.250000X0.225000X0.250000X-0.225000X0.250000X0*%
%ADD26RoundRect,0.200000X0.200000X0.275000X-0.200000X0.275000X-0.200000X-0.275000X0.200000X-0.275000X0*%
%ADD27RoundRect,0.218750X-0.218750X-0.256250X0.218750X-0.256250X0.218750X0.256250X-0.218750X0.256250X0*%
%ADD28R,1.700000X0.600000*%
%ADD29R,2.700000X1.000000*%
%ADD30RoundRect,0.225000X0.225000X0.250000X-0.225000X0.250000X-0.225000X-0.250000X0.225000X-0.250000X0*%
%ADD31RoundRect,0.237500X0.300000X0.237500X-0.300000X0.237500X-0.300000X-0.237500X0.300000X-0.237500X0*%
%ADD32RoundRect,0.237500X0.237500X-0.300000X0.237500X0.300000X-0.237500X0.300000X-0.237500X-0.300000X0*%
%ADD33R,1.000000X1.050000*%
%ADD34R,1.050000X2.200000*%
%ADD35RoundRect,0.200000X-0.275000X0.200000X-0.275000X-0.200000X0.275000X-0.200000X0.275000X0.200000X0*%
%ADD36RoundRect,0.200000X0.275000X-0.200000X0.275000X0.200000X-0.275000X0.200000X-0.275000X-0.200000X0*%
%ADD37C,5.000000*%
%ADD38RoundRect,0.150000X0.587500X0.150000X-0.587500X0.150000X-0.587500X-0.150000X0.587500X-0.150000X0*%
%ADD39RoundRect,0.381000X-0.381000X-0.381000X0.381000X-0.381000X0.381000X0.381000X-0.381000X0.381000X0*%
%ADD40RoundRect,0.075000X-0.700000X-0.075000X0.700000X-0.075000X0.700000X0.075000X-0.700000X0.075000X0*%
%ADD41RoundRect,0.075000X-0.075000X-0.700000X0.075000X-0.700000X0.075000X0.700000X-0.075000X0.700000X0*%
%ADD42R,0.400000X0.650000*%
%ADD43C,1.400000*%
%ADD44R,3.500000X3.500000*%
%ADD45C,3.500000*%
%ADD46RoundRect,0.237500X-0.287500X-0.237500X0.287500X-0.237500X0.287500X0.237500X-0.287500X0.237500X0*%
%ADD47RoundRect,0.135000X0.135000X0.185000X-0.135000X0.185000X-0.135000X-0.185000X0.135000X-0.185000X0*%
%ADD48RoundRect,0.200000X-0.200000X-0.275000X0.200000X-0.275000X0.200000X0.275000X-0.200000X0.275000X0*%
%ADD49R,0.400000X1.350000*%
%ADD50O,1.200000X1.900000*%
%ADD51R,1.500000X1.900000*%
%ADD52R,1.200000X1.900000*%
%ADD53C,1.450000*%
%ADD54RoundRect,0.225000X-0.250000X0.225000X-0.250000X-0.225000X0.250000X-0.225000X0.250000X0.225000X0*%
%ADD55R,1.200000X1.400000*%
%ADD56C,2.050000*%
%ADD57C,2.250000*%
%ADD58R,0.700000X0.600000*%
%ADD59RoundRect,0.135000X-0.135000X-0.185000X0.135000X-0.185000X0.135000X0.185000X-0.135000X0.185000X0*%
%ADD60RoundRect,0.218750X-0.256250X0.218750X-0.256250X-0.218750X0.256250X-0.218750X0.256250X0.218750X0*%
%ADD61R,0.600000X1.700000*%
%ADD62R,1.000000X2.700000*%
%ADD63RoundRect,0.237500X0.237500X-0.250000X0.237500X0.250000X-0.237500X0.250000X-0.237500X-0.250000X0*%
%ADD64RoundRect,0.147500X0.172500X-0.147500X0.172500X0.147500X-0.172500X0.147500X-0.172500X-0.147500X0*%
%ADD65C,1.600000*%
%ADD66R,1.800000X1.000000*%
%ADD67RoundRect,0.200000X0.800000X-0.200000X0.800000X0.200000X-0.800000X0.200000X-0.800000X-0.200000X0*%
%ADD68RoundRect,0.218750X0.256250X-0.218750X0.256250X0.218750X-0.256250X0.218750X-0.256250X-0.218750X0*%
G04 APERTURE END LIST*
D10*
%TO.C,C4*%
X139300000Y-94025000D03*
X139300000Y-92475000D03*
%TD*%
D11*
%TO.C,R66*%
X135037500Y-78640000D03*
X135037500Y-80465000D03*
%TD*%
D12*
%TO.C,TP9*%
X176350000Y-100000000D03*
%TD*%
%TO.C,TP6*%
X164000000Y-85100000D03*
%TD*%
D13*
%TO.C,SW1*%
X183889600Y-77885200D03*
X183889600Y-82085200D03*
%TD*%
D14*
%TO.C,U3*%
X113590000Y-85410000D03*
D15*
X115890000Y-79110000D03*
D14*
X115890000Y-85410000D03*
X118190000Y-85410000D03*
%TD*%
D16*
%TO.C,IC2*%
X171600000Y-88610000D03*
D17*
X172700000Y-88610000D03*
X173800000Y-88610000D03*
X174900000Y-88610000D03*
X176000000Y-88610000D03*
X177100000Y-88610000D03*
X178200000Y-88610000D03*
X179300000Y-88610000D03*
D16*
X180400000Y-88610000D03*
X180400000Y-79110000D03*
D17*
X179300000Y-79110000D03*
X178200000Y-79110000D03*
X177100000Y-79110000D03*
X176000000Y-79110000D03*
X174900000Y-79110000D03*
X173800000Y-79110000D03*
X172700000Y-79110000D03*
D16*
X171600000Y-79110000D03*
%TD*%
D18*
%TO.C,C9*%
X120365000Y-82390000D03*
X122090000Y-82390000D03*
%TD*%
D19*
%TO.C,J3*%
X102770000Y-98552000D03*
D20*
X102770000Y-95052000D03*
X102770000Y-91552000D03*
X102770000Y-88052000D03*
%TD*%
D21*
%TO.C,D4*%
X119960000Y-87470000D03*
X119960000Y-90770000D03*
%TD*%
D22*
%TO.C,C21*%
X138700000Y-86600000D03*
X138700000Y-88325000D03*
%TD*%
D23*
%TO.C,R13*%
X131917500Y-88490000D03*
X133742500Y-88490000D03*
%TD*%
D24*
%TO.C,C37*%
X176380000Y-77450000D03*
X177340000Y-77450000D03*
%TD*%
D21*
%TO.C,D2*%
X117580000Y-87460000D03*
X117580000Y-90760000D03*
%TD*%
D25*
%TO.C,C1*%
X140787500Y-94000000D03*
X142337500Y-94000000D03*
%TD*%
%TO.C,C52*%
X123075000Y-98650000D03*
X124625000Y-98650000D03*
%TD*%
D26*
%TO.C,R50*%
X116395000Y-95097600D03*
X114745000Y-95097600D03*
%TD*%
D27*
%TO.C,FB1*%
X140775000Y-92500000D03*
X142350000Y-92500000D03*
%TD*%
D12*
%TO.C,TP10*%
X174100000Y-100025000D03*
%TD*%
D11*
%TO.C,R68*%
X129107500Y-78640000D03*
X129107500Y-80465000D03*
%TD*%
D18*
%TO.C,C8*%
X120365000Y-80860000D03*
X122090000Y-80860000D03*
%TD*%
D28*
%TO.C,J2*%
X182408400Y-97810800D03*
X182408400Y-96560800D03*
X182408400Y-95310800D03*
X182408400Y-94060800D03*
D29*
X185608400Y-99660800D03*
X185608400Y-92210800D03*
%TD*%
D30*
%TO.C,C27*%
X139612500Y-78622500D03*
X138062500Y-78622500D03*
%TD*%
D31*
%TO.C,C14*%
X153775000Y-94300000D03*
X152050000Y-94300000D03*
%TD*%
D25*
%TO.C,C54*%
X123075000Y-100200000D03*
X124625000Y-100200000D03*
%TD*%
D32*
%TO.C,C19*%
X144050000Y-81662500D03*
X144050000Y-79937500D03*
%TD*%
D33*
%TO.C,AE2*%
X179560000Y-75000000D03*
D34*
X181035000Y-73475000D03*
X178085000Y-73475000D03*
%TD*%
D35*
%TO.C,R59*%
X125250000Y-80815000D03*
X125250000Y-82465000D03*
%TD*%
D22*
%TO.C,C20*%
X138702500Y-83232046D03*
X138702500Y-84957046D03*
%TD*%
D36*
%TO.C,R57*%
X167615000Y-89855000D03*
X167615000Y-88205000D03*
%TD*%
D30*
%TO.C,C50*%
X121575000Y-97100000D03*
X120025000Y-97100000D03*
%TD*%
D37*
%TO.C,H1*%
X168000000Y-98755200D03*
%TD*%
D12*
%TO.C,TP8*%
X164000000Y-83550000D03*
%TD*%
D38*
%TO.C,Q2*%
X115347500Y-89430000D03*
X115347500Y-87530000D03*
X113472500Y-88480000D03*
%TD*%
D39*
%TO.C,JP2*%
X174370000Y-91650000D03*
X176910000Y-94190000D03*
X174370000Y-94190000D03*
X176910000Y-91650000D03*
%TD*%
D40*
%TO.C,U5*%
X144725000Y-83050000D03*
X144725000Y-83550000D03*
X144725000Y-84050000D03*
X144725000Y-84550000D03*
X144725000Y-85050000D03*
X144725000Y-85550000D03*
X144725000Y-86050000D03*
X144725000Y-86550000D03*
X144725000Y-87050000D03*
X144725000Y-87550000D03*
X144725000Y-88050000D03*
X144725000Y-88550000D03*
X144725000Y-89050000D03*
X144725000Y-89550000D03*
X144725000Y-90050000D03*
X144725000Y-90550000D03*
D41*
X146650000Y-92475000D03*
X147150000Y-92475000D03*
X147650000Y-92475000D03*
X148150000Y-92475000D03*
X148650000Y-92475000D03*
X149150000Y-92475000D03*
X149650000Y-92475000D03*
X150150000Y-92475000D03*
X150650000Y-92475000D03*
X151150000Y-92475000D03*
X151650000Y-92475000D03*
X152150000Y-92475000D03*
X152650000Y-92475000D03*
X153150000Y-92475000D03*
X153650000Y-92475000D03*
X154150000Y-92475000D03*
D40*
X156075000Y-90550000D03*
X156075000Y-90050000D03*
X156075000Y-89550000D03*
X156075000Y-89050000D03*
X156075000Y-88550000D03*
X156075000Y-88050000D03*
X156075000Y-87550000D03*
X156075000Y-87050000D03*
X156075000Y-86550000D03*
X156075000Y-86050000D03*
X156075000Y-85550000D03*
X156075000Y-85050000D03*
X156075000Y-84550000D03*
X156075000Y-84050000D03*
X156075000Y-83550000D03*
X156075000Y-83050000D03*
D41*
X154150000Y-81125000D03*
X153650000Y-81125000D03*
X153150000Y-81125000D03*
X152650000Y-81125000D03*
X152150000Y-81125000D03*
X151650000Y-81125000D03*
X151150000Y-81125000D03*
X150650000Y-81125000D03*
X150150000Y-81125000D03*
X149650000Y-81125000D03*
X149150000Y-81125000D03*
X148650000Y-81125000D03*
X148150000Y-81125000D03*
X147650000Y-81125000D03*
X147150000Y-81125000D03*
X146650000Y-81125000D03*
%TD*%
D42*
%TO.C,D6*%
X133487500Y-78552500D03*
X132837500Y-78552500D03*
X132187500Y-78552500D03*
X132187500Y-80452500D03*
X133487500Y-80452500D03*
%TD*%
D30*
%TO.C,C49*%
X121575000Y-100200000D03*
X120025000Y-100200000D03*
%TD*%
D11*
%TO.C,R65*%
X136577500Y-78640000D03*
X136577500Y-80465000D03*
%TD*%
D32*
%TO.C,C11*%
X140970000Y-74268500D03*
X140970000Y-72543500D03*
%TD*%
D37*
%TO.C,H2*%
X115550000Y-74400000D03*
%TD*%
D30*
%TO.C,C3*%
X142337500Y-95550000D03*
X140787500Y-95550000D03*
%TD*%
%TO.C,C53*%
X121600000Y-98650000D03*
X120050000Y-98650000D03*
%TD*%
D43*
%TO.C,J1*%
X99815000Y-84240000D03*
X99815000Y-73240000D03*
D44*
X109815000Y-76240000D03*
D45*
X109815000Y-81240000D03*
%TD*%
D46*
%TO.C,D3*%
X135385000Y-88490000D03*
X137135000Y-88490000D03*
%TD*%
D36*
%TO.C,R58*%
X169140000Y-89855000D03*
X169140000Y-88205000D03*
%TD*%
D32*
%TO.C,C7*%
X120310000Y-85862500D03*
X120310000Y-84137500D03*
%TD*%
D47*
%TO.C,FB3*%
X178370000Y-75290000D03*
X177350000Y-75290000D03*
%TD*%
D48*
%TO.C,R20*%
X125004000Y-87092000D03*
X126654000Y-87092000D03*
%TD*%
D49*
%TO.C,J6*%
X162102400Y-76769300D03*
X161452400Y-76769300D03*
X160802400Y-76769300D03*
X160152400Y-76769300D03*
X159502400Y-76769300D03*
D50*
X157302400Y-74069300D03*
D51*
X159802400Y-74069300D03*
D52*
X163702400Y-74069300D03*
D50*
X164302400Y-74069300D03*
D53*
X163302400Y-76769300D03*
X158302400Y-76769300D03*
D52*
X157902400Y-74069300D03*
D51*
X161802400Y-74069300D03*
%TD*%
D54*
%TO.C,C26*%
X139637500Y-80117500D03*
X139637500Y-81667500D03*
%TD*%
D38*
%TO.C,Q10*%
X109801900Y-100365600D03*
X109801900Y-98465600D03*
X107926900Y-99415600D03*
%TD*%
D55*
%TO.C,Y2*%
X140500000Y-85400000D03*
X140500000Y-87600000D03*
X142200000Y-87600000D03*
X142200000Y-85400000D03*
%TD*%
D31*
%TO.C,C22*%
X142262500Y-89400000D03*
X140537500Y-89400000D03*
%TD*%
D32*
%TO.C,C12*%
X186399600Y-76360200D03*
X186399600Y-74635200D03*
%TD*%
D48*
%TO.C,R51*%
X111697000Y-95758000D03*
X113347000Y-95758000D03*
%TD*%
D56*
%TO.C,AE1*%
X122600000Y-75875000D03*
D57*
X125140000Y-73335000D03*
X120060000Y-73335000D03*
X125140000Y-78415000D03*
X120060000Y-78415000D03*
%TD*%
D11*
%TO.C,R25*%
X162950000Y-80187500D03*
X162950000Y-82012500D03*
%TD*%
D54*
%TO.C,C40*%
X178660000Y-91305000D03*
X178660000Y-92855000D03*
%TD*%
D58*
%TO.C,D13*%
X126760000Y-80700000D03*
X126760000Y-82100000D03*
%TD*%
D59*
%TO.C,R55*%
X176330000Y-76390000D03*
X177350000Y-76390000D03*
%TD*%
D35*
%TO.C,R12*%
X160150000Y-83550000D03*
X160150000Y-85200000D03*
%TD*%
D38*
%TO.C,Q5*%
X109344700Y-91678800D03*
X109344700Y-89778800D03*
X107469700Y-90728800D03*
%TD*%
D36*
%TO.C,R60*%
X123710000Y-82455000D03*
X123710000Y-80805000D03*
%TD*%
D12*
%TO.C,TP5*%
X111825000Y-91475000D03*
%TD*%
D60*
%TO.C,FB2*%
X138097500Y-80105000D03*
X138097500Y-81680000D03*
%TD*%
D12*
%TO.C,TP3*%
X132080000Y-86360000D03*
%TD*%
D61*
%TO.C,J4*%
X135972500Y-76597500D03*
X134722500Y-76597500D03*
X133472500Y-76597500D03*
X132222500Y-76597500D03*
X130972500Y-76597500D03*
X129722500Y-76597500D03*
D62*
X137822500Y-73397500D03*
X127872500Y-73397500D03*
%TD*%
D36*
%TO.C,R10*%
X186359800Y-79526400D03*
X186359800Y-77876400D03*
%TD*%
D63*
%TO.C,R24*%
X161400000Y-82012500D03*
X161400000Y-80187500D03*
%TD*%
D11*
%TO.C,R67*%
X130637500Y-78640000D03*
X130637500Y-80465000D03*
%TD*%
D37*
%TO.C,H4*%
X168000000Y-74400000D03*
%TD*%
D64*
%TO.C,D10*%
X181110000Y-76750000D03*
X181110000Y-75780000D03*
%TD*%
D26*
%TO.C,R29*%
X105422200Y-84632800D03*
X103772200Y-84632800D03*
%TD*%
D30*
%TO.C,C2*%
X142337500Y-90950000D03*
X140787500Y-90950000D03*
%TD*%
D38*
%TO.C,Q9*%
X109801900Y-96911200D03*
X109801900Y-95011200D03*
X107926900Y-95961200D03*
%TD*%
D48*
%TO.C,R33*%
X140750000Y-98525000D03*
X142400000Y-98525000D03*
%TD*%
D32*
%TO.C,C10*%
X139446000Y-74268500D03*
X139446000Y-72543500D03*
%TD*%
D65*
%TO.C,C41*%
X124960000Y-95235000D03*
X124960000Y-91735000D03*
%TD*%
D38*
%TO.C,Q4*%
X109393200Y-88122800D03*
X109393200Y-86222800D03*
X107518200Y-87172800D03*
%TD*%
D37*
%TO.C,H3*%
X115550000Y-98755200D03*
%TD*%
D66*
%TO.C,Y1*%
X141650000Y-80900000D03*
X141650000Y-83400000D03*
%TD*%
D54*
%TO.C,C39*%
X180210000Y-91305000D03*
X180210000Y-92855000D03*
%TD*%
D35*
%TO.C,R11*%
X162125000Y-83525000D03*
X162125000Y-85175000D03*
%TD*%
D12*
%TO.C,TP7*%
X165550000Y-85100000D03*
%TD*%
%TO.C,TP4*%
X145150000Y-73900000D03*
%TD*%
D67*
%TO.C,SW2*%
X183889600Y-76485200D03*
X183889600Y-72285200D03*
%TD*%
D68*
%TO.C,D12*%
X166090000Y-89797500D03*
X166090000Y-88222500D03*
%TD*%
D48*
%TO.C,R8*%
X114025000Y-90990000D03*
X115675000Y-90990000D03*
%TD*%
M02*
